<svg width="146" height="62" viewBox="0 0 146 62" fill="none" xmlns="http://www.w3.org/2000/svg">
<rect width="146" height="62" rx="12" fill="url(#paint0_linear_322_5714)"/>
<g clip-path="url(#clip0_322_5714)">
<path d="M34.7673 30.7052C34.1037 29.7533 33.7722 28.6809 33.7722 27.4889C33.7722 26.4024 34.0851 25.407 34.7096 24.5033C35.0461 24.0129 35.5943 23.4458 36.3539 22.8014C35.854 22.1862 35.3541 21.7055 34.8537 21.3592C33.9499 20.7343 32.9258 20.4219 31.7817 20.4219C31.0992 20.4219 30.2673 20.5852 29.2867 20.9124C28.3444 21.2393 27.6568 21.4029 27.2243 21.4029C26.8972 21.4029 26.2339 21.2588 25.2339 20.9702C24.2243 20.6817 23.3733 20.5376 22.681 20.5376C21.0272 20.5376 19.6618 21.2299 18.585 22.6144C17.4984 24.0183 16.9551 25.8163 16.9551 28.0086C16.9551 30.3355 17.662 32.7536 19.0753 35.2632C20.5079 37.7535 21.955 38.9989 23.4165 38.9989C23.9069 38.9989 24.5416 38.8354 25.3203 38.5085C26.0993 38.1914 26.7819 38.0325 27.3685 38.0325C27.9933 38.0325 28.7194 38.1864 29.5462 38.4939C30.4211 38.8013 31.0944 38.9552 31.5654 38.9552C32.7961 38.9552 34.0319 38.0128 35.2721 36.1283C36.0796 34.9265 36.671 33.7246 37.046 32.5226C36.1902 32.2628 35.4307 31.657 34.7673 30.7052Z" fill="white"/>
<path d="M29.8634 19.5576C30.4693 18.9518 30.9163 18.2883 31.2049 17.5673C31.4836 16.8461 31.6227 16.1922 31.6227 15.6056C31.6227 15.5673 31.6206 15.5191 31.6154 15.4614C31.6111 15.4037 31.6085 15.3557 31.6085 15.3172C31.5988 15.2884 31.5869 15.2355 31.5725 15.1586C31.5582 15.0818 31.5462 15.0289 31.5364 15C29.8441 15.3944 28.6423 16.1059 27.9307 17.1348C27.2097 18.1733 26.8346 19.4087 26.8057 20.8414C27.4499 20.7836 27.9497 20.7021 28.3056 20.5962C28.8252 20.4231 29.3438 20.0768 29.8634 19.5576Z" fill="white"/>
</g>
<path d="M54.8193 44L54.0947 41.6211H50.4512L49.7266 44H47.4434L50.9707 33.9648H53.5615L57.1025 44H54.8193ZM53.5889 39.8438C52.9189 37.6882 52.5407 36.4691 52.4541 36.1865C52.3721 35.904 52.3128 35.6807 52.2764 35.5166C52.126 36.0999 51.6953 37.5423 50.9844 39.8438H53.5889ZM62.4004 44.1367C61.5026 44.1367 60.7985 43.8109 60.2881 43.1592H60.1787C60.2516 43.7972 60.2881 44.1663 60.2881 44.2666V47.3633H58.2031V36.3574H59.8984L60.1924 37.3486H60.2881C60.7757 36.5921 61.498 36.2139 62.4551 36.2139C63.3574 36.2139 64.0638 36.5625 64.5742 37.2598C65.0846 37.957 65.3398 38.9255 65.3398 40.165C65.3398 40.9808 65.2191 41.6895 64.9775 42.291C64.7406 42.8926 64.401 43.3506 63.959 43.665C63.5169 43.9795 62.9974 44.1367 62.4004 44.1367ZM61.7852 37.8818C61.2702 37.8818 60.8942 38.0413 60.6572 38.3604C60.4202 38.6748 60.2972 39.1966 60.2881 39.9258V40.1514C60.2881 40.9717 60.4089 41.5596 60.6504 41.915C60.8965 42.2705 61.2839 42.4482 61.8125 42.4482C62.7467 42.4482 63.2139 41.6781 63.2139 40.1377C63.2139 39.3857 63.0977 38.8229 62.8652 38.4492C62.6374 38.071 62.2773 37.8818 61.7852 37.8818ZM71.2598 44.1367C70.362 44.1367 69.6579 43.8109 69.1475 43.1592H69.0381C69.111 43.7972 69.1475 44.1663 69.1475 44.2666V47.3633H67.0625V36.3574H68.7578L69.0518 37.3486H69.1475C69.6351 36.5921 70.3574 36.2139 71.3145 36.2139C72.2168 36.2139 72.9232 36.5625 73.4336 37.2598C73.944 37.957 74.1992 38.9255 74.1992 40.165C74.1992 40.9808 74.0785 41.6895 73.8369 42.291C73.5999 42.8926 73.2604 43.3506 72.8184 43.665C72.3763 43.9795 71.8568 44.1367 71.2598 44.1367ZM70.6445 37.8818C70.1296 37.8818 69.7536 38.0413 69.5166 38.3604C69.2796 38.6748 69.1566 39.1966 69.1475 39.9258V40.1514C69.1475 40.9717 69.2682 41.5596 69.5098 41.915C69.7559 42.2705 70.1432 42.4482 70.6719 42.4482C71.6061 42.4482 72.0732 41.6781 72.0732 40.1377C72.0732 39.3857 71.957 38.8229 71.7246 38.4492C71.4967 38.071 71.1367 37.8818 70.6445 37.8818ZM85.6221 41.2246C85.6221 42.127 85.2962 42.8379 84.6445 43.3574C83.9974 43.877 83.0951 44.1367 81.9375 44.1367C80.8711 44.1367 79.9277 43.9362 79.1074 43.5352V41.5664C79.7819 41.8672 80.3516 42.0791 80.8164 42.2021C81.2858 42.3252 81.7142 42.3867 82.1016 42.3867C82.5664 42.3867 82.9219 42.2979 83.168 42.1201C83.4186 41.9424 83.5439 41.6781 83.5439 41.3271C83.5439 41.1312 83.4893 40.958 83.3799 40.8076C83.2705 40.6527 83.1087 40.5046 82.8945 40.3633C82.6849 40.222 82.2542 39.9964 81.6025 39.6865C80.9919 39.3994 80.5339 39.1237 80.2285 38.8594C79.9232 38.5951 79.6794 38.2874 79.4971 37.9365C79.3148 37.5856 79.2236 37.1755 79.2236 36.7061C79.2236 35.8219 79.5221 35.127 80.1191 34.6211C80.7207 34.1152 81.5501 33.8623 82.6074 33.8623C83.127 33.8623 83.6214 33.9238 84.0908 34.0469C84.5648 34.1699 85.0592 34.3431 85.5742 34.5664L84.8906 36.2139C84.3574 35.9951 83.9154 35.8424 83.5645 35.7559C83.2181 35.6693 82.8763 35.626 82.5391 35.626C82.138 35.626 81.8304 35.7194 81.6162 35.9062C81.402 36.0931 81.2949 36.3369 81.2949 36.6377C81.2949 36.8245 81.3382 36.9886 81.4248 37.1299C81.5114 37.2666 81.6481 37.401 81.835 37.5332C82.0264 37.6608 82.4753 37.8932 83.1816 38.2305C84.1159 38.6771 84.7562 39.126 85.1025 39.5771C85.4489 40.0238 85.6221 40.5729 85.6221 41.2246ZM90.4893 42.4756C90.8538 42.4756 91.2913 42.3958 91.8018 42.2363V43.7881C91.2822 44.0205 90.6442 44.1367 89.8877 44.1367C89.0537 44.1367 88.4453 43.9271 88.0625 43.5078C87.6842 43.084 87.4951 42.4505 87.4951 41.6074V37.9229H86.4971V37.041L87.6455 36.3438L88.2471 34.7305H89.5801V36.3574H91.7197V37.9229H89.5801V41.6074C89.5801 41.9036 89.6621 42.1224 89.8262 42.2637C89.9948 42.4049 90.2158 42.4756 90.4893 42.4756ZM95.0146 40.165C95.0146 40.9215 95.1377 41.4935 95.3838 41.8809C95.6344 42.2682 96.04 42.4619 96.6006 42.4619C97.1566 42.4619 97.5553 42.2705 97.7969 41.8877C98.043 41.5003 98.166 40.9261 98.166 40.165C98.166 39.4085 98.043 38.8411 97.7969 38.4629C97.5508 38.0846 97.1475 37.8955 96.5869 37.8955C96.0309 37.8955 95.6299 38.0846 95.3838 38.4629C95.1377 38.8366 95.0146 39.404 95.0146 40.165ZM100.299 40.165C100.299 41.4092 99.9707 42.3822 99.3145 43.084C98.6582 43.7858 97.7445 44.1367 96.5732 44.1367C95.8395 44.1367 95.1924 43.9772 94.6318 43.6582C94.0713 43.3346 93.6406 42.8721 93.3398 42.2705C93.0391 41.6689 92.8887 40.9671 92.8887 40.165C92.8887 38.9163 93.2145 37.9456 93.8662 37.2529C94.5179 36.5602 95.4339 36.2139 96.6143 36.2139C97.348 36.2139 97.9951 36.3734 98.5557 36.6924C99.1162 37.0114 99.5469 37.4694 99.8477 38.0664C100.148 38.6634 100.299 39.363 100.299 40.165ZM106.287 36.2139C106.57 36.2139 106.804 36.2344 106.991 36.2754L106.834 38.2305C106.665 38.1849 106.46 38.1621 106.219 38.1621C105.553 38.1621 105.034 38.333 104.66 38.6748C104.291 39.0166 104.106 39.4951 104.106 40.1104V44H102.021V36.3574H103.601L103.908 37.6426H104.011C104.248 37.2142 104.567 36.8701 104.968 36.6104C105.373 36.346 105.813 36.2139 106.287 36.2139ZM111.544 37.6973C111.102 37.6973 110.756 37.8385 110.505 38.1211C110.254 38.3991 110.111 38.7956 110.074 39.3105H113C112.991 38.7956 112.856 38.3991 112.597 38.1211C112.337 37.8385 111.986 37.6973 111.544 37.6973ZM111.838 44.1367C110.607 44.1367 109.646 43.7972 108.953 43.1182C108.26 42.4391 107.914 41.4775 107.914 40.2334C107.914 38.9528 108.233 37.9639 108.871 37.2666C109.514 36.5648 110.4 36.2139 111.53 36.2139C112.61 36.2139 113.451 36.5215 114.053 37.1367C114.654 37.752 114.955 38.6019 114.955 39.6865V40.6982H110.026C110.049 41.2907 110.225 41.7533 110.553 42.0859C110.881 42.4186 111.341 42.585 111.934 42.585C112.394 42.585 112.829 42.5371 113.239 42.4414C113.649 42.3457 114.078 42.193 114.524 41.9834V43.5967C114.16 43.779 113.77 43.9134 113.355 44C112.941 44.0911 112.435 44.1367 111.838 44.1367Z" fill="white"/>
<path d="M52.7422 27L51.8633 24.7344H49.002L48.1279 27H47.2881L50.0811 19.832H50.8281L53.6016 27H52.7422ZM51.6143 23.9971L50.7793 21.7461C50.7598 21.6875 50.7272 21.5915 50.6816 21.458C50.6393 21.3245 50.5954 21.1862 50.5498 21.043C50.5042 20.8997 50.4668 20.7842 50.4375 20.6963C50.4049 20.8298 50.3691 20.9632 50.3301 21.0967C50.2943 21.2269 50.2585 21.349 50.2227 21.4629C50.1868 21.5736 50.1559 21.668 50.1299 21.7461L49.2803 23.9971H51.6143ZM55.6475 27L53.6162 21.6484H54.4854L55.6621 24.8857C55.7435 25.1071 55.8265 25.3512 55.9111 25.6182C55.9958 25.8851 56.0544 26.0999 56.0869 26.2627H56.1211C56.1602 26.0999 56.2253 25.8851 56.3164 25.6182C56.4076 25.348 56.4906 25.1038 56.5654 24.8857L57.7422 21.6484H58.6113L56.5752 27H55.6475ZM61.4727 21.5605C62.1107 21.5605 62.5843 21.7038 62.8936 21.9902C63.2028 22.2767 63.3574 22.734 63.3574 23.3623V27H62.7666L62.6104 26.209H62.5713C62.4215 26.4043 62.2653 26.5687 62.1025 26.7021C61.9398 26.8324 61.751 26.9316 61.5361 27C61.3245 27.0651 61.0641 27.0977 60.7549 27.0977C60.4294 27.0977 60.1396 27.0407 59.8857 26.9268C59.6351 26.8128 59.4365 26.6403 59.29 26.4092C59.1468 26.1781 59.0752 25.8851 59.0752 25.5303C59.0752 24.9964 59.2868 24.5863 59.71 24.2998C60.1331 24.0133 60.7777 23.8571 61.6436 23.8311L62.5664 23.792V23.4648C62.5664 23.0026 62.4671 22.6787 62.2686 22.4932C62.07 22.3076 61.79 22.2148 61.4287 22.2148C61.1488 22.2148 60.8818 22.2555 60.6279 22.3369C60.374 22.4183 60.1331 22.5143 59.9053 22.625L59.6562 22.0098C59.8971 21.8861 60.1738 21.7803 60.4863 21.6924C60.7988 21.6045 61.1276 21.5605 61.4727 21.5605ZM62.5566 24.3633L61.7412 24.3975C61.0739 24.4235 60.6035 24.5326 60.3301 24.7246C60.0566 24.9167 59.9199 25.1885 59.9199 25.54C59.9199 25.846 60.0127 26.0723 60.1982 26.2188C60.3838 26.3652 60.6296 26.4385 60.9355 26.4385C61.4108 26.4385 61.7998 26.3066 62.1025 26.043C62.4053 25.7793 62.5566 25.3838 62.5566 24.8564V24.3633ZM65.8379 21.6484V27H65.0273V21.6484H65.8379ZM65.4424 19.6465C65.5758 19.6465 65.6898 19.6904 65.7842 19.7783C65.8818 19.863 65.9307 19.9964 65.9307 20.1787C65.9307 20.3577 65.8818 20.4912 65.7842 20.5791C65.6898 20.667 65.5758 20.7109 65.4424 20.7109C65.3024 20.7109 65.1852 20.667 65.0908 20.5791C64.9997 20.4912 64.9541 20.3577 64.9541 20.1787C64.9541 19.9964 64.9997 19.863 65.0908 19.7783C65.1852 19.6904 65.3024 19.6465 65.4424 19.6465ZM68.3721 27H67.5566V19.4023H68.3721V27ZM72.0879 21.5605C72.7259 21.5605 73.1995 21.7038 73.5088 21.9902C73.818 22.2767 73.9727 22.734 73.9727 23.3623V27H73.3818L73.2256 26.209H73.1865C73.0368 26.4043 72.8805 26.5687 72.7178 26.7021C72.555 26.8324 72.3662 26.9316 72.1514 27C71.9398 27.0651 71.6794 27.0977 71.3701 27.0977C71.0446 27.0977 70.7549 27.0407 70.501 26.9268C70.2503 26.8128 70.0518 26.6403 69.9053 26.4092C69.762 26.1781 69.6904 25.8851 69.6904 25.5303C69.6904 24.9964 69.902 24.5863 70.3252 24.2998C70.7484 24.0133 71.3929 23.8571 72.2588 23.8311L73.1816 23.792V23.4648C73.1816 23.0026 73.0824 22.6787 72.8838 22.4932C72.6852 22.3076 72.4053 22.2148 72.0439 22.2148C71.764 22.2148 71.4971 22.2555 71.2432 22.3369C70.9893 22.4183 70.7484 22.5143 70.5205 22.625L70.2715 22.0098C70.5124 21.8861 70.7891 21.7803 71.1016 21.6924C71.4141 21.6045 71.7428 21.5605 72.0879 21.5605ZM73.1719 24.3633L72.3564 24.3975C71.6891 24.4235 71.2188 24.5326 70.9453 24.7246C70.6719 24.9167 70.5352 25.1885 70.5352 25.54C70.5352 25.846 70.6279 26.0723 70.8135 26.2188C70.999 26.3652 71.2448 26.4385 71.5508 26.4385C72.026 26.4385 72.415 26.3066 72.7178 26.043C73.0205 25.7793 73.1719 25.3838 73.1719 24.8564V24.3633ZM76.4531 19.4023V21.3018C76.4531 21.5199 76.4466 21.7314 76.4336 21.9365C76.4238 22.1416 76.4157 22.3011 76.4092 22.415H76.4531C76.5996 22.1742 76.8112 21.9707 77.0879 21.8047C77.3646 21.6387 77.7178 21.5557 78.1475 21.5557C78.818 21.5557 79.3519 21.7884 79.749 22.2539C80.1494 22.7161 80.3496 23.4046 80.3496 24.3193C80.3496 24.9215 80.2585 25.4294 80.0762 25.8428C79.8939 26.2562 79.6367 26.5687 79.3047 26.7803C78.9727 26.9919 78.5804 27.0977 78.1279 27.0977C77.7048 27.0977 77.3564 27.0195 77.083 26.8633C76.8128 26.7038 76.6045 26.5101 76.458 26.2822H76.3945L76.2285 27H75.6426V19.4023H76.4531ZM78.0156 22.2344C77.6283 22.2344 77.3206 22.3109 77.0928 22.4639C76.8649 22.6136 76.7005 22.8415 76.5996 23.1475C76.502 23.4502 76.4531 23.8343 76.4531 24.2998V24.3438C76.4531 25.0176 76.5654 25.5335 76.79 25.8916C77.0146 26.2464 77.4232 26.4238 78.0156 26.4238C78.5137 26.4238 78.8864 26.2415 79.1338 25.877C79.3844 25.5124 79.5098 24.9915 79.5098 24.3145C79.5098 23.6243 79.3861 23.1051 79.1387 22.7568C78.8945 22.4085 78.5202 22.2344 78.0156 22.2344ZM82.5811 27H81.7656V19.4023H82.5811V27ZM86.3555 21.5508C86.8112 21.5508 87.2018 21.6517 87.5273 21.8535C87.8529 22.0553 88.1019 22.3385 88.2744 22.7031C88.4469 23.0645 88.5332 23.4876 88.5332 23.9727V24.4756H84.8369C84.8467 25.1038 85.0029 25.5824 85.3057 25.9111C85.6084 26.2399 86.0348 26.4043 86.585 26.4043C86.9235 26.4043 87.223 26.3734 87.4834 26.3115C87.7438 26.2497 88.014 26.1585 88.2939 26.0381V26.751C88.0238 26.8714 87.7552 26.9593 87.4883 27.0146C87.2246 27.07 86.9121 27.0977 86.5508 27.0977C86.0365 27.0977 85.5872 26.9935 85.2031 26.7852C84.8223 26.5736 84.526 26.2643 84.3145 25.8574C84.1029 25.4505 83.9971 24.9525 83.9971 24.3633C83.9971 23.7871 84.0931 23.2891 84.2852 22.8691C84.4805 22.446 84.7539 22.1204 85.1055 21.8926C85.4603 21.6647 85.877 21.5508 86.3555 21.5508ZM86.3457 22.2148C85.9128 22.2148 85.5677 22.3564 85.3105 22.6396C85.0534 22.9229 84.9004 23.3184 84.8516 23.8262H87.6836C87.6803 23.5072 87.6299 23.2272 87.5322 22.9863C87.4378 22.7422 87.293 22.5534 87.0977 22.4199C86.9023 22.2832 86.6517 22.2148 86.3457 22.2148ZM97.1221 24.3145C97.1221 24.7539 97.0651 25.1462 96.9512 25.4912C96.8372 25.8363 96.6729 26.1276 96.458 26.3652C96.2432 26.6029 95.9827 26.7852 95.6768 26.9121C95.374 27.0358 95.0306 27.0977 94.6465 27.0977C94.2884 27.0977 93.9596 27.0358 93.6602 26.9121C93.3639 26.7852 93.1068 26.6029 92.8887 26.3652C92.6738 26.1276 92.5062 25.8363 92.3857 25.4912C92.2686 25.1462 92.21 24.7539 92.21 24.3145C92.21 23.7285 92.3092 23.2305 92.5078 22.8203C92.7064 22.4069 92.9896 22.0928 93.3574 21.8779C93.7285 21.6598 94.1696 21.5508 94.6807 21.5508C95.1689 21.5508 95.5954 21.6598 95.96 21.8779C96.3278 22.096 96.6126 22.4118 96.8145 22.8252C97.0195 23.2354 97.1221 23.7318 97.1221 24.3145ZM93.0498 24.3145C93.0498 24.7441 93.1068 25.1169 93.2207 25.4326C93.3346 25.7484 93.5104 25.9925 93.748 26.165C93.9857 26.3376 94.2917 26.4238 94.666 26.4238C95.0371 26.4238 95.3415 26.3376 95.5791 26.165C95.82 25.9925 95.9974 25.7484 96.1113 25.4326C96.2253 25.1169 96.2822 24.7441 96.2822 24.3145C96.2822 23.888 96.2253 23.5202 96.1113 23.2109C95.9974 22.8984 95.8216 22.6576 95.584 22.4883C95.3464 22.319 95.0387 22.2344 94.6611 22.2344C94.1045 22.2344 93.696 22.4183 93.4355 22.7861C93.1784 23.154 93.0498 23.6634 93.0498 24.3145ZM101.058 21.5508C101.692 21.5508 102.173 21.707 102.498 22.0195C102.824 22.3288 102.986 22.8268 102.986 23.5137V27H102.186V23.5674C102.186 23.1214 102.083 22.7878 101.878 22.5664C101.676 22.3451 101.365 22.2344 100.945 22.2344C100.353 22.2344 99.9362 22.402 99.6953 22.7373C99.4544 23.0726 99.334 23.5592 99.334 24.1973V27H98.5234V21.6484H99.1777L99.2998 22.4199H99.3438C99.4577 22.2311 99.6025 22.0732 99.7783 21.9463C99.9541 21.8161 100.151 21.7184 100.369 21.6533C100.587 21.585 100.817 21.5508 101.058 21.5508ZM108.982 26.4336C109.116 26.4336 109.253 26.4222 109.393 26.3994C109.533 26.3766 109.646 26.349 109.734 26.3164V26.9463C109.64 26.9886 109.508 27.0244 109.339 27.0537C109.173 27.083 109.01 27.0977 108.851 27.0977C108.567 27.0977 108.31 27.0488 108.079 26.9512C107.848 26.8503 107.662 26.681 107.522 26.4434C107.386 26.2057 107.317 25.877 107.317 25.457V22.2832H106.556V21.8877L107.322 21.5703L107.645 20.4082H108.133V21.6484H109.7V22.2832H108.133V25.4326C108.133 25.7679 108.209 26.0186 108.362 26.1846C108.519 26.3506 108.725 26.4336 108.982 26.4336ZM111.629 19.4023V21.6729C111.629 21.8031 111.626 21.9349 111.619 22.0684C111.613 22.1986 111.601 22.319 111.585 22.4297H111.639C111.749 22.2409 111.889 22.083 112.059 21.9561C112.231 21.8258 112.426 21.7282 112.645 21.6631C112.863 21.5947 113.094 21.5605 113.338 21.5605C113.768 21.5605 114.126 21.6289 114.412 21.7656C114.702 21.9023 114.918 22.1139 115.062 22.4004C115.208 22.6868 115.281 23.0579 115.281 23.5137V27H114.48V23.5674C114.48 23.1214 114.378 22.7878 114.173 22.5664C113.971 22.3451 113.66 22.2344 113.24 22.2344C112.843 22.2344 112.526 22.3109 112.288 22.4639C112.054 22.6136 111.884 22.835 111.78 23.1279C111.679 23.4209 111.629 23.779 111.629 24.2021V27H110.818V19.4023H111.629ZM119.012 21.5508C119.467 21.5508 119.858 21.6517 120.184 21.8535C120.509 22.0553 120.758 22.3385 120.931 22.7031C121.103 23.0645 121.189 23.4876 121.189 23.9727V24.4756H117.493C117.503 25.1038 117.659 25.5824 117.962 25.9111C118.265 26.2399 118.691 26.4043 119.241 26.4043C119.58 26.4043 119.879 26.3734 120.14 26.3115C120.4 26.2497 120.67 26.1585 120.95 26.0381V26.751C120.68 26.8714 120.411 26.9593 120.145 27.0146C119.881 27.07 119.568 27.0977 119.207 27.0977C118.693 27.0977 118.243 26.9935 117.859 26.7852C117.479 26.5736 117.182 26.2643 116.971 25.8574C116.759 25.4505 116.653 24.9525 116.653 24.3633C116.653 23.7871 116.749 23.2891 116.941 22.8691C117.137 22.446 117.41 22.1204 117.762 21.8926C118.117 21.6647 118.533 21.5508 119.012 21.5508ZM119.002 22.2148C118.569 22.2148 118.224 22.3564 117.967 22.6396C117.71 22.9229 117.557 23.3184 117.508 23.8262H120.34C120.337 23.5072 120.286 23.2272 120.188 22.9863C120.094 22.7422 119.949 22.5534 119.754 22.4199C119.559 22.2832 119.308 22.2148 119.002 22.2148Z" fill="white"/>
<defs>
<linearGradient id="paint0_linear_322_5714" x1="2" y1="29" x2="129" y2="51" gradientUnits="userSpaceOnUse">
<stop stop-color="#252424"/>
<stop offset="1" stop-color="#424242"/>
</linearGradient>
<clipPath id="clip0_322_5714">
<rect width="24" height="24" fill="white" transform="translate(15 15)"/>
</clipPath>
</defs>
</svg>
