<svg width="146" height="62" viewBox="0 0 146 62" fill="none" xmlns="http://www.w3.org/2000/svg">
<rect width="146" height="62" rx="12" fill="url(#paint0_linear_322_5721)"/>
<g clip-path="url(#clip0_322_5721)">
<path d="M36.7508 25.2891L19.2038 15.259C18.9013 15.0862 18.5645 15 18.2277 15C18.2208 15 18.2141 15.0009 18.2074 15.0009C18.1621 15.0014 18.117 15.0037 18.0719 15.0072C18.0516 15.0088 18.0314 15.011 18.011 15.0133C17.9758 15.0171 17.9407 15.0221 17.9058 15.0279C17.8931 15.0301 17.8803 15.0307 17.8676 15.0331L17.8683 15.0341C17.6496 15.0744 17.4363 15.1514 17.238 15.2665C16.6307 15.6189 16.2568 16.2679 16.2568 16.9699V37.0302C16.2568 37.7322 16.6307 38.3813 17.238 38.7336C17.4362 38.8487 17.6495 38.9258 17.8682 38.9662L17.8676 38.967C17.879 38.9691 17.8906 38.9698 17.9019 38.9717C17.9395 38.9781 17.9772 38.9833 18.015 38.9873C18.034 38.9894 18.0528 38.9914 18.0718 38.9929C18.1163 38.9965 18.1606 38.9985 18.2052 38.9991C18.2127 38.9992 18.2202 39.0001 18.2277 39.0001C18.5645 39.0001 18.9013 38.9139 19.2038 38.7411L36.7508 28.7109C37.3643 28.3601 37.7429 27.7078 37.7429 27.0009C37.7429 27.0009 37.7429 27.0006 37.7429 27.0005C37.7429 27.0005 37.7429 27.0001 37.7429 27C37.7429 27 37.7429 26.9997 37.7429 26.9995C37.7429 26.9995 37.7429 26.9992 37.7429 26.9991C37.7429 26.2923 37.3643 25.64 36.7508 25.2891ZM29.8116 23.2973L28.0669 25.5861L23.628 19.7625L29.8116 23.2973ZM35.9 27.2225L23.628 34.2375L31.3119 24.1568L35.8999 26.7793C35.9794 26.8247 36.0287 26.9097 36.0287 27.0008C36.0286 27.0922 35.9792 27.1773 35.9 27.2225Z" fill="white"/>
</g>
<path d="M52.0518 38.3877H56.0166V43.5693C55.4925 43.7425 54.9479 43.8815 54.3828 43.9863C53.8177 44.0866 53.1774 44.1367 52.4619 44.1367C51.4684 44.1367 50.6253 43.9408 49.9326 43.5488C49.2399 43.1569 48.7135 42.5781 48.3535 41.8125C47.9935 41.0469 47.8135 40.1058 47.8135 38.9893C47.8135 37.9411 48.014 37.0342 48.415 36.2686C48.8206 35.5029 49.4108 34.9105 50.1855 34.4912C50.9648 34.0719 51.915 33.8623 53.0361 33.8623C53.5648 33.8623 54.0866 33.9193 54.6016 34.0332C55.1165 34.1471 55.5837 34.2952 56.0029 34.4775L55.2988 36.1729C54.9935 36.0179 54.6449 35.888 54.2529 35.7832C53.861 35.6784 53.4508 35.626 53.0225 35.626C52.4072 35.626 51.8717 35.7673 51.416 36.0498C50.9648 36.3324 50.6139 36.7288 50.3633 37.2393C50.1172 37.7451 49.9941 38.3421 49.9941 39.0303C49.9941 39.682 50.083 40.2607 50.2607 40.7666C50.4385 41.2679 50.7188 41.6621 51.1016 41.9492C51.4844 42.2318 51.9834 42.373 52.5986 42.373C52.8994 42.373 53.1523 42.3594 53.3574 42.332C53.5671 42.3001 53.763 42.2682 53.9453 42.2363V40.1514H52.0518V38.3877ZM65.1836 40.165C65.1836 40.8031 65.097 41.3682 64.9238 41.8604C64.7552 42.3525 64.5068 42.7695 64.1787 43.1113C63.8551 43.4486 63.4632 43.7038 63.0029 43.877C62.5472 44.0501 62.0322 44.1367 61.458 44.1367C60.9202 44.1367 60.4258 44.0501 59.9746 43.877C59.528 43.7038 59.1383 43.4486 58.8057 43.1113C58.4775 42.7695 58.2223 42.3525 58.04 41.8604C57.8623 41.3682 57.7734 40.8031 57.7734 40.165C57.7734 39.3174 57.9238 38.5996 58.2246 38.0117C58.5254 37.4238 58.9538 36.9772 59.5098 36.6719C60.0658 36.3665 60.7288 36.2139 61.499 36.2139C62.2145 36.2139 62.848 36.3665 63.3994 36.6719C63.9554 36.9772 64.3906 37.4238 64.7051 38.0117C65.0241 38.5996 65.1836 39.3174 65.1836 40.165ZM59.8994 40.165C59.8994 40.6663 59.9541 41.0879 60.0635 41.4297C60.1729 41.7715 60.3438 42.029 60.5762 42.2021C60.8086 42.3753 61.1117 42.4619 61.4854 42.4619C61.8545 42.4619 62.153 42.3753 62.3809 42.2021C62.6133 42.029 62.7819 41.7715 62.8867 41.4297C62.9961 41.0879 63.0508 40.6663 63.0508 40.165C63.0508 39.6592 62.9961 39.2399 62.8867 38.9072C62.7819 38.57 62.6133 38.3171 62.3809 38.1484C62.1484 37.9798 61.8454 37.8955 61.4717 37.8955C60.9202 37.8955 60.5192 38.0846 60.2686 38.4629C60.0225 38.8411 59.8994 39.4085 59.8994 40.165ZM73.8516 40.165C73.8516 40.8031 73.765 41.3682 73.5918 41.8604C73.4232 42.3525 73.1748 42.7695 72.8467 43.1113C72.5231 43.4486 72.1312 43.7038 71.6709 43.877C71.2152 44.0501 70.7002 44.1367 70.126 44.1367C69.5882 44.1367 69.0938 44.0501 68.6426 43.877C68.196 43.7038 67.8063 43.4486 67.4736 43.1113C67.1455 42.7695 66.8903 42.3525 66.708 41.8604C66.5303 41.3682 66.4414 40.8031 66.4414 40.165C66.4414 39.3174 66.5918 38.5996 66.8926 38.0117C67.1934 37.4238 67.6217 36.9772 68.1777 36.6719C68.7337 36.3665 69.3968 36.2139 70.167 36.2139C70.8825 36.2139 71.516 36.3665 72.0674 36.6719C72.6234 36.9772 73.0586 37.4238 73.373 38.0117C73.6921 38.5996 73.8516 39.3174 73.8516 40.165ZM68.5674 40.165C68.5674 40.6663 68.6221 41.0879 68.7314 41.4297C68.8408 41.7715 69.0117 42.029 69.2441 42.2021C69.4766 42.3753 69.7796 42.4619 70.1533 42.4619C70.5225 42.4619 70.821 42.3753 71.0488 42.2021C71.2812 42.029 71.4499 41.7715 71.5547 41.4297C71.6641 41.0879 71.7188 40.6663 71.7188 40.165C71.7188 39.6592 71.6641 39.2399 71.5547 38.9072C71.4499 38.57 71.2812 38.3171 71.0488 38.1484C70.8164 37.9798 70.5133 37.8955 70.1396 37.8955C69.5882 37.8955 69.1872 38.0846 68.9365 38.4629C68.6904 38.8411 68.5674 39.4085 68.5674 40.165ZM77.8096 47.3633C76.7432 47.3633 75.9274 47.1764 75.3623 46.8027C74.8018 46.4336 74.5215 45.9141 74.5215 45.2441C74.5215 44.7839 74.665 44.3988 74.9521 44.0889C75.2393 43.779 75.6608 43.5579 76.2168 43.4258C76.0026 43.3346 75.8158 43.1865 75.6562 42.9814C75.4967 42.7718 75.417 42.5508 75.417 42.3184C75.417 42.0267 75.5013 41.7852 75.6699 41.5938C75.8385 41.3978 76.0824 41.2064 76.4014 41.0195C76.0003 40.8464 75.6813 40.5684 75.4443 40.1855C75.2119 39.8027 75.0957 39.3516 75.0957 38.832C75.0957 38.276 75.2165 37.8044 75.458 37.417C75.7041 37.0251 76.0596 36.7266 76.5244 36.5215C76.9938 36.3164 77.5635 36.2139 78.2334 36.2139C78.3747 36.2139 78.5387 36.223 78.7256 36.2412C78.9124 36.2594 79.0833 36.2799 79.2383 36.3027C79.3978 36.3255 79.5049 36.3438 79.5596 36.3574H82.2256V37.417L81.0293 37.7246C81.1387 37.8932 81.2207 38.0732 81.2754 38.2646C81.3301 38.4561 81.3574 38.6589 81.3574 38.873C81.3574 39.6934 81.0703 40.3337 80.4961 40.7939C79.9264 41.2497 79.1335 41.4775 78.1172 41.4775C77.8757 41.4639 77.6478 41.4456 77.4336 41.4229C77.3288 41.5049 77.249 41.5915 77.1943 41.6826C77.1396 41.7738 77.1123 41.8695 77.1123 41.9697C77.1123 42.07 77.1533 42.1543 77.2354 42.2227C77.3219 42.2865 77.4495 42.3366 77.6182 42.373C77.7913 42.4049 78.0055 42.4209 78.2607 42.4209H79.5596C80.3981 42.4209 81.0361 42.6009 81.4736 42.9609C81.9157 43.321 82.1367 43.8496 82.1367 44.5469C82.1367 45.4401 81.763 46.1328 81.0156 46.625C80.2728 47.1172 79.2041 47.3633 77.8096 47.3633ZM77.8984 46.0029C78.3952 46.0029 78.8213 45.9551 79.1768 45.8594C79.5368 45.7682 79.8125 45.6361 80.0039 45.4629C80.1953 45.2943 80.291 45.0915 80.291 44.8545C80.291 44.6631 80.234 44.5104 80.1201 44.3965C80.0107 44.2871 79.8421 44.2096 79.6143 44.1641C79.391 44.1185 79.1038 44.0957 78.7529 44.0957H77.6729C77.4176 44.0957 77.1875 44.1367 76.9824 44.2188C76.7819 44.3008 76.6224 44.4147 76.5039 44.5605C76.3854 44.7109 76.3262 44.8841 76.3262 45.0801C76.3262 45.3672 76.4629 45.5928 76.7363 45.7568C77.0143 45.9209 77.4017 46.0029 77.8984 46.0029ZM78.2334 40.2061C78.6253 40.2061 78.9124 40.0853 79.0947 39.8438C79.277 39.6022 79.3682 39.2741 79.3682 38.8594C79.3682 38.3991 79.2725 38.055 79.0811 37.8271C78.8942 37.5947 78.6117 37.4785 78.2334 37.4785C77.8506 37.4785 77.5635 37.5947 77.3721 37.8271C77.1807 38.055 77.085 38.3991 77.085 38.8594C77.085 39.2741 77.1784 39.6022 77.3652 39.8438C77.5566 40.0853 77.846 40.2061 78.2334 40.2061ZM85.5752 44H83.4902V33.3633H85.5752V44ZM90.9209 36.2139C91.6273 36.2139 92.2357 36.3506 92.7461 36.624C93.2565 36.8929 93.6507 37.2848 93.9287 37.7998C94.2067 38.3148 94.3457 38.9437 94.3457 39.6865V40.6982H89.417C89.4398 41.2861 89.6152 41.7487 89.9434 42.0859C90.276 42.4186 90.7363 42.585 91.3242 42.585C91.8118 42.585 92.2585 42.5348 92.6641 42.4346C93.0697 42.3343 93.4867 42.1839 93.915 41.9834V43.5967C93.5368 43.7835 93.1403 43.9202 92.7256 44.0068C92.3154 44.0934 91.8164 44.1367 91.2285 44.1367C90.4629 44.1367 89.7839 43.9954 89.1914 43.7129C88.6035 43.4303 88.141 42.9997 87.8037 42.4209C87.471 41.8421 87.3047 41.113 87.3047 40.2334C87.3047 39.3402 87.4551 38.5973 87.7559 38.0049C88.0612 37.4079 88.485 36.9613 89.0273 36.665C89.5697 36.3643 90.2008 36.2139 90.9209 36.2139ZM90.9346 37.6973C90.529 37.6973 90.1917 37.8271 89.9229 38.0869C89.6585 38.3467 89.5059 38.7546 89.4648 39.3105H92.3906C92.3861 39.0007 92.3291 38.7249 92.2197 38.4834C92.1149 38.2419 91.9554 38.0505 91.7412 37.9092C91.5316 37.7679 91.2627 37.6973 90.9346 37.6973ZM103.034 34.0059C104.324 34.0059 105.265 34.2839 105.857 34.8398C106.45 35.3913 106.746 36.1523 106.746 37.123C106.746 37.5605 106.68 37.9798 106.548 38.3809C106.416 38.7773 106.199 39.1305 105.898 39.4404C105.602 39.7503 105.206 39.9964 104.709 40.1787C104.212 40.3564 103.599 40.4453 102.87 40.4453H101.961V44H99.8418V34.0059H103.034ZM102.925 35.7422H101.961V38.709H102.658C103.055 38.709 103.399 38.6566 103.69 38.5518C103.982 38.4469 104.208 38.2829 104.367 38.0596C104.527 37.8363 104.606 37.5492 104.606 37.1982C104.606 36.7061 104.47 36.3415 104.196 36.1045C103.923 35.863 103.499 35.7422 102.925 35.7422ZM110.554 44H108.469V33.3633H110.554V44ZM115.879 36.2002C116.904 36.2002 117.69 36.4235 118.237 36.8701C118.784 37.3167 119.058 37.9958 119.058 38.9072V44H117.602L117.198 42.9609H117.144C116.925 43.2344 116.701 43.4577 116.474 43.6309C116.246 43.804 115.984 43.9316 115.688 44.0137C115.391 44.0957 115.031 44.1367 114.607 44.1367C114.156 44.1367 113.751 44.0501 113.391 43.877C113.035 43.7038 112.755 43.4395 112.55 43.084C112.345 42.724 112.242 42.2682 112.242 41.7168C112.242 40.9056 112.527 40.3086 113.097 39.9258C113.666 39.5384 114.521 39.3242 115.66 39.2832L116.986 39.2422V38.9072C116.986 38.5062 116.882 38.2122 116.672 38.0254C116.462 37.8385 116.171 37.7451 115.797 37.7451C115.428 37.7451 115.065 37.7975 114.71 37.9023C114.354 38.0072 113.999 38.1393 113.644 38.2988L112.953 36.8906C113.359 36.6764 113.812 36.5078 114.313 36.3848C114.819 36.2617 115.341 36.2002 115.879 36.2002ZM116.986 40.459L116.18 40.4863C115.505 40.5046 115.036 40.6253 114.771 40.8486C114.512 41.0719 114.382 41.3659 114.382 41.7305C114.382 42.0495 114.475 42.2773 114.662 42.4141C114.849 42.5462 115.093 42.6123 115.394 42.6123C115.84 42.6123 116.216 42.4801 116.521 42.2158C116.831 41.9515 116.986 41.5755 116.986 41.0879V40.459ZM120.117 36.3574H122.4L123.843 40.6572C123.888 40.7939 123.927 40.9329 123.959 41.0742C123.991 41.2155 124.018 41.3613 124.041 41.5117C124.064 41.6621 124.082 41.8193 124.096 41.9834H124.137C124.164 41.7373 124.201 41.5072 124.246 41.293C124.296 41.0788 124.358 40.8669 124.431 40.6572L125.846 36.3574H128.081L124.848 44.9775C124.652 45.5062 124.396 45.946 124.082 46.2969C123.768 46.6523 123.405 46.9189 122.995 47.0967C122.59 47.2744 122.143 47.3633 121.655 47.3633C121.418 47.3633 121.213 47.3496 121.04 47.3223C120.867 47.2995 120.719 47.2744 120.596 47.2471V45.5928C120.691 45.6156 120.812 45.6361 120.958 45.6543C121.104 45.6725 121.257 45.6816 121.416 45.6816C121.708 45.6816 121.958 45.6201 122.168 45.4971C122.378 45.374 122.553 45.2077 122.694 44.998C122.836 44.793 122.947 44.5674 123.029 44.3213L123.152 43.9453L120.117 36.3574Z" fill="white"/>
<path d="M51.0283 23.2598H53.5234V26.7217C53.1491 26.8486 52.7633 26.943 52.3662 27.0049C51.9723 27.0667 51.5312 27.0977 51.043 27.0977C50.3008 27.0977 49.6742 26.9495 49.1631 26.6533C48.6553 26.3571 48.2695 25.9355 48.0059 25.3887C47.7422 24.8385 47.6104 24.1859 47.6104 23.4307C47.6104 22.6917 47.7552 22.0472 48.0449 21.4971C48.3379 20.9469 48.7594 20.5205 49.3096 20.2178C49.863 19.9118 50.527 19.7588 51.3018 19.7588C51.6989 19.7588 52.0749 19.7962 52.4297 19.8711C52.7878 19.9427 53.1198 20.0452 53.4258 20.1787L53.1084 20.9014C52.8447 20.7874 52.5534 20.6898 52.2344 20.6084C51.9186 20.527 51.5915 20.4863 51.2529 20.4863C50.6702 20.4863 50.1706 20.6068 49.7539 20.8477C49.3405 21.0885 49.0231 21.4287 48.8018 21.8682C48.5837 22.3076 48.4746 22.8285 48.4746 23.4307C48.4746 24.0264 48.5706 24.5456 48.7627 24.9883C48.9548 25.4277 49.2542 25.7695 49.6611 26.0137C50.068 26.2578 50.5921 26.3799 51.2334 26.3799C51.5557 26.3799 51.8324 26.362 52.0635 26.3262C52.2946 26.2871 52.5046 26.2415 52.6934 26.1895V24.002H51.0283V23.2598ZM57.1904 21.5508C57.6462 21.5508 58.0368 21.6517 58.3623 21.8535C58.6878 22.0553 58.9368 22.3385 59.1094 22.7031C59.2819 23.0645 59.3682 23.4876 59.3682 23.9727V24.4756H55.6719C55.6816 25.1038 55.8379 25.5824 56.1406 25.9111C56.4434 26.2399 56.8698 26.4043 57.4199 26.4043C57.7585 26.4043 58.0579 26.3734 58.3184 26.3115C58.5788 26.2497 58.849 26.1585 59.1289 26.0381V26.751C58.8587 26.8714 58.5902 26.9593 58.3232 27.0146C58.0596 27.07 57.7471 27.0977 57.3857 27.0977C56.8714 27.0977 56.4222 26.9935 56.0381 26.7852C55.6572 26.5736 55.361 26.2643 55.1494 25.8574C54.9378 25.4505 54.832 24.9525 54.832 24.3633C54.832 23.7871 54.9281 23.2891 55.1201 22.8691C55.3154 22.446 55.5889 22.1204 55.9404 21.8926C56.2952 21.6647 56.7119 21.5508 57.1904 21.5508ZM57.1807 22.2148C56.7477 22.2148 56.4027 22.3564 56.1455 22.6396C55.8883 22.9229 55.7354 23.3184 55.6865 23.8262H58.5186C58.5153 23.5072 58.4648 23.2272 58.3672 22.9863C58.2728 22.7422 58.1279 22.5534 57.9326 22.4199C57.7373 22.2832 57.4867 22.2148 57.1807 22.2148ZM62.4736 26.4336C62.6071 26.4336 62.7438 26.4222 62.8838 26.3994C63.0238 26.3766 63.1377 26.349 63.2256 26.3164V26.9463C63.1312 26.9886 62.9993 27.0244 62.8301 27.0537C62.6641 27.083 62.5013 27.0977 62.3418 27.0977C62.0586 27.0977 61.8014 27.0488 61.5703 26.9512C61.3392 26.8503 61.1536 26.681 61.0137 26.4434C60.877 26.2057 60.8086 25.877 60.8086 25.457V22.2832H60.0469V21.8877L60.8135 21.5703L61.1357 20.4082H61.624V21.6484H63.1914V22.2832H61.624V25.4326C61.624 25.7679 61.7005 26.0186 61.8535 26.1846C62.0098 26.3506 62.2165 26.4336 62.4736 26.4336ZM67.7178 21.6484V27H66.9072V21.6484H67.7178ZM67.3223 19.6465C67.4557 19.6465 67.5697 19.6904 67.6641 19.7783C67.7617 19.863 67.8105 19.9964 67.8105 20.1787C67.8105 20.3577 67.7617 20.4912 67.6641 20.5791C67.5697 20.667 67.4557 20.7109 67.3223 20.7109C67.1823 20.7109 67.0651 20.667 66.9707 20.5791C66.8796 20.4912 66.834 20.3577 66.834 20.1787C66.834 19.9964 66.8796 19.863 66.9707 19.7783C67.0651 19.6904 67.1823 19.6465 67.3223 19.6465ZM71.165 26.4336C71.2985 26.4336 71.4352 26.4222 71.5752 26.3994C71.7152 26.3766 71.8291 26.349 71.917 26.3164V26.9463C71.8226 26.9886 71.6908 27.0244 71.5215 27.0537C71.3555 27.083 71.1927 27.0977 71.0332 27.0977C70.75 27.0977 70.4928 27.0488 70.2617 26.9512C70.0306 26.8503 69.8451 26.681 69.7051 26.4434C69.5684 26.2057 69.5 25.877 69.5 25.457V22.2832H68.7383V21.8877L69.5049 21.5703L69.8271 20.4082H70.3154V21.6484H71.8828V22.2832H70.3154V25.4326C70.3154 25.7679 70.3919 26.0186 70.5449 26.1846C70.7012 26.3506 70.9079 26.4336 71.165 26.4336ZM80.2129 24.3145C80.2129 24.7539 80.1559 25.1462 80.042 25.4912C79.9281 25.8363 79.7637 26.1276 79.5488 26.3652C79.334 26.6029 79.0736 26.7852 78.7676 26.9121C78.4648 27.0358 78.1214 27.0977 77.7373 27.0977C77.3792 27.0977 77.0505 27.0358 76.751 26.9121C76.4548 26.7852 76.1976 26.6029 75.9795 26.3652C75.7646 26.1276 75.597 25.8363 75.4766 25.4912C75.3594 25.1462 75.3008 24.7539 75.3008 24.3145C75.3008 23.7285 75.4001 23.2305 75.5986 22.8203C75.7972 22.4069 76.0804 22.0928 76.4482 21.8779C76.8193 21.6598 77.2604 21.5508 77.7715 21.5508C78.2598 21.5508 78.6862 21.6598 79.0508 21.8779C79.4186 22.096 79.7035 22.4118 79.9053 22.8252C80.1104 23.2354 80.2129 23.7318 80.2129 24.3145ZM76.1406 24.3145C76.1406 24.7441 76.1976 25.1169 76.3115 25.4326C76.4255 25.7484 76.6012 25.9925 76.8389 26.165C77.0765 26.3376 77.3825 26.4238 77.7568 26.4238C78.1279 26.4238 78.4323 26.3376 78.6699 26.165C78.9108 25.9925 79.0882 25.7484 79.2021 25.4326C79.3161 25.1169 79.373 24.7441 79.373 24.3145C79.373 23.888 79.3161 23.5202 79.2021 23.2109C79.0882 22.8984 78.9124 22.6576 78.6748 22.4883C78.4372 22.319 78.1296 22.2344 77.752 22.2344C77.1953 22.2344 76.7868 22.4183 76.5264 22.7861C76.2692 23.154 76.1406 23.6634 76.1406 24.3145ZM84.1484 21.5508C84.7832 21.5508 85.2633 21.707 85.5889 22.0195C85.9144 22.3288 86.0771 22.8268 86.0771 23.5137V27H85.2764V23.5674C85.2764 23.1214 85.1738 22.7878 84.9688 22.5664C84.7669 22.3451 84.4561 22.2344 84.0361 22.2344C83.4437 22.2344 83.027 22.402 82.7861 22.7373C82.5452 23.0726 82.4248 23.5592 82.4248 24.1973V27H81.6143V21.6484H82.2686L82.3906 22.4199H82.4346C82.5485 22.2311 82.6934 22.0732 82.8691 21.9463C83.0449 21.8161 83.2419 21.7184 83.46 21.6533C83.6781 21.585 83.9076 21.5508 84.1484 21.5508Z" fill="white"/>
<defs>
<linearGradient id="paint0_linear_322_5721" x1="2" y1="29" x2="129" y2="51" gradientUnits="userSpaceOnUse">
<stop stop-color="#252424"/>
<stop offset="1" stop-color="#424242"/>
</linearGradient>
<clipPath id="clip0_322_5721">
<rect width="24" height="24" fill="white" transform="translate(15 15)"/>
</clipPath>
</defs>
</svg>
