<svg width="72" height="72" viewBox="0 0 72 72" fill="none" xmlns="http://www.w3.org/2000/svg">
<g clip-path="url(#clip0_1851_11662)">
<path fill-rule="evenodd" clip-rule="evenodd" d="M26.9997 9.25C20.8656 9.25 15.9297 14.2093 15.9297 20.32C15.9297 26.2691 20.5769 31.096 26.4443 31.3566C26.8002 31.3318 27.1761 31.3306 27.5307 31.3563C33.3923 31.0929 38.0424 26.2692 38.0697 20.3154C38.0672 14.2102 33.1055 9.25 26.9997 9.25ZM11.4297 20.32C11.4297 11.7307 18.3737 4.75 26.9997 4.75C35.5923 4.75 42.5697 11.7274 42.5697 20.32L42.5697 20.3294C42.5347 28.7305 35.9126 35.5778 27.5553 35.8587C27.4553 35.8621 27.3553 35.8588 27.2558 35.8488C27.1111 35.8344 26.895 35.8324 26.6934 35.8508C26.6006 35.8592 26.5073 35.8619 26.4141 35.8587C18.0585 35.5779 11.4297 28.7301 11.4297 20.32Z" fill="url(#paint0_linear_1851_11662)"/>
<path fill-rule="evenodd" clip-rule="evenodd" d="M46.98 13C46.98 11.7574 47.9874 10.75 49.23 10.75C56.2969 10.75 61.98 16.4715 61.98 23.5C61.98 30.3864 56.5168 35.9934 49.7042 36.2484C49.5829 36.253 49.4614 36.2477 49.341 36.2326C49.296 36.227 49.2043 36.2234 49.0885 36.2362C47.8535 36.3735 46.741 35.4835 46.6038 34.2485C46.4666 33.0134 47.3565 31.901 48.5916 31.7638C48.945 31.7245 49.315 31.7154 49.6802 31.7449C54.0203 31.507 57.48 27.9049 57.48 23.5C57.48 18.9485 53.8032 15.25 49.23 15.25C47.9874 15.25 46.98 14.2426 46.98 13Z" fill="url(#paint1_linear_1851_11662)"/>
<path fill-rule="evenodd" clip-rule="evenodd" d="M27.5177 38.3125C33.3023 38.3125 39.2011 39.7643 43.7598 42.8089C47.8575 45.5363 50.2052 49.3595 50.2052 53.4738C50.2052 57.5877 47.8578 61.4178 43.7618 64.1597L43.7614 64.16C39.1887 67.2195 33.2824 68.68 27.4952 68.68C21.709 68.68 15.8039 67.2201 11.2316 64.1618C7.13328 61.4344 4.78516 57.6109 4.78516 53.4962C4.78516 49.3823 7.13248 45.5522 11.2285 42.8103L11.2368 42.8047L11.2368 42.8048C15.8221 39.7645 21.7323 38.3125 27.5177 38.3125ZM13.7277 46.5525C10.5667 48.67 9.28516 51.2287 9.28516 53.4962C9.28516 55.7633 10.5662 58.3142 13.7264 60.4167L13.7314 60.42C17.4087 62.8805 22.3924 64.18 27.4952 64.18C32.5977 64.18 37.5812 62.8806 41.2585 60.4203C44.4225 58.3022 45.7052 55.7423 45.7052 53.4738C45.7052 51.2067 44.4241 48.6558 41.2639 46.5533L41.2605 46.5511C37.5992 44.1057 32.6231 42.8125 27.5177 42.8125C22.4149 42.8125 17.422 44.1045 13.7277 46.5525Z" fill="url(#paint2_linear_1851_11662)"/>
<path fill-rule="evenodd" clip-rule="evenodd" d="M52.915 42.5054C53.1882 41.2931 54.3924 40.5319 55.6046 40.805C57.9729 41.3387 60.2971 42.2908 62.2578 43.7859C65.081 45.9065 66.66 48.862 66.66 51.985C66.66 55.1071 65.0819 58.0618 62.2602 60.1823C60.2759 61.7032 57.9159 62.695 55.4789 63.2027C54.2624 63.4561 53.0707 62.6754 52.8173 61.4589C52.5638 60.2424 53.3446 59.0507 54.5611 58.7973C56.44 58.4059 58.1561 57.6601 59.5297 56.6054L59.5499 56.5899L59.55 56.59C61.4019 55.2011 62.16 53.5091 62.16 51.985C62.16 50.4609 61.4019 48.7689 59.55 47.38L59.5344 47.3683L59.5344 47.3682C58.1967 46.3467 56.504 45.6206 54.6153 45.195C53.4031 44.9218 52.6418 43.7176 52.915 42.5054Z" fill="url(#paint3_linear_1851_11662)"/>
<ellipse opacity="0.2" cx="22" cy="56.5" rx="22" ry="15.5" fill="url(#paint4_linear_1851_11662)"/>
</g>
<defs>
<linearGradient id="paint0_linear_1851_11662" x1="7.12309" y1="1.41679" x2="55.7362" y2="15.3494" gradientUnits="userSpaceOnUse">
<stop stop-color="#0D51A0"/>
<stop offset="1" stop-color="#6EAFFB"/>
</linearGradient>
<linearGradient id="paint1_linear_1851_11662" x1="44.4614" y1="8.01784" x2="69.7069" y2="12.3804" gradientUnits="userSpaceOnUse">
<stop stop-color="#0D51A0"/>
<stop offset="1" stop-color="#6EAFFB"/>
</linearGradient>
<linearGradient id="paint2_linear_1851_11662" x1="-1.49633" y1="35.0588" x2="63.3423" y2="62.8262" gradientUnits="userSpaceOnUse">
<stop stop-color="#0D51A0"/>
<stop offset="1" stop-color="#6EAFFB"/>
</linearGradient>
<linearGradient id="paint3_linear_1851_11662" x1="50.8485" y1="38.3387" x2="73.6033" y2="42.3608" gradientUnits="userSpaceOnUse">
<stop stop-color="#0D51A0"/>
<stop offset="1" stop-color="#6EAFFB"/>
</linearGradient>
<linearGradient id="paint4_linear_1851_11662" x1="-6.08511" y1="37.6786" x2="57.7097" y2="63.6047" gradientUnits="userSpaceOnUse">
<stop stop-color="#0D51A0"/>
<stop offset="1" stop-color="#6EAFFB"/>
</linearGradient>
<clipPath id="clip0_1851_11662">
<rect width="72" height="72" fill="white"/>
</clipPath>
</defs>
</svg>
