<svg width="54" height="46" viewBox="0 0 54 46" fill="none" xmlns="http://www.w3.org/2000/svg">
<path d="M53.9992 27.1051L49.3586 12.6561C49.1702 12.0431 48.7896 11.507 48.273 11.1272C47.7563 10.7473 47.1312 10.5438 46.4899 10.5467H35.437V0.421869C35.437 0.309982 35.3925 0.202678 35.3134 0.123563C35.2343 0.0444468 35.127 0 35.0151 0H0.421869C0.309982 0 0.202678 0.0444468 0.123562 0.123563C0.0444468 0.202678 0 0.309982 0 0.421869L0 40.0775C0 40.1894 0.0444468 40.2967 0.123562 40.3758C0.202678 40.4549 0.309982 40.4994 0.421869 40.4994H5.92726C6.01377 41.8924 6.62812 43.2 7.64514 44.1558C8.66216 45.1116 10.0053 45.6437 11.401 45.6437C12.7967 45.6437 14.1398 45.1116 15.1569 44.1558C16.1739 43.2 16.7882 41.8924 16.8747 40.4994C40.7061 40.4994 37.7699 40.4994 38.0104 40.4994C38.1305 41.8655 38.7581 43.1369 39.7694 44.0632C40.7807 44.9894 42.1022 45.5031 43.4736 45.5031C44.8449 45.5031 46.1665 44.9894 47.1778 44.0632C48.189 43.1369 48.8166 41.8655 48.9368 40.4994H53.5773C53.6892 40.4994 53.7965 40.4549 53.8756 40.3758C53.9547 40.2967 53.9992 40.1894 53.9992 40.0775C53.9992 26.4385 53.9992 27.2063 53.9992 27.1051ZM22.359 0.843737V5.63195L21.2959 5.10039C21.0217 4.96539 20.9416 5.10039 19.4144 5.8471C17.8197 5.04977 17.7944 4.96961 17.5371 5.10039L16.031 5.8471L14.5376 5.10039C14.2887 4.97383 14.2001 5.07508 13.0864 5.63195V0.843737H22.359ZM0.843737 0.843737H12.2342V6.32803C12.2342 6.43992 12.2786 6.54722 12.3578 6.62634C12.4369 6.70545 12.5442 6.7499 12.6561 6.7499C12.7953 6.7499 12.7362 6.7499 14.3435 5.95679C15.9424 6.75412 15.9677 6.83427 16.2251 6.70349L17.7185 5.96522L19.2119 6.71193C19.4861 6.84693 19.5663 6.71193 21.0892 5.96522C22.7218 6.77943 22.7387 6.85959 23.0045 6.69506C23.2703 6.53053 23.2028 6.72037 23.2028 0.843737H34.5932V31.2183H0.843737V0.843737ZM0.843737 32.062H34.5932V39.6557H16.8747C16.7546 38.2896 16.127 37.0181 15.1157 36.0919C14.1045 35.1657 12.7829 34.6519 11.4115 34.6519C10.0402 34.6519 8.71863 35.1657 7.70736 36.0919C6.69609 37.0181 6.06851 38.2896 5.94835 39.6557H0.843737V32.062ZM11.3905 44.7181C10.4726 44.7181 9.57544 44.4459 8.8123 43.936C8.04916 43.4261 7.45437 42.7013 7.10314 41.8534C6.75191 41.0054 6.66001 40.0724 6.83907 39.1722C7.01812 38.272 7.46009 37.4452 8.10909 36.7962C8.75808 36.1472 9.58495 35.7052 10.4851 35.5261C11.3853 35.3471 12.3184 35.439 13.1663 35.7902C14.0143 36.1414 14.739 36.7362 15.2489 37.4994C15.7588 38.2625 16.031 39.1597 16.031 40.0775C16.031 41.3083 15.5421 42.4886 14.6718 43.3589C13.8015 44.2292 12.6212 44.7181 11.3905 44.7181ZM43.4525 44.7181C42.5347 44.7181 41.6375 44.4459 40.8743 43.936C40.1112 43.4261 39.5164 42.7013 39.1652 41.8534C38.8139 41.0054 38.722 40.0724 38.9011 39.1722C39.0801 38.272 39.5221 37.4452 40.1711 36.7962C40.8201 36.1472 41.647 35.7052 42.5471 35.5261C43.4473 35.3471 44.3804 35.439 45.2283 35.7902C46.0763 36.1414 46.801 36.7362 47.311 37.4994C47.8209 38.2625 48.093 39.1597 48.093 40.0775C48.093 41.3083 47.6041 42.4886 46.7338 43.3589C45.8636 44.2292 44.6832 44.7181 43.4525 44.7181ZM48.9368 39.6557C48.8166 38.2896 48.189 37.0181 47.1778 36.0919C46.1665 35.1657 44.8449 34.6519 43.4736 34.6519C42.1022 34.6519 40.7807 35.1657 39.7694 36.0919C38.7581 37.0181 38.1305 38.2896 38.0104 39.6557C37.8838 39.6557 38.4955 39.6557 35.4792 39.6557V11.3905H46.5448C47.004 11.3873 47.4522 11.5314 47.8235 11.8017C48.1948 12.072 48.4697 12.4543 48.6077 12.8923L48.8946 13.9217H39.6557C39.5438 13.9217 39.4365 13.9661 39.3573 14.0452C39.2782 14.1243 39.2338 14.2316 39.2338 14.3435V26.9996C39.2338 27.1115 39.2782 27.2188 39.3573 27.2979C39.4365 27.377 39.5438 27.4215 39.6557 27.4215H53.1555V30.7964H51.8898C51.5542 30.7964 51.2323 30.9298 50.9949 31.1671C50.7576 31.4044 50.6242 31.7264 50.6242 32.062V35.437C50.6242 35.7726 50.7576 36.0945 50.9949 36.3319C51.2323 36.5692 51.5542 36.7026 51.8898 36.7026H53.1555V39.6557H48.9368ZM52.6028 26.5777H40.0775V14.7654H48.8482L52.6028 26.5777ZM53.1555 35.8588H51.8898C51.778 35.8588 51.6707 35.8144 51.5915 35.7353C51.5124 35.6562 51.468 35.5489 51.468 35.437V32.062C51.468 31.9501 51.5124 31.8428 51.5915 31.7637C51.6707 31.6846 51.778 31.6402 51.8898 31.6402H53.1555V35.8588Z" fill="#252424"/>
<path d="M41.7651 29.9531H39.6558C39.5439 29.9531 39.4366 29.9976 39.3574 30.0767C39.2783 30.1558 39.2339 30.2631 39.2339 30.375C39.2339 30.4869 39.2783 30.5942 39.3574 30.6733C39.4366 30.7524 39.5439 30.7969 39.6558 30.7969H41.7651C41.877 30.7969 41.9843 30.7524 42.0634 30.6733C42.1425 30.5942 42.187 30.4869 42.187 30.375C42.187 30.2631 42.1425 30.1558 42.0634 30.0767C41.9843 29.9976 41.877 29.9531 41.7651 29.9531Z" fill="#252424"/>
<path d="M43.4526 37.125C42.8685 37.125 42.2976 37.2982 41.8119 37.6227C41.3263 37.9472 40.9478 38.4084 40.7243 38.948C40.5008 39.4876 40.4423 40.0814 40.5563 40.6542C40.6702 41.227 40.9515 41.7532 41.3645 42.1662C41.7774 42.5792 42.3036 42.8605 42.8765 42.9744C43.4493 43.0884 44.0431 43.0299 44.5827 42.8064C45.1223 42.5829 45.5835 42.2044 45.908 41.7187C46.2325 41.2331 46.4057 40.6621 46.4057 40.0781C46.4057 39.2949 46.0945 38.5437 45.5407 37.9899C44.9869 37.4361 44.2358 37.125 43.4526 37.125ZM43.4526 42.1874C43.0354 42.1874 42.6276 42.0637 42.2807 41.8319C41.9338 41.6002 41.6635 41.2707 41.5038 40.8853C41.3442 40.4999 41.3024 40.0757 41.3838 39.6666C41.4652 39.2574 41.6661 38.8815 41.9611 38.5865C42.2561 38.2916 42.6319 38.0907 43.0411 38.0093C43.4503 37.9279 43.8744 37.9696 44.2598 38.1293C44.6452 38.289 44.9747 38.5593 45.2064 38.9062C45.4382 39.2531 45.5619 39.6609 45.5619 40.0781C45.5619 40.6375 45.3397 41.174 44.9441 41.5696C44.5485 41.9652 44.012 42.1874 43.4526 42.1874Z" fill="#252424"/>
<path d="M11.3906 37.125C10.8065 37.125 10.2356 37.2982 9.74994 37.6227C9.26431 37.9472 8.8858 38.4084 8.66229 38.948C8.43878 39.4876 8.3803 40.0814 8.49424 40.6542C8.60819 41.227 8.88944 41.7532 9.30244 42.1662C9.71543 42.5792 10.2416 42.8605 10.8145 42.9744C11.3873 43.0884 11.9811 43.0299 12.5207 42.8064C13.0603 42.5829 13.5215 42.2044 13.846 41.7187C14.1705 41.2331 14.3437 40.6621 14.3437 40.0781C14.3437 39.2949 14.0325 38.5437 13.4787 37.9899C12.9249 37.4361 12.1738 37.125 11.3906 37.125ZM11.3906 42.1874C10.9734 42.1874 10.5656 42.0637 10.2187 41.8319C9.87181 41.6002 9.60145 41.2707 9.4418 40.8853C9.28215 40.4999 9.24038 40.0757 9.32177 39.6666C9.40316 39.2574 9.60405 38.8815 9.89905 38.5865C10.194 38.2916 10.5699 38.0907 10.9791 38.0093C11.3882 37.9279 11.8124 37.9696 12.1978 38.1293C12.5832 38.289 12.9127 38.5593 13.1444 38.9062C13.3762 39.2531 13.4999 39.6609 13.4999 40.0781C13.4999 40.6375 13.2777 41.174 12.8821 41.5696C12.4865 41.9652 11.95 42.1874 11.3906 42.1874Z" fill="#252424"/>
<path d="M17.1983 8.50781C12.2677 8.50781 7.28385 13.2842 17.1983 26.0696C27.1117 13.2842 22.1257 8.50781 17.1983 8.50781ZM17.1983 17.5001C16.5331 17.5003 15.8828 17.304 15.3297 16.9361C14.7765 16.5683 14.3453 16.0453 14.0906 15.4334C13.8359 14.8214 13.7692 14.148 13.8988 13.4983C14.0285 12.8486 14.3487 12.2518 14.819 11.7833C15.2892 11.3149 15.8884 10.9958 16.5408 10.8665C17.1932 10.7372 17.8694 10.8035 18.4839 11.0569C19.0985 11.3104 19.6238 11.7396 19.9933 12.2904C20.3629 12.8411 20.5602 13.4887 20.5602 14.1511C20.5603 14.5908 20.4734 15.0263 20.3045 15.4326C20.1356 15.8389 19.888 16.2081 19.5758 16.5191C19.2637 16.8301 18.893 17.0768 18.485 17.2451C18.0771 17.4134 17.6398 17.5001 17.1983 17.5001Z" fill="#0D51A0"/>
</svg>
