<svg width="48" height="48" viewBox="0 0 48 48" fill="none" xmlns="http://www.w3.org/2000/svg">
<g clip-path="url(#clip0_368_3729)">
<circle cx="24.8889" cy="15.8889" r="8.88889" fill="#0D51A0"/>
<path d="M40.875 0H8.625C7.72989 0 6.87145 0.355579 6.23851 0.988515C5.60558 1.62145 5.25 2.47989 5.25 3.375C5.25 47.625 5.25 44.625 5.25 44.865C5.33103 45.7309 5.73537 46.5344 6.38242 47.1154C7.02946 47.6964 7.8717 48.0123 8.74125 48H40.875C41.3723 48 41.8492 47.8025 42.2008 47.4508C42.5525 47.0992 42.75 46.6223 42.75 46.125V1.875C42.75 1.37772 42.5525 0.900805 42.2008 0.549175C41.8492 0.197544 41.3723 0 40.875 0V0ZM42 1.875V40.125C42 40.4234 41.8815 40.7095 41.6705 40.9205C41.4595 41.1315 41.1734 41.25 40.875 41.25H9.75V0.75H40.875C41.1734 0.75 41.4595 0.868526 41.6705 1.0795C41.8815 1.29048 42 1.57663 42 1.875ZM6 3.375C6 2.67881 6.27656 2.01113 6.76884 1.51884C7.26113 1.02656 7.92881 0.75 8.625 0.75H9V41.25H8.625C8.12795 41.2496 7.63694 41.3589 7.18705 41.5702C6.73716 41.7816 6.33951 42.0897 6.0225 42.4725C6 42.5025 6 44.355 6 3.375ZM42 46.125C42 46.4234 41.8815 46.7095 41.6705 46.9205C41.4595 47.1315 41.1734 47.25 40.875 47.25H8.74125C6.4425 47.25 5.15625 44.6475 6.61125 42.9637C6.85386 42.6632 7.16059 42.4206 7.50901 42.2539C7.85744 42.0871 8.23873 42.0004 8.625 42C42.7163 42 41.2725 42.165 42 41.625V46.125Z" fill="#252424"/>
<path d="M21.0886 24.3664C22.981 25.0945 25.0567 25.198 27.0122 24.6618C28.9676 24.1256 30.7002 22.9778 31.9566 21.3863C33.213 19.7948 33.9271 17.8431 33.9947 15.8166C34.0623 13.7901 33.4797 11.7951 32.3322 10.1235C31.1846 8.45182 29.5324 7.19117 27.617 6.5259C25.7016 5.86063 23.6236 5.82564 21.6869 6.42606C19.7502 7.02648 18.0564 8.2308 16.8532 9.86288C15.6501 11.495 15.0007 13.4692 15 15.4968C15.0014 17.417 15.5836 19.2918 16.6703 20.8748C17.757 22.4578 19.2973 23.675 21.0886 24.3664ZM18.9209 22.4433C20.6165 15.8739 28.3806 15.8711 30.0791 22.4433C28.4987 23.7173 26.5299 24.412 24.5 24.412C22.4701 24.412 20.5013 23.7173 18.9209 22.4433ZM24.5 6.57259C32.5808 6.57259 36.4786 16.5073 30.5714 22.0173C29.843 19.5271 28.1906 17.7509 26.1035 17.1521C26.8713 16.788 27.4923 16.1735 27.8645 15.4096C28.2366 14.6457 28.3377 13.7778 28.1511 12.9488C27.9645 12.1198 27.5013 11.379 26.8378 10.8482C26.1742 10.3174 25.3497 10.0282 24.5 10.0282C23.6503 10.0282 22.8258 10.3174 22.1622 10.8482C21.4987 11.379 21.0355 12.1198 20.8489 12.9488C20.6623 13.7778 20.7634 14.6457 21.1355 15.4096C21.5077 16.1735 22.1287 16.788 22.8965 17.1521C20.8094 17.7509 19.1541 19.5243 18.4286 22.023C12.5386 16.5591 16.3818 6.57259 24.5 6.57259ZM24.5 16.9362C23.8737 16.9362 23.2614 16.7505 22.7407 16.4025C22.2199 16.0546 21.8141 15.56 21.5744 14.9814C21.3347 14.4028 21.272 13.766 21.3942 13.1518C21.5164 12.5375 21.818 11.9733 22.2608 11.5304C22.7037 11.0875 23.2679 10.7859 23.8822 10.6637C24.4965 10.5416 25.1332 10.6043 25.7118 10.8439C26.2905 11.0836 26.785 11.4895 27.133 12.0103C27.4809 12.531 27.6667 13.1432 27.6667 13.7696C27.6667 14.1854 27.5848 14.5972 27.4256 14.9814C27.2665 15.3656 27.0332 15.7147 26.7392 16.0087C26.4451 16.3028 26.096 16.536 25.7118 16.6952C25.3276 16.8543 24.9159 16.9362 24.5 16.9362Z" fill="white"/>
<path d="M36.1875 32.625H15.1875C15.088 32.625 14.9927 32.6645 14.9223 32.7348C14.852 32.8052 14.8125 32.9005 14.8125 33C14.8125 33.0995 14.852 33.1948 14.9223 33.2652C14.9927 33.3355 15.088 33.375 15.1875 33.375H36.1875C36.287 33.375 36.3823 33.3355 36.4527 33.2652C36.523 33.1948 36.5625 33.0995 36.5625 33C36.5625 32.9005 36.523 32.8052 36.4527 32.7348C36.3823 32.6645 36.287 32.625 36.1875 32.625Z" fill="#252424"/>
<path d="M36.1875 37.125H15.1875C15.088 37.125 14.9927 37.1645 14.9223 37.2348C14.852 37.3052 14.8125 37.4005 14.8125 37.5C14.8125 37.5995 14.852 37.6948 14.9223 37.7652C14.9927 37.8355 15.088 37.875 15.1875 37.875H36.1875C36.287 37.875 36.3823 37.8355 36.4527 37.7652C36.523 37.6948 36.5625 37.5995 36.5625 37.5C36.5625 37.4005 36.523 37.3052 36.4527 37.2348C36.3823 37.1645 36.287 37.125 36.1875 37.125Z" fill="#252424"/>
</g>
<defs>
<clipPath id="clip0_368_3729">
<rect width="48" height="48" fill="white"/>
</clipPath>
</defs>
</svg>
