<svg width="438" height="226" viewBox="0 0 438 226" fill="none" xmlns="http://www.w3.org/2000/svg">
<path d="M438 226H236.473H0C0 105.05 98.0496 7 219 7C339.95 7 438 105.05 438 226Z" fill="#FDE7D5"/>
<path d="M352.264 0H234.405C228.093 0 222.957 5.10867 222.957 11.448V87.1398C222.957 93.4548 228.069 98.5909 234.405 98.5909H352.288C358.603 98.5909 363.739 93.4792 363.739 87.1398V11.448C363.715 5.10867 358.579 0 352.264 0Z" fill="#5B422C"/>
<path d="M236.812 17.9884C239.093 17.9884 240.945 16.1362 240.945 13.8545C240.945 11.5729 239.093 9.7207 236.812 9.7207C234.527 9.7207 232.678 11.5729 232.678 13.8545C232.678 16.1362 234.527 17.9884 236.812 17.9884Z" fill="white"/>
<path d="M249.164 17.9884C251.446 17.9884 253.298 16.1362 253.298 13.8545C253.298 11.5729 251.446 9.7207 249.164 9.7207C246.879 9.7207 245.03 11.5729 245.03 13.8545C245.03 16.1362 246.879 17.9884 249.164 17.9884Z" fill="white"/>
<path d="M261.515 17.9884C263.799 17.9884 265.652 16.1362 265.652 13.8545C265.652 11.5729 263.799 9.7207 261.515 9.7207C259.233 9.7207 257.381 11.5729 257.381 13.8545C257.381 16.1362 259.233 17.9884 261.515 17.9884Z" fill="white"/>
<path d="M271.93 27.5371H313.921C316.074 27.5371 317.835 29.2979 317.835 31.4516V79.5864C317.835 81.7402 316.074 83.501 313.921 83.501H271.93C269.776 83.501 268.016 81.7402 268.016 79.5864V31.4516C268.016 29.2796 269.776 27.5371 271.93 27.5371Z" fill="#61AAFF"/>
<path d="M276.953 39.9025L278.677 41.6267L281.468 38.8516" stroke="#FF8F30" stroke-width="1.35392" stroke-linecap="round" stroke-linejoin="round"/>
<path d="M280.31 56.7111C281.178 56.111 281.391 54.9199 280.794 54.0517C280.191 53.1835 279.003 52.9672 278.135 53.5704C277.264 54.1674 277.05 55.3616 277.648 56.2267C278.251 57.0949 279.442 57.3112 280.31 56.7111Z" stroke="#FF8F30" stroke-width="1.35392" stroke-linecap="round" stroke-linejoin="round"/>
<path d="M280.308 71.5888C281.176 70.9856 281.392 69.7975 280.792 68.9293C280.192 68.0611 279.001 67.8449 278.132 68.445C277.264 69.0451 277.048 70.2362 277.648 71.1044C278.251 71.9726 279.439 72.1889 280.308 71.5888Z" stroke="#FF8F30" stroke-width="1.35392" stroke-linecap="round" stroke-linejoin="round"/>
<path d="M286.882 40.5938H304.307" stroke="#CECECE" stroke-width="1.35392" stroke-linecap="round" stroke-linejoin="round"/>
<path d="M286.882 55.1504H304.307" stroke="#CECECE" stroke-width="1.35392" stroke-linecap="round" stroke-linejoin="round"/>
<path d="M286.882 69.8984H304.307" stroke="#CECECE" stroke-width="1.35392" stroke-linecap="round" stroke-linejoin="round"/>
<path d="M93.5983 97.8496H74.8848V144.842H93.5983V97.8496Z" fill="white"/>
<path opacity="0.3" d="M74.8848 97.8496H78.586L85.4067 144.842H74.8848V97.8496Z" fill="#222222"/>
<path d="M175.108 106.998H161.802V144.842H175.108V106.998Z" fill="#CECECE"/>
<path opacity="0.3" d="M161.802 106.998H163.297L168.455 144.842H161.802V106.998Z" fill="#222222"/>
<path d="M151.405 97.8496H138.931V144.842H151.405V97.8496Z" fill="#CECECE"/>
<path d="M195.071 97.8496H175.108V144.842H195.071V97.8496Z" fill="white"/>
<path d="M205.676 97.8496H195.071V144.842H205.676V97.8496Z" fill="#CECECE"/>
<path opacity="0.3" d="M195.071 97.8496H196.777L201.228 144.842H195.071V97.8496Z" fill="#020202"/>
<path d="M216.283 97.8496H205.676V144.842H216.283V97.8496Z" fill="white"/>
<path d="M127.452 97.7402L103.953 138.439L115.477 145.092L138.977 104.393L127.452 97.7402Z" fill="#CECECE"/>
<path opacity="0.3" d="M136.85 103.09L138.971 104.336L115.474 145.01L103.953 138.354L106.451 134.071L136.85 103.09Z" fill="#222222"/>
<path d="M103.996 90.7793H93.5986V144.842H103.996V90.7793Z" fill="#CECECE"/>
<path d="M161.802 90.7793H151.405V144.842H161.802V90.7793Z" fill="white"/>
<path d="M88.1911 173.871H74.8848V220.864H88.1911V173.871Z" fill="white"/>
<path opacity="0.3" d="M74.8848 173.871H79.375L86.738 220.864H74.8848V173.871Z" fill="#222222"/>
<path d="M101.5 173.871H88.1904V220.864H101.5V173.871Z" fill="#CECECE"/>
<path d="M111.897 165.137H101.5V220.863H111.897V165.137Z" fill="white"/>
<path d="M136.85 165.137H111.897V220.863H136.85V165.137Z" fill="#CECECE"/>
<path opacity="0.3" d="M111.897 165.137H114.185L120.299 220.863H111.897V165.137Z" fill="#020202"/>
<path d="M149.324 181.773H136.85V220.864H149.324V181.773Z" fill="white"/>
<path opacity="0.3" d="M136.85 181.773H139.926L145.583 220.864H136.85V181.773Z" fill="#1A1A1A"/>
<path d="M183.01 173.871H170.535V220.864H183.01V173.871Z" fill="white"/>
<path d="M195.488 173.871H183.011V220.864H195.488V173.871Z" fill="#CECECE"/>
<path d="M170.536 173.871H149.324V220.864H170.536V173.871Z" fill="white"/>
<path d="M216.282 173.871H195.488V220.864H216.282V173.871Z" fill="#CECECE"/>
<path d="M74.8848 144.844H216.282" stroke="#222222" stroke-width="1.35392" stroke-linecap="round" stroke-linejoin="round"/>
<path d="M74.8848 82.4629V220.242H216.282V82.4629" stroke="#222222" stroke-width="1.35392" stroke-linecap="round" stroke-linejoin="round"/>
<path opacity="0.3" d="M195.488 173.871H197.276L204.679 220.864H195.488V173.871Z" fill="#020202"/>
<path d="M233.315 146.942L233.074 143.606C243.608 132.734 250.758 126.163 254.334 124.036C264.82 117.804 278.882 113.164 284.487 113.164C286.129 113.164 287.049 113.551 287.143 114.373C287.579 117.804 276.32 123.071 274.678 123.796C277.965 125.535 277.191 129.593 277.045 130.175C280.67 133.41 278.641 136.648 278.303 137.132C278.735 137.614 281.492 141.047 277.721 144.815C275.403 147.133 273.179 147.618 271.778 147.618C270.909 147.618 270.328 147.423 270.136 147.377C266.462 153.561 259.602 155.493 258.974 155.639C258.828 155.977 257.813 158.295 256.171 161.631L252.836 162.405L233.315 146.942Z" fill="#E59763"/>
<path d="M138.942 127.035V126.938C137.492 120.607 135.317 110.701 133.191 99.5879C131.406 90.0681 132.612 82.2391 136.767 76.9233C140.49 72.1406 146.384 69.4842 154.259 68.9511C155.033 68.9024 155.758 68.9023 156.483 68.9023C171.8 68.9023 177.31 79.2933 180.451 88.3774C180.933 89.8275 181.466 91.2775 181.901 92.7245C182.48 92.7733 186.248 93.1601 186.733 95.0458C187.214 96.8827 184.704 99.5391 184.317 99.926C186.105 105.869 186.635 109.348 186.781 111.28C186.876 112.73 186.827 116.355 184.171 119.255C181.804 121.814 178.035 123.072 172.96 123.072C171.559 123.072 170.06 122.974 168.516 122.783L169.286 127.276L138.942 127.035Z" fill="#E59763"/>
<path opacity="0.2" d="M161.848 120.994C161.848 120.994 165.616 122.298 167.742 122.636L168.516 122.782L169.241 127.081L166.871 129.981L161.848 120.994Z" fill="#030202"/>
<path d="M99.7542 204.347C98.1092 194.635 103.958 167.38 115.12 151C125.797 135.345 138.893 132.396 140.197 132.155C140.103 131.72 139.618 129.837 138.942 126.937L138.893 126.84L169.192 126.742L169.917 130.754C176.537 131.092 182.961 132.494 189.148 134.909C198.668 138.678 215.337 159.554 216.596 161.099C217.415 160.182 224.857 152.014 233.073 143.558L233.119 143.512L256.219 161.534L256.17 161.632C250.419 173.278 235.44 200.335 220.894 200.868C220.556 200.868 220.169 200.868 219.831 200.868C210.36 200.868 201.76 196.131 196.204 192.171C190.79 188.305 187.165 184.391 186.443 183.617L179.193 213.431L130.68 213.721C130.68 213.721 126.717 221.163 118.453 221.163C107.486 221.163 101.542 215.027 99.7542 204.347Z" fill="#F58220"/>
<path opacity="0.2" d="M110.191 219.663C112.558 220.632 115.267 221.162 118.453 221.162C126.718 221.162 130.681 213.72 130.681 213.72L125.414 189.029L125.316 189.124C122.465 190.961 121.74 194.875 120.872 199.466C119.614 205.942 118.069 213.915 110.191 219.663Z" fill="#434343"/>
<path opacity="0.2" d="M180.839 177.482L186.444 183.618L179.194 213.432L166.293 213.529L180.839 177.482Z" fill="#434343"/>
<path d="M95.7426 146.362V146.268C94.39 128.1 104.053 121.526 113.381 115.101C120.579 110.172 127.394 105.532 129.084 95.9639C132.563 76.5406 138.458 70.1129 154.308 68.3247C155.371 68.2272 156.434 68.1328 157.497 68.1328C169.674 68.1328 175.279 76.2482 177.503 81.1771C177.503 81.1771 176.634 86.9773 168.032 86.9773C167.404 86.9773 166.728 86.9286 166.051 86.8798C167.404 91.1325 166.679 95.772 164.068 99.3941L164.02 99.4428L163.974 99.3941C163.925 99.3941 158.801 97.5115 154.21 97.5115C150.393 97.5115 148.026 98.7666 147.158 101.28C144.645 108.771 156.194 116.548 156.291 116.645H156.337V116.694C156.386 116.84 160.157 132.834 154.405 146.219L154.357 146.268H95.7426V146.362Z" fill="#231F20"/>
<path d="M124.106 80.6454C135.235 80.6454 144.258 71.6222 144.258 60.494C144.258 49.3658 135.235 40.3457 124.106 40.3457C112.978 40.3457 103.958 49.3658 103.958 60.494C103.958 71.6222 112.978 80.6454 124.106 80.6454Z" fill="#231F20"/>
<path d="M155.274 121.72C158.265 121.72 160.687 119.298 160.687 116.307C160.687 113.315 158.265 110.896 155.274 110.896C152.288 110.896 149.863 113.315 149.863 116.307C149.863 119.298 152.288 121.72 155.274 121.72Z" fill="white"/>
<path d="M181.466 105.243C180.692 105.773 178.276 105.87 176.777 104.18" stroke="#030202" stroke-width="1.35392" stroke-linecap="round" stroke-linejoin="round"/>
<path d="M176.777 97.4138C175.955 97.4138 175.327 96.7375 175.327 95.9637C175.327 95.19 176.003 94.5137 176.777 94.5137C177.6 94.5137 178.227 95.19 178.227 95.9637C178.227 96.7375 177.551 97.4138 176.777 97.4138Z" fill="#231F20"/>
<path d="M168.756 122.876C165.518 122.444 162.959 121.719 162.959 121.719" stroke="#030202" stroke-width="1.35392" stroke-linecap="round" stroke-linejoin="round"/>
<path d="M161.074 108.574L156.724 106.643" stroke="#030202" stroke-width="1.35392" stroke-linecap="round" stroke-linejoin="round"/>
<path d="M120.001 201.352L127.346 198.934" stroke="#434343" stroke-width="1.35392" stroke-linecap="round" stroke-linejoin="round"/>
<path d="M186.395 183.519C182.819 180.088 179.438 176.223 179.438 176.223" stroke="#434343" stroke-width="1.35392" stroke-linecap="round" stroke-linejoin="round"/>
<path d="M216.596 161.293V169.701" stroke="#434343" stroke-width="1.35392" stroke-linecap="round" stroke-linejoin="round"/>
<path d="M233.119 143.654L256.024 161.582" stroke="#434343" stroke-width="1.35392" stroke-linecap="round" stroke-linejoin="round"/>
<path d="M274.387 123.798C271.341 123.651 268.346 124.038 265.446 125.004" stroke="#030202" stroke-width="1.35392" stroke-linecap="round" stroke-linejoin="round"/>
<path d="M276.901 130.175C273.178 129.352 267.862 131.283 267.862 131.283" stroke="#030202" stroke-width="1.35392" stroke-linecap="round" stroke-linejoin="round"/>
<path d="M278.156 137.133C274.144 136.6 269.797 138.05 269.797 138.05" stroke="#030202" stroke-width="1.35392" stroke-linecap="round" stroke-linejoin="round"/>
<path d="M124.106 184.439L130.632 213.431" stroke="#434343" stroke-width="1.35392" stroke-linecap="round" stroke-linejoin="round"/>
<path d="M287.347 201.622L301.768 157.271C303.912 150.694 310.983 145.348 317.56 145.348H383.857C390.434 145.348 394.056 150.694 391.911 157.271L374.958 209.43H284.815H238.88C235.011 209.43 231.846 206.265 231.846 202.396V201.622H287.347Z" fill="#0D51A0" stroke="#0D52A2" stroke-width="1.35392"/>
<path d="M338.199 184.096C335.311 182.092 335.433 176.919 338.47 172.548C341.507 168.179 346.308 166.263 349.196 168.268C352.084 170.272 351.965 175.442 348.925 179.816C345.891 184.188 341.087 186.104 338.199 184.096Z" fill="#C9E2FF" stroke="#C9E2FF" stroke-width="1.35392"/>
<path d="M392.426 174.065C390.291 174.065 388.962 173.596 388.682 172.743C388.365 171.774 389.395 170.431 391.579 168.963C393.806 167.473 396.874 166.047 400.219 164.941C403.987 163.692 407.685 162.977 410.366 162.977C412.504 162.977 413.833 163.446 414.113 164.296C414.762 166.264 409.592 169.764 402.592 172.097C398.808 173.346 395.104 174.065 392.426 174.065Z" fill="#5B422C"/>
<path opacity="0.2" d="M392.408 174.066C390.242 174.066 388.944 173.609 388.664 172.744L388.646 172.71L414.07 164.26L414.091 164.296C414.198 164.634 414.146 165.018 413.933 165.442C412.916 167.48 408.236 170.215 402.555 172.098C398.79 173.347 395.092 174.066 392.408 174.066Z" fill="#0B0806"/>
<path d="M414 164.279L388.898 172.355" stroke="black" stroke-width="1.35392" stroke-linecap="round" stroke-linejoin="round"/>
<path d="M378.611 179.805C376.537 179.805 372.884 175.571 370.109 169.953C368.619 166.919 367.565 163.882 367.142 161.402C366.722 158.913 367.005 157.29 367.937 156.833C368.102 156.751 368.293 156.711 368.516 156.711C370.59 156.711 374.246 160.945 377.018 166.563C378.508 169.597 379.562 172.634 379.985 175.111C380.406 177.603 380.125 179.223 379.193 179.68C379.01 179.784 378.776 179.805 378.611 179.805Z" fill="#5B422C"/>
<path opacity="0.2" d="M378.611 179.786C376.497 179.786 372.921 175.643 370.109 169.935C368.592 166.864 367.538 163.827 367.142 161.384C366.722 158.895 367.005 157.274 367.937 156.814L367.971 156.799L379.23 179.64L379.193 179.661C379.044 179.747 378.852 179.786 378.611 179.786Z" fill="#0B0806"/>
<path d="M385.966 177.103C385.661 177.103 385.381 177.027 385.155 176.89C384.765 176.664 384.485 176.256 384.327 175.671C383.629 173.085 385.414 167.345 388.665 161.716C392.281 155.447 396.728 150.898 399.238 150.898C399.543 150.898 399.823 150.975 400.049 151.109C401.118 151.733 401.328 153.655 400.649 156.525C399.982 159.376 398.522 162.843 396.539 166.285C392.923 172.552 388.476 177.103 385.966 177.103Z" fill="#5B422C"/>
<path opacity="0.2" d="M385.977 177.103C385.672 177.103 385.392 177.027 385.166 176.89L385.133 176.872L400.017 151.094L400.06 151.109C400.45 151.334 400.73 151.743 400.888 152.328C401.586 154.908 399.81 160.65 396.566 166.286C392.934 172.552 388.481 177.103 385.977 177.103Z" fill="#0B0806"/>
<path d="M368.007 157.082L381.877 184.977" stroke="black" stroke-width="1.35392" stroke-linecap="round" stroke-linejoin="round"/>
<path d="M399.783 151.291L380.646 184.977" stroke="black" stroke-width="1.35392" stroke-linecap="round" stroke-linejoin="round"/>
<path d="M366.201 209.875C364.821 207.972 364.123 205.934 364.123 203.816C364.123 198.211 369.022 193.313 376.308 191.628L373.673 182.014L389.566 182.008L386.955 191.634C394.239 193.313 399.137 198.211 399.137 203.816C399.137 205.927 398.428 208.017 397.081 209.857L397.063 209.875H366.201Z" fill="#61AAFF"/>
<path d="M376.521 191.557H380.384" stroke="#0A0B0D" stroke-width="1.35392" stroke-linecap="round" stroke-linejoin="round"/>
<path opacity="0.2" d="M391.473 209.875V209.854L391.51 209.796C392.853 207.959 393.563 205.885 393.563 203.798C393.563 198.229 388.683 193.355 381.417 191.674H381.384L384.013 182.011L389.566 182.008L386.956 191.634C394.239 193.313 399.138 198.211 399.138 203.816C399.138 205.927 398.428 208.017 397.081 209.857L397.063 209.875H391.473Z" fill="#65707D"/>
<path d="M381.612 186.527C376.662 186.527 373.823 182.232 373.866 182.034L373.994 182.013L388.784 182.01H389.509C389.505 182.71 386.566 186.527 381.612 186.527Z" fill="#0B131B"/>
<path d="M437.634 209.73H38V223.905H437.634V209.73Z" fill="#CECECE"/>
</svg>
