<svg width="442" height="264" viewBox="0 0 442 264" fill="none" xmlns="http://www.w3.org/2000/svg">
<path d="M442 264H240.473H4C4 143.05 102.05 45 223 45C343.95 45 442 143.05 442 264Z" fill="#FDE7D5"/>
<path d="M197.036 20.2773H318.366C321.798 20.2804 325.089 21.6434 327.517 24.0715C329.942 26.4966 331.308 29.7873 331.308 33.2193V134.83H184.094V33.2193C184.094 29.7873 185.46 26.4966 187.885 24.0684C190.313 21.6434 193.604 20.2804 197.036 20.2773Z" fill="#2C425B"/>
<path d="M200.226 38.4039C202.329 38.4039 204.033 36.6971 204.033 34.5975C204.033 32.4947 202.329 30.791 200.226 30.791C198.124 30.791 196.42 32.4947 196.42 34.5975C196.42 36.6971 198.124 38.4039 200.226 38.4039Z" fill="#707070"/>
<path d="M213.275 38.4039C215.378 38.4039 217.082 36.6971 217.082 34.5975C217.082 32.4947 215.378 30.791 213.275 30.791C211.172 30.791 209.469 32.4947 209.469 34.5975C209.469 36.6971 211.172 38.4039 213.275 38.4039Z" fill="#707070"/>
<path d="M226.327 38.4039C228.427 38.4039 230.133 36.6971 230.133 34.5975C230.133 32.4947 228.427 30.791 226.327 30.791C224.224 30.791 222.521 32.4947 222.521 34.5975C222.521 36.6971 224.224 38.4039 226.327 38.4039Z" fill="#707070"/>
<path d="M183.732 48.5508H331.275" stroke="#707070" stroke-width="3.15348" stroke-linecap="round" stroke-linejoin="round"/>
<path d="M228.651 77.9824H285.198C290.754 77.9824 295.267 82.4949 295.267 88.0511V94.2396C295.267 99.7989 290.754 104.308 285.198 104.308H228.651C223.091 104.308 218.582 99.7989 218.582 94.2396V88.0511C218.582 82.4949 223.091 77.9824 228.651 77.9824Z" fill="#61AAFF"/>
<path d="M232.672 96.2673C235.512 96.2673 237.817 93.962 237.817 91.1194C237.817 88.28 235.512 85.9746 232.672 85.9746C229.83 85.9746 227.524 88.28 227.524 91.1194C227.524 93.962 229.83 96.2673 232.672 96.2673Z" stroke="black" stroke-width="3.15348" stroke-linecap="round" stroke-linejoin="round"/>
<path d="M236.313 94.7637L237.879 96.3292" stroke="black" stroke-width="3.15348" stroke-linecap="round" stroke-linejoin="round"/>
<path d="M244.306 95.5879H284.832" stroke="black" stroke-width="3.15348" stroke-linecap="round" stroke-linejoin="round"/>
<path d="M56.0252 134.982H37.168V182.336H56.0252V134.982Z" fill="white"/>
<path opacity="0.3" d="M37.168 134.982H40.8977L47.7708 182.336H37.168V134.982Z" fill="#222222"/>
<path d="M138.161 144.199H124.753V182.334H138.161V144.199Z" fill="#CECECE"/>
<path opacity="0.3" d="M124.753 144.199H126.26L131.457 182.334H124.753V144.199Z" fill="#222222"/>
<path d="M114.277 134.982H101.706V182.336H114.277V134.982Z" fill="#CECECE"/>
<path d="M158.278 134.982H138.162V182.336H158.278V134.982Z" fill="white"/>
<path d="M168.963 134.982H158.277V182.336H168.963V134.982Z" fill="#CECECE"/>
<path opacity="0.3" d="M158.277 134.982H159.996L164.481 182.336H158.277V134.982Z" fill="#020202"/>
<path d="M179.652 134.982H168.963V182.336H179.652V134.982Z" fill="white"/>
<path d="M90.1388 134.871L66.459 175.882L78.0717 182.587L101.751 141.575L90.1388 134.871Z" fill="#CECECE"/>
<path opacity="0.3" d="M99.6088 140.262L101.745 141.517L78.0686 182.504L66.459 175.797L68.9762 171.481L99.6088 140.262Z" fill="#222222"/>
<path d="M66.5023 127.857H56.0254V182.336H66.5023V127.857Z" fill="#CECECE"/>
<path d="M124.753 127.857H114.276V182.336H124.753V127.857Z" fill="white"/>
<path d="M50.5765 211.588H37.168V258.941H50.5765V211.588Z" fill="white"/>
<path opacity="0.3" d="M37.168 211.588H41.6927L49.1122 258.941H37.168V211.588Z" fill="#222222"/>
<path d="M63.9877 211.588H50.5762V258.941H63.9877V211.588Z" fill="#CECECE"/>
<path d="M74.4642 202.785H63.9873V258.939H74.4642V202.785Z" fill="white"/>
<path d="M99.6079 202.785H74.4639V258.939H99.6079V202.785Z" fill="#CECECE"/>
<path opacity="0.3" d="M74.4639 202.785H76.7692L82.9302 258.939H74.4639V202.785Z" fill="#020202"/>
<path d="M112.18 219.549H99.6094V258.939H112.18V219.549Z" fill="white"/>
<path opacity="0.3" d="M99.6094 219.549H102.71L108.41 258.939H99.6094V219.549Z" fill="#1A1A1A"/>
<path d="M146.125 211.588H133.555V258.941H146.125V211.588Z" fill="white"/>
<path d="M158.699 211.588H146.125V258.941H158.699V211.588Z" fill="#CECECE"/>
<path d="M133.553 211.588H112.179V258.941H133.553V211.588Z" fill="white"/>
<path d="M179.652 211.588H158.698V258.941H179.652V211.588Z" fill="#CECECE"/>
<path d="M37.168 182.336H179.652" stroke="#222222" stroke-width="3.15348" stroke-linecap="round" stroke-linejoin="round"/>
<path d="M37.168 119.477V258.314H179.652V119.477" stroke="#222222" stroke-width="3.15348" stroke-linecap="round" stroke-linejoin="round"/>
<path opacity="0.3" d="M158.698 211.588H160.5L167.96 258.941H158.698V211.588Z" fill="#020202"/>
<path d="M194.759 123.349C191.505 119.794 184.613 112.988 184.485 112.687C184.015 112.261 181.489 88.587 176.522 89.2317C174.554 89.2317 173.655 90.8556 173.354 91.6261C173.268 91.798 173.056 91.8409 172.927 91.755C171.942 91.1134 168.774 89.3146 164.108 89.3146C158.288 89.4005 155.374 90.6438 155.077 92.7833C155.077 92.7833 155.077 92.8263 155.034 92.8263C154.392 92.9123 151.181 94.1095 151.995 96.2091C151.995 96.2521 151.995 96.2521 151.952 96.2521C151.439 96.421 148.185 97.7931 149.339 99.6319V99.6749C148.999 99.8468 146.386 101.474 147.243 103.187C149.167 106.566 161.198 105.839 162.782 109.691C163.423 111.103 163.337 112.859 163.251 115.042C162.312 125.273 166.677 131.351 173.228 141.113C173.228 141.113 173.268 141.156 173.268 141.113C173.998 140.855 187.996 135.719 188.509 135.548C188.509 135.548 188.509 135.548 188.552 135.548L194.759 123.349Z" fill="#A56250"/>
<path d="M41.6783 228.01C46.4732 214.141 76.1819 178.824 92.5772 169.749V169.706C103.192 164.614 115.735 164.141 116.036 164.141L138.509 164.485L147.2 166.026C152.679 165.126 170.616 163.414 180.632 162.557C184.313 162.216 186.925 162.001 187.395 162.001C187.438 162.001 187.438 161.959 187.438 161.916C186.796 161.016 179.349 150.487 173.311 141.198V141.155L194.759 123.348H194.802C204.177 132.848 214.279 143.252 218.558 148.516C222.884 153.827 224.937 161.145 224.081 167.951C223.095 175.827 218.347 183.149 210.341 189.098C206.743 191.753 202.848 194.022 198.869 195.946C182.858 203.697 165.864 205.837 165.05 205.923C165.05 205.923 165.007 205.923 165.007 205.966L153.79 255.876L153.751 255.919L109.528 255.962H92.6632V251.855L74.383 253.995C70.8314 254.253 67.3626 254.378 64.1977 254.378C53.5366 254.378 46.3044 252.837 43.821 250.013C41.2086 247.103 37.4421 240.298 41.6783 228.01Z" fill="#F58220"/>
<path d="M147.158 162.304L147.115 159.179C147.115 159.136 147.158 159.136 147.158 159.136C147.885 159.308 155.934 160.932 161.156 156.097C167.621 149.546 163.338 136.745 163.811 127.757C163.937 125.532 163.897 123.349 163.682 121.421C162.27 108.108 152.68 105.926 136.755 106.183C118.177 106.825 116.851 116.541 116.295 123.22C116.123 128.958 116.166 140.042 116.252 148.991C116.338 156.309 116.166 160.849 116.166 161.19V161.233L119.42 164.014C119.42 164.014 119.42 164.014 119.463 164.014L147.072 162.347C147.115 162.347 147.158 162.347 147.158 162.304Z" fill="#A56250"/>
<path opacity="0.3" d="M147.07 159.133C147.113 159.133 147.113 159.133 147.07 159.133L147.113 162.344V164.398C147.113 164.441 147.113 164.441 147.07 164.441L144.974 164.484H144.931L137.61 155.621C137.567 155.578 137.61 155.535 137.653 155.578C141.72 157.592 146.687 159.004 147.07 159.133Z" fill="black"/>
<path d="M120.787 149.459C123.4 149.459 126.908 148.774 129.048 145.821V145.778C128.449 145.222 118.903 135.676 123.4 129.938C124.597 128.397 126.267 127.627 128.278 127.627C132.56 127.627 137.269 131.096 137.567 131.35H137.61C137.996 131.224 142.19 127.2 140.649 120.821C140.649 120.778 140.692 120.735 140.734 120.778C145.83 124.545 150.668 125.229 151.607 119.538C151.607 119.495 151.65 119.495 151.693 119.495C154.564 121.463 157.259 122.534 159.828 122.534C162.312 122.491 163.681 121.678 163.767 121.463C163.767 121.463 163.767 121.463 163.767 121.42C163.125 108.106 151.908 102.67 137.183 102.971C105.976 102.971 116.079 147.789 116.336 148.946C116.336 148.946 116.336 148.989 116.379 148.989C116.505 149.032 118.433 149.459 120.787 149.459Z" fill="#231F20"/>
<path d="M138.294 165.725L144.673 173.945C144.673 173.988 144.758 173.945 144.758 173.945L147.199 166.025L147.156 162.388C147.156 162.345 147.156 162.345 147.113 162.345L116.207 161.188C116.164 161.188 116.164 161.188 116.164 161.23L116.035 164.098V164.141L130.932 174.97H130.975L138.211 165.725C138.251 165.725 138.251 165.725 138.294 165.725Z" fill="#BCAB9D"/>
<path d="M152.124 142.366C152.64 143.993 154.31 144.975 156.02 144.505" stroke="black" stroke-width="3.15348" stroke-linecap="round" stroke-linejoin="round"/>
<path d="M155.335 134.562L155.461 135.763C155.547 136.576 155.206 137.347 154.564 137.859" stroke="black" stroke-width="3.15348" stroke-linecap="round" stroke-linejoin="round"/>
<path d="M148.656 131.27C146.9 131.309 146.9 133.879 148.656 133.922C150.412 133.879 150.412 131.309 148.656 131.27Z" fill="#231F20"/>
<path d="M160.341 131.27C158.585 131.309 158.585 133.879 160.341 133.922C162.097 133.879 162.097 131.309 160.341 131.27Z" fill="#231F20"/>
<path d="M138.509 180.881C134.786 180.967 134.786 186.446 138.509 186.532C142.233 186.446 142.233 180.967 138.509 180.881Z" fill="black"/>
<path d="M138.509 200.611C134.786 200.697 134.786 206.177 138.509 206.263C142.233 206.177 142.233 200.697 138.509 200.611Z" fill="black"/>
<path d="M138.509 220.391C134.786 220.477 134.786 225.956 138.509 226.042C142.233 225.956 142.233 220.477 138.509 220.391Z" fill="black"/>
<path d="M165.007 205.881L166.849 194.922" stroke="black" stroke-width="3.15348" stroke-linecap="round" stroke-linejoin="round"/>
<path d="M187.395 161.961L193.476 170.139" stroke="black" stroke-width="3.15348" stroke-linecap="round" stroke-linejoin="round"/>
<path d="M147.114 159.136C141.936 158.279 137.567 155.025 137.567 155.025" stroke="black" stroke-width="3.15348" stroke-linecap="round" stroke-linejoin="round"/>
<path d="M132.987 137.73L129.092 134.691" stroke="black" stroke-width="3.15348" stroke-linecap="round" stroke-linejoin="round"/>
<path d="M173.228 91.9277C174.808 92.7412 179.477 95.6943 181.66 98.8192" stroke="black" stroke-linecap="round" stroke-linejoin="round"/>
<path d="M155.163 92.8252C158.202 92.3954 161.625 91.9687 164.667 92.3954C168.562 92.9541 172.458 95.4375 172.458 95.4375" stroke="black" stroke-linecap="round" stroke-linejoin="round"/>
<path d="M149.382 99.6758C152.851 99.6758 159.441 99.7617 166.333 103.657" stroke="black" stroke-linecap="round" stroke-linejoin="round"/>
<path d="M151.995 96.2516C154.135 96.2516 162.055 95.0084 169.373 99.3336" stroke="black" stroke-linecap="round" stroke-linejoin="round"/>
<path opacity="0.3" d="M193.516 170.096L187.481 161.961C187.481 161.961 187.481 161.961 187.438 161.961C187.141 161.961 184.184 162.219 180.719 162.517C180.676 162.517 180.676 162.56 180.719 162.602L193.433 170.139C193.516 170.182 193.559 170.139 193.516 170.096Z" fill="black"/>
<path opacity="0.3" d="M165.05 205.924C166.121 205.838 182.9 203.655 198.697 196.033C198.74 196.033 198.74 195.947 198.697 195.947C176.435 195.137 167.533 194.922 166.892 194.879C166.849 194.879 166.849 194.879 166.849 194.922L165.007 205.881L165.05 205.924Z" fill="black"/>
<path opacity="0.3" d="M93.8204 223.175C92.749 223.175 92.0645 223.218 91.8066 223.218C91.7637 223.218 91.7637 223.175 91.7637 223.135C94.6308 219.451 98.3144 214.871 101.31 209.606C101.31 209.563 101.396 209.563 101.396 209.606L103.837 223.561C103.837 223.604 103.837 223.604 103.794 223.604C102.894 223.518 101.995 223.475 101.182 223.432C98.0136 223.218 95.4443 223.175 93.8204 223.175Z" fill="black"/>
<path d="M103.879 223.647C111.369 224.202 120.787 225.488 127.893 228.653C137.867 232.892 157.473 248.048 149.894 248.431C148.525 248.431 144.672 246.633 142.79 245.693C142.576 245.607 142.361 245.862 142.533 246.034C144.973 248.732 151.65 256.652 145.486 256.95C144.374 256.95 143.303 256.692 143.088 256.652C143.045 256.652 143.045 256.652 143.045 256.692C141.934 261.358 135.982 258.749 134.699 257.38C134.656 257.337 134.613 257.38 134.613 257.423C134.613 258.878 132.771 259.903 130.846 259.817C126.779 259.519 114.193 247.919 113.594 247.277H113.551C113.337 247.36 111.326 247.919 108.201 248.646C105.162 249.374 101.095 250.316 96.6004 251.13C96.5575 251.13 96.5575 251.13 96.5575 251.087C96.5145 250.485 96.0018 243.422 97.1561 236.616C98.2274 230.194 100.966 223.987 101.137 223.561C101.137 223.561 101.137 223.561 101.18 223.561C102.037 223.518 102.936 223.604 103.879 223.647Z" fill="#A56250"/>
<path d="M101.311 209.646C98.0146 214.911 95.5742 218.423 91.6787 223.215" stroke="black" stroke-width="3.15348" stroke-linecap="round" stroke-linejoin="round"/>
<path d="M133.542 237.473C136.584 239.741 140.05 243.422 142.834 246.034" stroke="black" stroke-width="3.15348" stroke-linecap="round" stroke-linejoin="round"/>
<path d="M127.508 240.939C127.508 240.939 139.581 252.795 143.047 256.69" stroke="black" stroke-width="3.15348" stroke-linecap="round" stroke-linejoin="round"/>
<path d="M121.473 244.793L134.657 257.336" stroke="black" stroke-width="3.15348" stroke-linecap="round" stroke-linejoin="round"/>
<path d="M101.181 223.514C92.1073 222.658 71.3867 224.07 71.3867 224.07" stroke="black" stroke-width="3.15348" stroke-linecap="round" stroke-linejoin="round"/>
<path d="M96.6444 251.084C87.7821 252.923 74.3828 253.994 74.3828 253.994" stroke="black" stroke-width="3.15348" stroke-linecap="round" stroke-linejoin="round"/>
<path d="M321.573 230.084C329.625 230.084 337.941 223.53 340.114 215.478L355.297 158.811C356.371 154.799 355.788 151.051 353.652 148.267C351.616 145.614 348.393 144.156 344.575 144.156H253.613C245.555 144.156 237.239 150.729 235.072 158.805L219.889 215.426C218.833 219.45 219.435 223.204 221.586 225.992C223.622 228.632 226.826 230.084 230.611 230.084H321.573Z" fill="#0D51A0"/>
<path opacity="0.3" d="M272.183 230.084C272.214 229.89 272.232 229.697 272.242 229.504C272.251 229.313 272.263 229.123 272.288 228.942C272.871 223.091 276.677 218.333 280.769 218.333C281.537 218.342 282.295 218.514 282.992 218.836C283.689 219.162 284.309 219.631 284.809 220.215C286.611 222.192 287.495 225.452 287.173 228.939L287.038 230.068L297.217 230.084L299.489 206.573L264.23 206.561L261.912 230.084H272.183Z" fill="black"/>
<path d="M310.773 248.158L299.67 206.57L264.365 206.561L275.518 248.158H310.773ZM285.242 218.333C289.316 218.333 293.911 223.094 295.489 228.942C296.435 232.46 296.094 235.741 294.577 237.721C294.154 238.298 293.595 238.762 292.957 239.081C292.315 239.397 291.606 239.557 290.891 239.548C286.793 239.548 282.176 234.787 280.601 228.936C279.677 225.409 280.036 222.124 281.562 220.147C281.988 219.576 282.544 219.113 283.183 218.796C283.824 218.48 284.53 218.324 285.242 218.333Z" fill="#2C425B"/>
<path d="M303.182 165.814L300.969 174.127" stroke="black" stroke-width="3.15348" stroke-linecap="round" stroke-linejoin="round"/>
<path d="M292.792 165.814L290.575 174.127" stroke="black" stroke-width="3.15348" stroke-linecap="round" stroke-linejoin="round"/>
<path d="M282.397 165.814L280.184 174.127" stroke="black" stroke-width="3.15348" stroke-linecap="round" stroke-linejoin="round"/>
<path d="M259.485 248.158C259.488 247.323 259.328 246.5 259.012 245.73C258.693 244.959 258.229 244.259 257.64 243.667C257.054 243.078 256.354 242.611 255.586 242.292C254.816 241.969 253.993 241.807 253.158 241.807H177.695C176.016 241.807 174.405 242.476 173.217 243.664C172.029 244.852 171.36 246.463 171.356 248.146V248.158H259.485Z" fill="#0D51A0"/>
<path d="M201.194 248.158C201.197 247.323 201.034 246.5 200.718 245.73C200.402 244.959 199.936 244.259 199.349 243.667C198.76 243.078 198.063 242.611 197.292 242.292C196.525 241.969 195.699 241.807 194.867 241.807H177.695C176.016 241.807 174.405 242.476 173.217 243.664C172.029 244.852 171.36 246.463 171.356 248.146V248.158H201.194Z" fill="#2C425B"/>
<path d="M126.404 62.5117C143.665 62.5117 157.66 48.5168 157.66 31.2558C157.66 13.9948 143.665 0 126.404 0C109.14 0 95.1484 13.9948 95.1484 31.2558C95.1484 48.5168 109.14 62.5117 126.404 62.5117Z" fill="#FF8F30"/>
<path d="M126.404 50.0786C136.798 50.0786 145.227 41.6522 145.227 31.2551C145.227 20.858 136.798 12.4316 126.404 12.4316C116.006 12.4316 107.58 20.858 107.58 31.2551C107.58 41.6522 116.006 50.0786 126.404 50.0786Z" fill="#FFD9B9"/>
<path d="M132.795 21.1641L126.404 31.2573L131.119 37.2985" stroke="black" stroke-width="3.15348" stroke-linecap="round" stroke-linejoin="round"/>
<path d="M354.733 199.893C356.151 194.604 363.893 193.023 367.077 203.236C369.845 212.144 373.762 213.449 375.549 222.265C377.243 230.692 372.366 242.875 359.863 242.007C346.697 241.089 354.733 199.893 354.733 199.893Z" stroke="#466991" stroke-width="3.15348" stroke-linecap="round" stroke-linejoin="round"/>
<path d="M332.533 209.078L349.441 177.344L378.953 193.067L362.042 224.808L332.533 209.078Z" fill="#FF8F30"/>
<path d="M341.199 181.553H341.291C343.732 181.553 346.074 182.523 347.799 184.251C349.527 185.976 350.497 188.318 350.497 190.759V199.345H331.996V190.759C331.996 188.318 332.966 185.976 334.691 184.251C336.416 182.523 338.759 181.553 341.199 181.553Z" stroke="#2C425B" stroke-width="3.15348" stroke-linecap="round" stroke-linejoin="round"/>
<path d="M322.882 247.988C321.415 247.985 320.012 247.404 318.977 246.367C317.94 245.329 317.356 243.926 317.356 242.462V214.067C317.35 210.93 317.964 207.824 319.161 204.926C320.359 202.025 322.118 199.391 324.334 197.172C326.55 194.952 329.184 193.193 332.082 191.993C334.98 190.793 338.086 190.176 341.224 190.176H341.429C347.756 190.182 353.822 192.702 358.297 197.178C362.773 201.65 365.29 207.716 365.296 214.043V242.462C365.293 243.926 364.713 245.329 363.675 246.367C362.641 247.404 361.235 247.985 359.771 247.988H322.882Z" fill="#61AAFF"/>
<path opacity="0.3" d="M350.841 219.488H331.766C328.663 219.488 326.148 222.005 326.148 225.106V237.13C326.148 240.23 328.663 242.744 331.766 242.744H350.841C353.945 242.744 356.459 240.23 356.459 237.13V225.106C356.459 222.005 353.945 219.488 350.841 219.488Z" fill="#306DB3"/>
<path d="M350.841 216.971H331.766C328.663 216.971 326.148 219.485 326.148 222.588V234.609C326.148 237.713 328.663 240.227 331.766 240.227H350.841C353.945 240.227 356.459 237.713 356.459 234.609V222.588C356.459 219.485 353.945 216.971 350.841 216.971Z" fill="#D66200"/>
<path d="M326.155 225.618L326.148 222.588C326.152 221.099 326.741 219.669 327.794 218.619C328.85 217.566 330.277 216.974 331.766 216.971H350.841C352.33 216.974 353.757 217.566 354.81 218.619C355.863 219.669 356.456 221.099 356.459 222.588V225.618H326.155Z" fill="#FF8F30"/>
<path d="M326.154 225.789H356.474" stroke="#2C425B" stroke-width="3.15348" stroke-linecap="round" stroke-linejoin="round"/>
<path d="M341.315 209.747C343.847 209.747 345.901 207.693 345.901 205.16C345.901 202.628 343.847 200.574 341.315 200.574C338.782 200.574 336.726 202.628 336.726 205.16C336.726 207.693 338.782 209.747 341.315 209.747Z" fill="#FF8F30"/>
<path d="M402.704 247.715H0V261.998H402.704V247.715Z" fill="#CECECE"/>
</svg>
