<svg width="438" height="306" viewBox="0 0 438 306" fill="none" xmlns="http://www.w3.org/2000/svg">
<path d="M438 263H236.473H0C0 142.05 98.0496 44 219 44C339.95 44 438 142.05 438 263Z" fill="#FDE7D5"/>
<path d="M286.443 111.125H366.072C371.62 111.125 376.1 115.953 376.1 121.885V207.317C376.1 213.269 371.602 218.074 366.072 218.074H286.443C280.895 218.074 276.413 213.249 276.413 207.317V121.905C276.395 115.953 280.895 111.125 286.443 111.125Z" fill="#CECECE"/>
<path d="M140.147 147.502H46.0432C39.6711 147.502 34.52 152.653 34.52 159.025V247.438C34.52 253.813 39.6711 258.964 46.0432 258.964H140.147C146.521 258.964 151.672 253.813 151.672 247.438V159.025C151.672 152.673 146.498 147.502 140.147 147.502Z" fill="#CECECE"/>
<path d="M47.0378 167.675C49.6554 167.675 51.7743 165.556 51.7743 162.938C51.7743 160.321 49.6554 158.199 47.0378 158.199C44.4229 158.199 42.2988 160.321 42.2988 162.938C42.2988 165.556 44.4229 167.675 47.0378 167.675Z" fill="white"/>
<path d="M60.7971 167.675C63.4146 167.675 65.5361 165.556 65.5361 162.938C65.5361 160.321 63.4146 158.199 60.7971 158.199C58.1821 158.199 56.0581 160.321 56.0581 162.938C56.0581 165.556 58.1821 167.675 60.7971 167.675Z" fill="white"/>
<path d="M74.5763 167.675C77.1938 167.675 79.3153 165.556 79.3153 162.938C79.3153 160.321 77.1938 158.199 74.5763 158.199C71.9613 158.199 69.8398 160.321 69.8398 162.938C69.8398 165.556 71.9613 167.675 74.5763 167.675Z" fill="white"/>
<path d="M74.2836 30.7441H85.5982L89.0094 31.0697L93.4787 30.7441H134.354C137.341 30.7441 139.765 33.1658 139.765 36.1547V62.9302L139.03 65.9318L139.765 69.3048V95.971C139.765 98.9599 137.341 101.382 134.354 101.382H74.2836C71.2947 101.382 68.873 98.9599 68.873 95.971V36.1547C68.8832 33.1658 71.2947 30.7441 74.2836 30.7441Z" fill="#A0CCFF"/>
<path d="M139.765 62.9302C134.677 64.1232 130.027 64.4844 125.929 64.0037C125.736 63.9782 125.545 63.9553 125.365 63.9299C125.459 63.5941 125.555 63.2558 125.642 62.9175C127.616 55.388 127.593 48.4588 125.568 43.8902C124.4 41.2651 122.772 39.2148 120.725 37.7929C118.832 36.4574 116.566 35.7452 114.253 35.7324H114.218C109.601 35.7324 105.373 38.5178 103.432 42.8193C100.878 48.4817 102.662 55.388 108.337 61.7728C110.784 64.5328 113.818 66.7153 117.23 68.1474C115.446 72.1259 112.374 76.669 109.759 79.3425C106.999 82.1508 103.987 83.9823 100.782 84.7785C97.2154 85.6688 93.3693 85.272 89.3705 83.5855C82.2607 80.5966 79.8493 74.4152 79.0658 69.75C77.9821 63.2558 80.0909 54.3018 83.6471 46.35C86.0433 40.9751 89.3807 35.7095 93.4787 30.7441H85.5981C82.5965 34.8167 80.0426 39.1919 77.9592 43.8063C73.8486 52.9892 71.6329 62.9658 72.9201 70.7751C74.3802 79.5485 79.3685 86.1394 86.9489 89.3216C90.3448 90.7538 93.6949 91.466 96.9738 91.466C98.7697 91.466 100.54 91.2498 102.288 90.8148C106.625 89.7312 110.626 87.3451 114.192 83.6923C117.543 80.2837 121.134 74.8731 123.256 69.9077C128.135 70.7879 133.667 70.5945 139.765 69.3049V62.9302ZM119.628 61.3404C119.544 61.6532 119.458 61.9661 119.374 62.279C116.929 61.2183 114.76 59.6411 112.989 57.6519C109.011 53.1826 107.602 48.7106 109.095 45.386C110.036 43.3001 112.048 41.9621 114.218 41.9621H114.241C116.604 41.9748 118.616 43.5545 119.893 46.434C121.302 49.6035 121.206 55.3269 119.628 61.3404Z" fill="white"/>
<path d="M75.8378 39.6985C76.9342 39.6985 77.8245 38.8082 77.8245 37.7093C77.8245 36.613 76.9342 35.7227 75.8378 35.7227C74.7389 35.7227 73.8486 36.613 73.8486 37.7093C73.8486 38.8082 74.7389 39.6985 75.8378 39.6985Z" fill="#141619"/>
<path d="M82.309 39.6985C83.4054 39.6985 84.2957 38.8082 84.2957 37.7093C84.2957 36.613 83.4054 35.7227 82.309 35.7227C81.2101 35.7227 80.3198 36.613 80.3198 37.7093C80.3198 38.8082 81.2101 39.6985 82.309 39.6985Z" fill="#141619"/>
<path d="M88.7802 39.6985C89.8766 39.6985 90.7669 38.8082 90.7669 37.7093C90.7669 36.613 89.8766 35.7227 88.7802 35.7227C87.6813 35.7227 86.791 36.613 86.791 37.7093C86.791 38.8082 87.6813 39.6985 88.7802 39.6985Z" fill="#141619"/>
<path d="M272.693 258.39C265.576 258.052 257.919 257.986 242.198 266.523C214.754 281.432 201.099 283.599 199.166 276.687C197.472 270.59 212.042 261.102 218.142 255.002C231.049 242.095 227.831 233.283 213.06 235.69C198.489 238.061 189.68 246.531 177.483 234.334" stroke="#23211F" stroke-width="1.0175" stroke-linecap="round" stroke-linejoin="round"/>
<path d="M330.874 141.344L305.566 177.155C305.503 177.279 305.442 177.462 305.566 177.585L310.542 185.816L319.633 187.599C319.817 187.66 320 187.536 320.124 187.414L345.371 151.603L330.874 141.344Z" fill="#FFAA61"/>
<path d="M338.121 155.412C343.041 155.412 347.03 151.425 347.03 146.506C347.03 141.584 343.041 137.598 338.121 137.598C333.202 137.598 329.216 141.584 329.216 146.506C329.216 151.425 333.202 155.412 338.121 155.412Z" fill="#23211F"/>
<path d="M338.183 149.207C339.811 149.207 341.131 147.887 341.131 146.259C341.131 144.631 339.811 143.311 338.183 143.311C336.555 143.311 335.235 144.631 335.235 146.259C335.235 147.887 336.555 149.207 338.183 149.207Z" fill="#FFAA61"/>
<path d="M305.75 177.219L319.878 187.476C319.939 187.476 319.878 187.537 319.878 187.6L309.619 190.917L306.549 190.424L305.012 187.17L305.442 177.402C305.503 177.219 305.689 177.156 305.75 177.219Z" fill="#23211F"/>
<path d="M305.073 187.105L309.683 190.852L304.89 192.328L305.073 187.105Z" fill="#FFAA61"/>
<path d="M109.504 189.831H104.674L103.771 187.018C103.081 184.894 101.118 183.459 98.9402 183.459H88.376C86.1452 183.459 84.2348 184.894 83.5455 187.018L82.6424 189.831H77.8119C72.1825 189.831 67.6699 194.397 67.6699 199.97V219.506C67.6699 225.136 72.236 229.648 77.8119 229.648H109.558C115.185 229.648 119.697 225.082 119.697 219.506V199.97C119.644 194.397 115.078 189.831 109.504 189.831ZM94.1631 216.907C89.7548 216.907 86.1986 213.348 86.1986 208.942C86.1986 204.536 89.7548 200.98 94.1631 200.98C98.5689 200.98 102.125 204.536 102.125 208.942C102.125 213.348 98.5689 216.907 94.1631 216.907Z" fill="#F58220"/>
<path d="M288.317 260.512C294.732 259.601 299.197 253.659 298.286 247.241C297.375 240.823 291.433 236.362 285.015 237.272C278.597 238.183 274.133 244.125 275.046 250.543C275.957 256.958 281.897 261.423 288.317 260.512Z" fill="#0D51A0"/>
<path d="M318.853 280.442C323.609 279.768 326.919 275.365 326.242 270.608C325.568 265.851 321.165 262.542 316.408 263.219C311.651 263.893 308.342 268.296 309.018 273.053C309.693 277.81 314.096 281.119 318.853 280.442Z" fill="#A0CCFF"/>
<path d="M165.841 63.3541C162.972 63.3541 160.644 61.0266 160.644 58.1572C160.644 55.2879 162.972 52.9629 165.841 52.9629C168.71 52.9629 171.035 55.2879 171.035 58.1572C171.035 61.0266 168.71 63.3541 165.841 63.3541Z" fill="#0D51A0"/>
<path d="M175.935 41.233C173.065 41.233 170.74 38.908 170.74 36.0361C170.74 33.1668 173.065 30.8418 175.935 30.8418C178.804 30.8418 181.131 33.1668 181.131 36.0361C181.131 38.908 178.804 41.233 175.935 41.233Z" fill="#F58220"/>
<path d="M303.417 45.764L267.84 39.5547L281.826 72.7837L285.494 63.5397L296.178 72.074L305.887 59.9225L295.201 51.3882L303.417 45.764Z" fill="#0D51A0"/>
<path d="M258.726 206.61H135.143C128.056 206.61 123.345 200.879 124.576 193.792L139.131 111.334C140.362 104.247 147.111 98.5156 154.198 98.5156H277.822C284.911 98.5156 289.622 104.247 288.391 111.334L273.833 193.792C272.561 200.879 265.812 206.61 258.726 206.61Z" fill="#2C425B"/>
<path d="M231.904 191.753H147.111C143.079 191.753 140.406 188.486 141.128 184.455L152.331 120.711C153.053 116.679 156.871 113.41 160.903 113.41H245.697C249.728 113.41 252.402 116.679 251.679 120.711L240.434 184.455C239.798 188.486 235.936 191.753 231.904 191.753Z" fill="#A0CCFF"/>
<path d="M264.963 144.18C260.295 144.18 255.881 147.957 255.032 152.625C254.226 157.293 257.324 161.07 261.994 161.07C266.662 161.07 271.075 157.293 271.922 152.625C272.729 147.957 269.59 144.18 264.963 144.18ZM266.448 152.582C266.11 154.281 264.668 155.51 262.968 155.553C261.61 155.596 260.509 154.535 260.465 153.22C260.465 153.007 260.465 152.795 260.509 152.582C260.847 150.885 262.289 149.654 263.988 149.611C265.347 149.57 266.448 150.631 266.491 151.946C266.491 152.157 266.491 152.371 266.448 152.582Z" fill="#A0CCFF"/>
<path d="M273.408 131.28H261.058C260.041 131.323 259.191 130.517 259.15 129.497C259.15 129.329 259.15 129.158 259.191 129.031L259.616 126.569C259.87 125.297 260.974 124.363 262.249 124.32H274.599C275.616 124.277 276.466 125.083 276.506 126.103C276.506 126.271 276.506 126.442 276.466 126.569L276.041 129.031C275.787 130.303 274.683 131.236 273.408 131.28Z" fill="#A0CCFF"/>
<path d="M275.318 120.371H262.968C261.951 120.415 261.101 119.608 261.058 118.591C261.058 118.42 261.058 118.25 261.101 118.123L261.526 115.663C261.781 114.388 262.885 113.455 264.156 113.412H276.506C277.526 113.371 278.373 114.177 278.417 115.195C278.417 115.365 278.417 115.536 278.373 115.663L277.951 118.123C277.694 119.397 276.634 120.331 275.318 120.371Z" fill="#A0CCFF"/>
<path d="M262.757 191.754H250.364C249.346 191.797 248.497 190.991 248.454 189.974C248.454 189.803 248.454 189.633 248.497 189.505L248.922 187.043C249.176 185.771 250.28 184.838 251.552 184.794H263.902C264.922 184.754 265.769 185.558 265.812 186.578C265.812 186.748 265.812 186.916 265.769 187.043L265.347 189.505C265.133 190.78 264.029 191.713 262.757 191.754Z" fill="#A0CCFF"/>
<path d="M264.668 180.848H252.318C251.298 180.889 250.451 180.083 250.408 179.065C250.408 178.895 250.408 178.724 250.451 178.597L250.873 176.137C251.128 174.863 252.232 173.929 253.506 173.886H265.856C266.873 173.846 267.723 174.652 267.764 175.669C267.764 175.84 267.764 176.01 267.723 176.137L267.298 178.597C267.044 179.872 265.94 180.805 264.668 180.848Z" fill="#A0CCFF"/>
</svg>
