<svg width="72" height="72" viewBox="0 0 72 72" fill="none" xmlns="http://www.w3.org/2000/svg">
<path d="M53.6631 32.6902C57.8481 32.1022 61.0701 28.5142 61.0791 24.1672C61.0791 19.8832 57.9561 16.3312 53.8611 15.6592" stroke="url(#paint0_linear_511_4868)" stroke-width="3" stroke-linecap="round" stroke-linejoin="round"/>
<path d="M59.1855 42.751C63.2385 43.357 66.0675 44.776 66.0675 47.701C66.0675 49.714 64.7355 51.022 62.5815 51.844" stroke="url(#paint1_linear_511_4868)" stroke-width="3" stroke-linecap="round" stroke-linejoin="round"/>
<path fill-rule="evenodd" clip-rule="evenodd" d="M35.6602 43.9915C26.0182 43.9915 17.7832 45.4525 17.7832 51.2875C17.7832 57.1195 25.9672 58.6225 35.6602 58.6225C45.3022 58.6225 53.5342 57.1765 53.5342 51.3385C53.5342 45.5005 45.3532 43.9915 35.6602 43.9915Z" stroke="url(#paint2_linear_511_4868)" stroke-width="3" stroke-linecap="round" stroke-linejoin="round"/>
<path fill-rule="evenodd" clip-rule="evenodd" d="M35.6602 35.6638C41.9872 35.6638 47.1172 30.5368 47.1172 24.2068C47.1172 17.8798 41.9872 12.7498 35.6602 12.7498C29.3332 12.7498 24.2032 17.8798 24.2032 24.2068C24.1792 30.5128 29.2702 35.6428 35.5762 35.6638H35.6602Z" stroke="url(#paint3_linear_511_4868)" stroke-width="3" stroke-linecap="round" stroke-linejoin="round"/>
<path d="M17.6543 32.6902C13.4663 32.1022 10.2473 28.5142 10.2383 24.1672C10.2383 19.8832 13.3613 16.3312 17.4563 15.6592" stroke="url(#paint4_linear_511_4868)" stroke-width="3" stroke-linecap="round" stroke-linejoin="round"/>
<path d="M12.132 42.751C8.079 43.357 5.25 44.776 5.25 47.701C5.25 49.714 6.582 51.022 8.736 51.844" stroke="url(#paint5_linear_511_4868)" stroke-width="3" stroke-linecap="round" stroke-linejoin="round"/>
<ellipse opacity="0.2" cx="25" cy="56.5" rx="22" ry="15.5" fill="url(#paint6_linear_511_4868)"/>
<defs>
<linearGradient id="paint0_linear_511_4868" x1="52.6375" y1="13.8344" x2="64.9739" y2="15.3725" gradientUnits="userSpaceOnUse">
<stop stop-color="#F58220"/>
<stop offset="1" stop-color="#F7BB89"/>
</linearGradient>
<linearGradient id="paint1_linear_511_4868" x1="58.2338" y1="41.7767" x2="69.3384" y2="44.1831" gradientUnits="userSpaceOnUse">
<stop stop-color="#F58220"/>
<stop offset="1" stop-color="#F7BB89"/>
</linearGradient>
<linearGradient id="paint2_linear_511_4868" x1="12.8389" y1="42.4238" x2="53.3866" y2="70.7927" gradientUnits="userSpaceOnUse">
<stop stop-color="#F58220"/>
<stop offset="1" stop-color="#F7BB89"/>
</linearGradient>
<linearGradient id="paint3_linear_511_4868" x1="21.0342" y1="10.2947" x2="56.8108" y2="20.5386" gradientUnits="userSpaceOnUse">
<stop stop-color="#F58220"/>
<stop offset="1" stop-color="#F7BB89"/>
</linearGradient>
<linearGradient id="paint4_linear_511_4868" x1="9.21266" y1="13.8344" x2="21.5491" y2="15.3725" gradientUnits="userSpaceOnUse">
<stop stop-color="#F58220"/>
<stop offset="1" stop-color="#F7BB89"/>
</linearGradient>
<linearGradient id="paint5_linear_511_4868" x1="4.29823" y1="41.7767" x2="15.4028" y2="44.1832" gradientUnits="userSpaceOnUse">
<stop stop-color="#F58220"/>
<stop offset="1" stop-color="#F7BB89"/>
</linearGradient>
<linearGradient id="paint6_linear_511_4868" x1="-3.08511" y1="37.6786" x2="60.7097" y2="63.6047" gradientUnits="userSpaceOnUse">
<stop stop-color="#F58220"/>
<stop offset="1" stop-color="#F7BB89"/>
</linearGradient>
</defs>
</svg>
