<svg width="72" height="72" viewBox="0 0 72 72" fill="none" xmlns="http://www.w3.org/2000/svg">
<g clip-path="url(#clip0_540_4844)">
<ellipse opacity="0.2" cx="22" cy="56.5" rx="22" ry="15.5" fill="url(#paint0_linear_540_4844)"/>
<path fill-rule="evenodd" clip-rule="evenodd" d="M58.5913 50.9991C59.47 51.8778 59.47 53.3024 58.5913 54.1811L49.4713 63.3011C48.5926 64.1798 47.168 64.1798 46.2893 63.3011L41.7293 58.7411C40.8506 57.8624 40.8506 56.4378 41.7293 55.5591C42.608 54.6804 44.0326 54.6804 44.9113 55.5591L47.8803 58.5281L55.4093 50.9991C56.288 50.1204 57.7126 50.1204 58.5913 50.9991Z" fill="url(#paint1_linear_540_4844)"/>
<path fill-rule="evenodd" clip-rule="evenodd" d="M35.9698 8.25C29.8607 8.25 24.9049 13.2124 24.9298 19.3108L24.9298 19.32C24.9298 25.2691 29.577 30.096 35.4445 30.3566C35.8002 30.3318 36.176 30.3306 36.5306 30.3563C42.3698 30.0925 47.0398 25.2634 47.0398 19.32C47.0398 13.2126 42.0772 8.25 35.9698 8.25ZM20.4298 19.3246C20.3972 10.7251 27.3805 3.75 35.9698 3.75C44.5624 3.75 51.5398 10.7274 51.5398 19.32C51.5398 27.7337 44.8775 34.5778 36.5557 34.8587C36.4557 34.8621 36.3555 34.8588 36.2559 34.8488C36.1113 34.8344 35.8951 34.8324 35.6935 34.8508C35.6007 34.8592 35.5074 34.8619 35.4142 34.8587C27.0601 34.5779 20.4322 27.7326 20.4298 19.3246Z" fill="url(#paint2_linear_540_4844)"/>
<path fill-rule="evenodd" clip-rule="evenodd" d="M35.9551 41.79C30.8524 41.79 25.8687 43.0896 22.1913 45.5501L22.1864 45.5533L22.1864 45.5533C19.0261 47.6558 17.7451 50.2067 17.7451 52.4738C17.7451 54.7419 19.0273 57.3013 22.19 59.4191C25.8848 61.8816 30.8548 63.18 35.9701 63.18C37.2128 63.18 38.2201 64.1874 38.2201 65.43C38.2201 66.6727 37.2128 67.68 35.9701 67.68C30.1662 67.68 24.2771 66.2189 19.692 63.1622L19.6885 63.1598C15.5924 60.4178 13.2451 56.5877 13.2451 52.4738C13.2451 48.3592 15.5932 44.5358 19.6914 41.8084C24.2637 38.75 30.1689 37.29 35.9551 37.29C41.7424 37.29 47.6487 38.7505 52.2213 41.81C53.2541 42.501 53.5312 43.8985 52.8401 44.9313C52.1491 45.964 50.7517 46.2411 49.7189 45.5501C46.0415 43.0896 41.0579 41.79 35.9551 41.79Z" fill="url(#paint3_linear_540_4844)"/>
</g>
<defs>
<linearGradient id="paint0_linear_540_4844" x1="-6.08511" y1="37.6786" x2="57.7097" y2="63.6047" gradientUnits="userSpaceOnUse">
<stop stop-color="#F58220"/>
<stop offset="1" stop-color="#F7BB89"/>
</linearGradient>
<linearGradient id="paint1_linear_540_4844" x1="59.2503" y1="63.9601" x2="46.1792" y2="46.5127" gradientUnits="userSpaceOnUse">
<stop stop-color="#FFC692"/>
<stop offset="1" stop-color="#F58220"/>
</linearGradient>
<linearGradient id="paint2_linear_540_4844" x1="51.5398" y1="34.86" x2="20.4298" y2="3.74989" gradientUnits="userSpaceOnUse">
<stop stop-color="#FFC692"/>
<stop offset="1" stop-color="#F58220"/>
</linearGradient>
<linearGradient id="paint3_linear_540_4844" x1="53.2204" y1="67.68" x2="23.9377" y2="29.1614" gradientUnits="userSpaceOnUse">
<stop stop-color="#FFC692"/>
<stop offset="1" stop-color="#F58220"/>
</linearGradient>
<clipPath id="clip0_540_4844">
<rect width="72" height="72" fill="white"/>
</clipPath>
</defs>
</svg>
