<svg width="50" height="50" viewBox="0 0 50 50" fill="none" xmlns="http://www.w3.org/2000/svg">
<g clip-path="url(#clip0_368_3724)">
<path d="M48.8281 2.73438H44.1406V0.390625C44.1406 0.287025 44.0995 0.187668 44.0262 0.114411C43.953 0.041155 43.8536 0 43.75 0C43.6464 0 43.547 0.041155 43.4738 0.114411C43.4005 0.187668 43.3594 0.287025 43.3594 0.390625V2.73438H39.4531V0.390625C39.4531 0.287025 39.412 0.187668 39.3387 0.114411C39.2655 0.041155 39.1661 0 39.0625 0C38.9589 0 38.8595 0.041155 38.7863 0.114411C38.713 0.187668 38.6719 0.287025 38.6719 0.390625V2.73438H34.7656V0.390625C34.7656 0.287025 34.7245 0.187668 34.6512 0.114411C34.578 0.041155 34.4786 0 34.375 0C34.2714 0 34.172 0.041155 34.0988 0.114411C34.0255 0.187668 33.9844 0.287025 33.9844 0.390625V2.73438H30.0781V0.390625C30.0781 0.287025 30.037 0.187668 29.9637 0.114411C29.8905 0.041155 29.7911 0 29.6875 0C29.5839 0 29.4845 0.041155 29.4113 0.114411C29.338 0.187668 29.2969 0.287025 29.2969 0.390625V2.73438H25.3906V0.390625C25.3906 0.287025 25.3495 0.187668 25.2762 0.114411C25.203 0.041155 25.1036 0 25 0C24.8964 0 24.797 0.041155 24.7238 0.114411C24.6505 0.187668 24.6094 0.287025 24.6094 0.390625V2.73438H20.7031V0.390625C20.7031 0.287025 20.662 0.187668 20.5887 0.114411C20.5155 0.041155 20.4161 0 20.3125 0C20.2089 0 20.1095 0.041155 20.0363 0.114411C19.963 0.187668 19.9219 0.287025 19.9219 0.390625V2.73438H16.0156V0.390625C16.0156 0.287025 15.9745 0.187668 15.9012 0.114411C15.828 0.041155 15.7286 0 15.625 0C15.5214 0 15.422 0.041155 15.3488 0.114411C15.2755 0.187668 15.2344 0.287025 15.2344 0.390625V2.73438H11.3281V0.390625C11.3281 0.287025 11.287 0.187668 11.2137 0.114411C11.1405 0.041155 11.0411 0 10.9375 0C10.8339 0 10.7345 0.041155 10.6613 0.114411C10.588 0.187668 10.5469 0.287025 10.5469 0.390625V2.73438H6.64062V0.390625C6.64062 0.287025 6.59947 0.187668 6.52621 0.114411C6.45296 0.041155 6.3536 0 6.25 0C6.1464 0 6.04704 0.041155 5.97379 0.114411C5.90053 0.187668 5.85938 0.287025 5.85938 0.390625V2.73438H1.17188C0.861075 2.73438 0.563004 2.85784 0.343234 3.07761C0.123465 3.29738 1.61122e-07 3.59545 1.61122e-07 3.90625V12.5C-0.000126938 12.7424 0.0749436 12.979 0.214866 13.1769C0.354788 13.3749 0.552673 13.5247 0.78125 13.6055C0.78125 51.3711 0.753906 49.6406 0.824219 49.7852C0.996094 50.1328 -2.13281 50.0078 48.8359 50.0078C48.9395 50.0078 49.0389 49.9667 49.1121 49.8934C49.1854 49.8201 49.2266 49.7208 49.2266 49.6172V13.6055C49.4537 13.5234 49.6499 13.3731 49.7883 13.1752C49.9268 12.9773 50.0007 12.7415 50 12.5V3.90625C50 3.59545 49.8765 3.29738 49.6568 3.07761C49.437 2.85784 49.1389 2.73438 48.8281 2.73438ZM48.4375 49.2188H5.90625L44.9688 42.5781C45.6478 42.571 46.3155 42.403 46.9171 42.088C47.5187 41.7729 48.0371 41.3197 48.4297 40.7656L48.4375 49.2188ZM8.32031 48L40.6602 38.8086C40.7453 39.5088 41.0016 40.1772 41.4062 40.7549C41.8109 41.3326 42.3515 41.8018 42.9805 42.1211L8.32031 48ZM48.4375 38.2812C48.4375 39.2137 48.0671 40.1079 47.4078 40.7672C46.7485 41.4265 45.8543 41.7969 44.9219 41.7969C43.9895 41.7969 43.0953 41.4265 42.436 40.7672C41.7766 40.1079 41.4062 39.2137 41.4062 38.2812C41.4062 37.5 43.2539 37.2305 1.5625 49.082V13.6719H48.4375V38.2812ZM49.2188 12.5C49.2188 12.6036 49.1776 12.703 49.1043 12.7762C49.0311 12.8495 48.9317 12.8906 48.8281 12.8906H1.17188C1.06827 12.8906 0.968918 12.8495 0.895662 12.7762C0.822405 12.703 0.78125 12.6036 0.78125 12.5V3.90625C0.78125 3.80265 0.822405 3.70329 0.895662 3.63004C0.968918 3.55678 1.06827 3.51562 1.17188 3.51562H5.85938V6.64062C5.85938 6.74423 5.90053 6.84358 5.97379 6.91684C6.04704 6.9901 6.1464 7.03125 6.25 7.03125C6.3536 7.03125 6.45296 6.9901 6.52621 6.91684C6.59947 6.84358 6.64062 6.74423 6.64062 6.64062V3.51562H10.5469V6.64062C10.5469 6.74423 10.588 6.84358 10.6613 6.91684C10.7345 6.9901 10.8339 7.03125 10.9375 7.03125C11.0411 7.03125 11.1405 6.9901 11.2137 6.91684C11.287 6.84358 11.3281 6.74423 11.3281 6.64062V3.51562H15.2344V6.64062C15.2344 6.74423 15.2755 6.84358 15.3488 6.91684C15.422 6.9901 15.5214 7.03125 15.625 7.03125C15.7286 7.03125 15.828 6.9901 15.9012 6.91684C15.9745 6.84358 16.0156 6.74423 16.0156 6.64062V3.51562H19.9219V6.64062C19.9219 6.74423 19.963 6.84358 20.0363 6.91684C20.1095 6.9901 20.2089 7.03125 20.3125 7.03125C20.4161 7.03125 20.5155 6.9901 20.5887 6.91684C20.662 6.84358 20.7031 6.74423 20.7031 6.64062V3.51562H24.6094V6.64062C24.6094 6.74423 24.6505 6.84358 24.7238 6.91684C24.797 6.9901 24.8964 7.03125 25 7.03125C25.1036 7.03125 25.203 6.9901 25.2762 6.91684C25.3495 6.84358 25.3906 6.74423 25.3906 6.64062V3.51562H29.2969V6.64062C29.2969 6.74423 29.338 6.84358 29.4113 6.91684C29.4845 6.9901 29.5839 7.03125 29.6875 7.03125C29.7911 7.03125 29.8905 6.9901 29.9637 6.91684C30.037 6.84358 30.0781 6.74423 30.0781 6.64062V3.51562H33.9844V6.64062C33.9844 6.74423 34.0255 6.84358 34.0988 6.91684C34.172 6.9901 34.2714 7.03125 34.375 7.03125C34.4786 7.03125 34.578 6.9901 34.6512 6.91684C34.7245 6.84358 34.7656 6.74423 34.7656 6.64062V3.51562H38.6719V6.64062C38.6719 6.74423 38.713 6.84358 38.7863 6.91684C38.8595 6.9901 38.9589 7.03125 39.0625 7.03125C39.1661 7.03125 39.2655 6.9901 39.3387 6.91684C39.412 6.84358 39.4531 6.74423 39.4531 6.64062V3.51562H43.3594V6.64062C43.3594 6.74423 43.4005 6.84358 43.4738 6.91684C43.547 6.9901 43.6464 7.03125 43.75 7.03125C43.8536 7.03125 43.953 6.9901 44.0262 6.91684C44.0995 6.84358 44.1406 6.74423 44.1406 6.64062V3.51562H48.8281C48.9317 3.51562 49.0311 3.55678 49.1043 3.63004C49.1776 3.70329 49.2188 3.80265 49.2188 3.90625V12.5Z" fill="#252424"/>
<circle cx="24.8889" cy="26.8889" r="8.88889" fill="#0D51A0"/>
<path d="M23.1187 30.3003C23.1537 30.3366 23.1956 30.3654 23.242 30.3852C23.2884 30.4049 23.3383 30.415 23.3887 30.415C23.4391 30.415 23.489 30.4049 23.5354 30.3852C23.5818 30.3654 23.6237 30.3366 23.6587 30.3003L29.6587 24.3003C29.7303 24.2287 29.7705 24.1315 29.7705 24.0303C29.7705 23.929 29.7303 23.8319 29.6587 23.7603C29.5871 23.6887 29.4899 23.6484 29.3887 23.6484C29.2874 23.6484 29.1903 23.6887 29.1187 23.7603L23.3887 29.4903L20.6587 26.7603C20.5871 26.6887 20.4899 26.6484 20.3887 26.6484C20.2874 26.6484 20.1903 26.6887 20.1187 26.7603C20.0471 26.8319 20.0068 26.929 20.0068 27.0303C20.0068 27.1315 20.0471 27.2287 20.1187 27.3003L23.1187 30.3003Z" fill="white"/>
</g>
<defs>
<clipPath id="clip0_368_3724">
<rect width="50" height="50" fill="white"/>
</clipPath>
</defs>
</svg>
