<svg width="24" height="24" viewBox="0 0 24 24" fill="none" xmlns="http://www.w3.org/2000/svg">
<path d="M16.9417 21.6308C16.7662 21.6303 16.5913 21.611 16.4199 21.5734C13.1567 20.8983 10.1505 19.3156 7.74717 17.0074C5.39514 14.6941 3.76388 11.7488 3.05077 8.52779C2.96668 8.12636 2.98732 7.71004 3.11069 7.31889C3.23407 6.92775 3.45603 6.57493 3.75523 6.29439L5.84252 4.28538C5.94913 4.18455 6.0758 4.10735 6.21427 4.05879C6.35274 4.01024 6.49989 3.99143 6.64612 4.00359C6.79774 4.01941 6.94406 4.06825 7.07478 4.14669C7.2055 4.22512 7.31746 4.33124 7.40276 4.45758L10.0119 8.31385C10.1097 8.46347 10.157 8.64056 10.1466 8.81904C10.1363 8.99752 10.0689 9.16797 9.95448 9.30531L8.6447 10.8708C9.16634 12.0253 9.90508 13.0687 10.8207 13.9443C11.7304 14.8517 12.8056 15.5761 13.9882 16.0786L15.611 14.7897C15.7473 14.6819 15.9132 14.6183 16.0866 14.6071C16.2599 14.5959 16.4326 14.6377 16.5816 14.727L20.5214 17.2735C20.6566 17.3543 20.7718 17.4645 20.8583 17.5961C20.9448 17.7277 21.0005 17.8771 21.021 18.0332C21.0416 18.1893 21.0266 18.3481 20.9771 18.4976C20.9277 18.647 20.845 18.7834 20.7353 18.8964L18.7002 20.9106C18.469 21.1407 18.1947 21.3227 17.8929 21.4463C17.5911 21.5699 17.2678 21.6326 16.9417 21.6308ZM6.56263 5.0368L4.47534 7.04582C4.30703 7.20265 4.18243 7.40059 4.11381 7.62018C4.04519 7.83976 4.03491 8.07343 4.08397 8.29819C4.74706 11.3207 6.27131 14.0864 8.4725 16.2612C10.7342 18.4328 13.5632 19.9215 16.6338 20.5558C16.8662 20.6044 17.1071 20.5945 17.3348 20.5272C17.5624 20.4598 17.7698 20.3369 17.9384 20.1696L19.9735 18.1554L16.1694 15.6976L14.4265 17.0857C14.3598 17.1385 14.2811 17.1742 14.1975 17.1896C14.1138 17.2051 14.0276 17.1999 13.9464 17.1744C12.4992 16.6412 11.1878 15.7948 10.1058 14.6957C8.98668 13.6506 8.11799 12.3663 7.56453 10.9386C7.54112 10.8522 7.54034 10.7612 7.56227 10.6744C7.5842 10.5875 7.62811 10.5078 7.68977 10.4429L9.09869 8.75739L6.56263 5.0368Z" fill="#252424"/>
</svg>
