<svg width="438" height="300" viewBox="0 0 438 300" fill="none" xmlns="http://www.w3.org/2000/svg">
<path d="M438 295H236.473H0C0 174.05 98.0496 76 219 76C339.95 76 438 174.05 438 295Z" fill="#FDE7D5"/>
<path d="M286.789 47.0996H115.115C103.489 47.0996 94.0918 56.5825 94.0918 68.311V231.02C94.0918 242.749 103.489 252.231 115.115 252.231H286.789C298.412 252.231 307.812 242.749 307.812 231.02V68.311C307.812 56.6194 298.375 47.0996 286.789 47.0996Z" fill="white"/>
<path d="M116.929 84.2289C121.704 84.2289 125.574 80.325 125.574 75.508C125.574 70.691 121.704 66.7871 116.929 66.7871C112.157 66.7871 108.284 70.691 108.284 75.508C108.284 80.325 112.157 84.2289 116.929 84.2289Z" fill="#FF9032"/>
<path d="M142.031 84.2289C146.805 84.2289 150.672 80.325 150.672 75.508C150.672 70.691 146.805 66.7871 142.031 66.7871C137.259 66.7871 133.386 70.691 133.386 75.508C133.386 80.325 137.259 84.2289 142.031 84.2289Z" fill="#FF9032"/>
<path d="M167.169 84.2289C171.944 84.2289 175.811 80.325 175.811 75.508C175.811 70.691 171.944 66.7871 167.169 66.7871C162.398 66.7871 158.524 70.691 158.524 75.508C158.524 80.325 162.398 84.2289 167.169 84.2289Z" fill="#FF9032"/>
<path d="M307.735 31.8786C316.313 31.8786 323.26 24.8663 323.26 16.216C323.26 7.56557 316.313 0.556641 307.735 0.556641C299.16 0.556641 292.212 7.56557 292.212 16.216C292.212 24.8663 299.16 31.8786 307.735 31.8786Z" fill="#A0CCFF"/>
<path d="M190.635 198.414L162.774 126.371L219.039 104.18L241.672 162.665" stroke="#76A6DD" stroke-width="1.33099" stroke-linecap="round" stroke-linejoin="round"/>
<path d="M188.669 216.075C195.034 207.395 194.518 196.116 187.514 190.886C180.506 185.656 169.665 188.456 163.297 197.14C156.931 205.824 157.447 217.099 164.451 222.329C171.456 227.559 182.3 224.759 188.669 216.075Z" fill="#76A6DD"/>
<path d="M240.024 181.105C246.39 172.425 245.874 161.146 238.87 155.919C231.862 150.69 221.021 153.489 214.653 162.17C208.284 170.854 208.803 182.132 215.807 187.359C222.811 192.589 233.656 189.789 240.024 181.105Z" fill="#76A6DD"/>
<path d="M311.711 258.383C311.125 264.861 307.917 290.772 306.457 299.604L281.677 298.926C281.677 298.926 280.452 296.099 285.151 293.038C286.026 292.451 286.465 291.36 287.047 290.712C289.703 287.738 289.413 284.206 288.944 281.054C288.625 278.846 287.107 272.488 285.91 267.453C285.004 263.744 284.276 260.739 284.276 260.739L311.711 258.383Z" fill="#A36B66"/>
<path opacity="0.2" d="M311.711 258.352C311.418 261.651 310.426 270.043 309.345 278.64L285.91 267.452C285.004 263.712 284.306 260.708 284.306 260.708L311.711 258.352Z" fill="#050505"/>
<path d="M284.858 292.536C285.647 292.006 286.405 291.419 287.048 290.71C289.966 292.241 291.66 294.567 292.358 296.659H299.862C301.698 292.093 304.939 290.24 307.888 289.74C307.332 293.772 306.836 297.276 306.457 299.602H280.862C280.832 299.602 280.772 299.572 280.772 299.545C280.715 298.985 280.539 295.363 284.858 292.536Z" fill="#2C425B"/>
<path d="M326.594 258.383C326.361 261.122 325.633 267.365 324.757 274.341C324.115 279.467 323.413 284.972 322.771 289.742C321.896 293.894 320.378 298.751 320.378 298.751L296.417 299.073C296.417 299.073 295.659 296.307 300.357 293.246C301.262 292.655 301.349 291.36 301.931 290.712C304.59 287.768 304.297 284.206 303.831 281.054C303.245 277.228 299.159 260.739 299.159 260.739L326.594 258.383Z" fill="#A36B66"/>
<path opacity="0.2" d="M326.594 258.352C326.361 261.091 325.633 267.364 324.757 274.34L299.159 260.708L326.594 258.352Z" fill="#050505"/>
<path d="M299.745 292.536C300.531 292.006 301.293 291.419 301.932 290.71C304.853 292.241 306.543 294.567 307.246 296.659H314.746C316.586 292.093 319.823 290.24 322.771 289.74C322.219 293.715 321.72 297.189 321.371 299.515C321.371 299.572 321.314 299.602 321.254 299.602H295.862C295.746 299.602 295.659 299.515 295.629 299.398C295.599 298.542 295.686 295.185 299.745 292.536Z" fill="#2C425B"/>
<path d="M288.012 160.542C288.099 159.451 290.375 158.629 290.754 158.511C290.784 158.511 290.814 158.481 290.814 158.421C290.84 157.42 291.599 147.175 297.409 143.406C300.211 141.375 304.327 140.197 309.93 141.432C319.327 143.493 321.693 149.354 321.926 155.124C322.218 161.895 320.175 167.403 318.715 170.935L318.395 178.031L301.465 182.153L301.202 176.295C294.753 177.678 291.835 175.026 291.047 173.408C289.672 170.669 289.935 166.608 290.228 163.338C290.228 163.281 290.198 163.221 290.142 163.191C289.732 162.898 287.922 161.808 288.012 160.542Z" fill="#A36B66"/>
<path d="M336.753 264.831C336.753 264.861 336.753 264.861 336.723 264.861H312.323L274.613 264.831C274.586 264.831 274.586 264.831 274.586 264.801C275.634 246.077 278.612 230.323 282.668 217.457H331.323C334.241 230.941 336.663 247.282 336.753 264.831Z" fill="#F58220"/>
<path d="M295.22 159.742C294.72 159.742 294.314 159.333 294.314 158.831C294.314 158.328 294.72 157.92 295.22 157.92C295.719 157.92 296.125 158.328 296.125 158.831C296.125 159.333 295.719 159.742 295.22 159.742Z" fill="#231F20"/>
<path d="M296.883 142.171C296.943 142.228 297.06 142.258 297.146 142.198C299.978 140.167 305.405 138.519 310.922 139.724C313.667 140.345 315.827 141.402 315.727 141.083C315.883 137.545 318.159 130.805 323.589 126.065C330.391 120.117 339.585 119.556 344.107 124.796C348.632 130.066 346.762 139.136 339.964 145.115C334.098 150.237 326.478 151.355 322.728 150.606C322.568 150.502 322.977 152.885 323.094 155.037C323.383 161.808 320.176 167.403 318.715 170.935C318.715 170.935 314.629 169.552 312.499 166.017C312.383 165.812 312.409 165.547 312.586 165.369C313.93 164.221 319.008 159.424 315.184 155.329C311.215 151.059 306.34 157.008 305.202 158.538C305.056 158.746 304.793 158.834 304.56 158.777C302.836 158.303 296.038 156.242 291.456 152.416C289.556 150.855 288.069 148.972 287.427 146.793C285.676 140.371 293.147 138.576 296.883 142.171Z" fill="#231F20"/>
<path opacity="0.2" d="M308.469 239.539C308.034 235.739 307.478 231.47 306.603 226.552C305.056 217.838 318.422 203.998 320.934 201.732C321.137 201.554 321.43 201.615 321.517 201.85C325.223 210.419 325.047 221.607 324.318 226.76C323.413 233.474 321.197 240.744 315.797 246.192L308.469 239.539Z" fill="black"/>
<path d="M297.991 247.784C297.086 251.08 295.542 253.054 295.189 253.494C295.133 253.554 295.133 253.641 295.162 253.702C295.775 255.733 298.896 255.259 299.422 255.172C299.452 255.172 299.508 255.202 299.508 255.232C300.124 256.646 302.37 257.468 303.801 255.524C303.831 255.498 303.887 255.467 303.947 255.498C306.689 257.35 308.12 255.054 308.499 254.611C308.529 254.585 308.559 254.554 308.615 254.585C313.81 255.937 313.051 243.984 312.934 242.775L300.094 239.244C299.452 241.601 298.866 244.544 297.991 247.784Z" fill="#A36B66"/>
<path d="M282.668 217.456C287.836 201.055 294.693 189.367 301.378 182.271C301.435 182.214 301.465 182.123 301.465 182.036L301.292 178.031H320.555C320.671 178.031 320.758 178.119 320.758 178.236V181.858C320.758 181.858 326.684 196.05 331.322 217.487L321.34 219.105C321.34 219.135 321.34 219.192 321.34 219.222C320.292 228.614 318.568 237.889 316.206 247.046C316.146 247.311 315.883 247.489 315.59 247.429L298.896 244.28C298.896 244.28 298.866 244.28 298.866 244.25C299.771 237.684 301.145 230.706 302.05 220.608L282.668 217.456Z" fill="#0D51A0"/>
<path opacity="0.2" d="M301.203 176.265L301.409 180.622C301.409 180.682 301.466 180.682 301.496 180.652L305.173 174.526C305.203 174.469 305.143 174.439 305.086 174.469C303.685 175.352 303.013 175.647 301.203 176.265Z" fill="#050505"/>
<path d="M295.628 298.924C295.569 298.132 295.598 294.923 299.745 292.241C304.706 289.002 304.413 284.588 303.831 280.758C303.451 278.227 301.525 270.13 300.27 264.947" stroke="#050505" stroke-width="1.33099" stroke-linecap="round" stroke-linejoin="round"/>
<path d="M293.526 166.339C294.052 166.573 295.922 166.513 296.445 164.959" stroke="#050505" stroke-width="1.33099" stroke-linecap="round" stroke-linejoin="round"/>
<path d="M301.203 176.262C302.604 175.82 303.858 175.469 305.086 174.471" stroke="#050505" stroke-width="1.33099" stroke-linecap="round" stroke-linejoin="round"/>
<path d="M309.082 161.802L311.418 159.451" stroke="#050505" stroke-width="1.33099" stroke-linecap="round" stroke-linejoin="round"/>
<path d="M300.909 251.906C300.503 252.907 300.007 254.202 299.451 255.142" stroke="#050505" stroke-width="1.33099" stroke-linecap="round" stroke-linejoin="round"/>
<path d="M304.996 252.791C304.793 253.613 304.21 254.674 303.831 255.439" stroke="#050505" stroke-width="1.33099" stroke-linecap="round" stroke-linejoin="round"/>
<path d="M309.667 251.906C309.461 252.728 308.878 253.789 308.499 254.554" stroke="#050505" stroke-width="1.33099" stroke-linecap="round" stroke-linejoin="round"/>
<path d="M322.362 203.973C322.362 203.973 321.956 212.009 321.37 219.075" stroke="black" stroke-width="1.33099" stroke-linecap="round" stroke-linejoin="round"/>
<path d="M302.547 213.336L302.051 220.58" stroke="black" stroke-width="1.33099" stroke-linecap="round" stroke-linejoin="round"/>
<path d="M394.986 95.5034C393.329 95.9699 391.941 97.0978 391.133 98.652L389.472 101.841L387.815 98.652C387.007 97.0978 385.619 95.9699 383.962 95.5034C378.372 93.9089 373.823 100.169 376.984 105.07L389.472 124.318L401.963 105.07C405.121 100.169 400.576 93.9089 394.986 95.5034Z" fill="#FF9032"/>
<path d="M95.8892 195.283C94.9541 189.566 89.5736 185.672 83.907 186.615C78.2403 187.555 74.3804 192.983 75.3154 198.703" stroke="#1C1C1C" stroke-width="1.33099" stroke-linecap="round" stroke-linejoin="round"/>
<path d="M59.3797 265.184C50.8415 266.604 42.7091 260.757 41.2949 252.103L36.2106 220.972C34.8031 212.356 40.5995 204.152 49.1777 202.725L95.9553 194.951C104.494 193.531 112.626 199.378 114.04 208.032L119.124 239.163C120.532 247.779 114.736 255.983 106.157 257.41L59.3797 265.184Z" fill="#CB762E"/>
<path d="M75.6847 262.475C67.1465 263.895 59.0141 258.047 57.5999 249.393L52.5122 218.259C51.1047 209.646 56.9045 201.442 65.4827 200.015L112.257 192.238C120.799 190.818 128.931 196.665 130.345 205.319L135.429 236.453C136.837 245.067 131.041 253.27 122.462 254.697L75.6847 262.475Z" fill="#FF9032"/>
<path d="M78.8356 236.612L68.9131 232.99L78.21 229.355L78.8223 216.26L86.1427 225.944L93.8558 220.681L92.4882 229.395L103.765 234.477L93.5164 238.112L96.6043 246.77L87.3639 241.227L77.0454 250.546L78.8356 236.612Z" fill="#F58220"/>
<path d="M110.111 223.767C115.302 222.905 118.812 217.963 117.957 212.73C117.102 207.497 112.204 203.952 107.016 204.815C101.829 205.678 98.315 210.619 99.1702 215.852C100.025 221.088 104.923 224.63 110.111 223.767Z" fill="white"/>
</svg>
