<svg width="72" height="73" viewBox="0 0 72 73" fill="none" xmlns="http://www.w3.org/2000/svg">
<path d="M27 66H45C60 66 66 60 66 45V27C66 12 60 6 45 6H27C12 6 6 12 6 27V45C6 60 12 66 27 66Z" stroke="url(#paint0_linear_322_5872)" stroke-width="3" stroke-linecap="round" stroke-linejoin="round"/>
<path d="M21 24.75C24 27.75 28.89 27.75 31.92 24.75" stroke="url(#paint1_linear_322_5872)" stroke-width="3" stroke-miterlimit="10" stroke-linecap="round" stroke-linejoin="round"/>
<path d="M40.0801 24.75C43.0801 27.75 47.9701 27.75 51.0001 24.75" stroke="url(#paint2_linear_322_5872)" stroke-width="3" stroke-miterlimit="10" stroke-linecap="round" stroke-linejoin="round"/>
<path d="M25.2 39H46.8C48.3 39 49.5 40.2 49.5 41.7C49.5 49.17 43.47 55.2 36 55.2C28.53 55.2 22.5 49.17 22.5 41.7C22.5 40.2 23.7 39 25.2 39Z" stroke="url(#paint3_linear_322_5872)" stroke-width="3" stroke-miterlimit="10" stroke-linecap="round" stroke-linejoin="round"/>
<ellipse opacity="0.2" cx="23" cy="57.5" rx="22" ry="15.5" fill="url(#paint4_linear_322_5872)"/>
<defs>
<linearGradient id="paint0_linear_322_5872" x1="-2.29787" y1="-0.428568" x2="91.3826" y2="26.3947" gradientUnits="userSpaceOnUse">
<stop stop-color="#0D51A0"/>
<stop offset="1" stop-color="#6EAFFB"/>
</linearGradient>
<linearGradient id="paint1_linear_322_5872" x1="19.4898" y1="24.5089" x2="25.7836" y2="33.255" gradientUnits="userSpaceOnUse">
<stop stop-color="#0D51A0"/>
<stop offset="1" stop-color="#6EAFFB"/>
</linearGradient>
<linearGradient id="paint2_linear_322_5872" x1="38.5699" y1="24.5089" x2="44.8636" y2="33.255" gradientUnits="userSpaceOnUse">
<stop stop-color="#0D51A0"/>
<stop offset="1" stop-color="#6EAFFB"/>
</linearGradient>
<linearGradient id="paint3_linear_322_5872" x1="18.766" y1="37.2643" x2="55.9177" y2="54.9935" gradientUnits="userSpaceOnUse">
<stop stop-color="#0D51A0"/>
<stop offset="1" stop-color="#6EAFFB"/>
</linearGradient>
<linearGradient id="paint4_linear_322_5872" x1="-5.08511" y1="38.6786" x2="58.7097" y2="64.6047" gradientUnits="userSpaceOnUse">
<stop stop-color="#0D51A0"/>
<stop offset="1" stop-color="#6EAFFB"/>
</linearGradient>
</defs>
</svg>
