<svg width="24" height="24" viewBox="0 0 24 24" fill="none" xmlns="http://www.w3.org/2000/svg">
<path d="M18.6 4.80078C19.3957 4.80078 20.1587 5.11685 20.7213 5.67946C21.284 6.24207 21.6 7.00513 21.6 7.80078V17.4008C21.6 18.1964 21.284 18.9595 20.7213 19.5221C20.1587 20.0847 19.3957 20.4008 18.6 20.4008H5.40002C4.60437 20.4008 3.84131 20.0847 3.2787 19.5221C2.71609 18.9595 2.40002 18.1964 2.40002 17.4008V7.80078C2.40002 7.00513 2.71609 6.24207 3.2787 5.67946C3.84131 5.11685 4.60437 4.80078 5.40002 4.80078H18.6ZM20.4 9.55398L12.3048 14.318C12.2283 14.3629 12.1427 14.3903 12.0543 14.3982C11.9659 14.4061 11.8769 14.3943 11.7936 14.3636L11.6952 14.318L3.60002 9.55638V17.4008C3.60002 17.8782 3.78967 18.336 4.12723 18.6736C4.4648 19.0111 4.92263 19.2008 5.40002 19.2008H18.6C19.0774 19.2008 19.5352 19.0111 19.8728 18.6736C20.2104 18.336 20.4 17.8782 20.4 17.4008V9.55398ZM18.6 6.00078H5.40002C4.92263 6.00078 4.4648 6.19042 4.12723 6.52799C3.78967 6.86555 3.60002 7.32339 3.60002 7.80078V8.16318L12 13.1048L20.4 8.16078V7.80078C20.4 7.32339 20.2104 6.86555 19.8728 6.52799C19.5352 6.19042 19.0774 6.00078 18.6 6.00078Z" fill="#252424"/>
</svg>
