<svg width="46" height="46" viewBox="0 0 46 46" fill="none" xmlns="http://www.w3.org/2000/svg">
<g clip-path="url(#clip0_368_3719)">
<ellipse cx="22.9055" cy="25.4587" rx="7.57202" ry="7.57201" fill="#0D51A0"/>
<path d="M18.3496 30.8867V21.0167H19.8056V25.2727H25.3496V21.0167H26.8056V30.8867H25.3496V26.4907H19.8056V30.8867H18.3496Z" fill="white"/>
<path d="M45.8025 22.9661C46.09 22.8259 46.0074 22.9841 46.0074 17.6078C46.0074 17.3311 47.4449 18.5134 23.223 0.0667183C22.8636 -0.199219 24.1789 -1.01141 0.136745 17.3167C-0.0680984 17.4712 0.000182813 17.2197 0.000182813 22.6391C-0.00276766 22.7086 0.0145547 22.7776 0.0500441 22.8375C0.0855335 22.8974 0.137662 22.9457 0.200091 22.9765C0.262521 23.0073 0.332564 23.0194 0.401705 23.0111C0.470847 23.0029 0.536109 22.9748 0.589558 22.9302L5.03143 19.5448V40.9672H0.359558C0.264246 40.9672 0.172837 41.0051 0.105441 41.0724C0.0380454 41.1398 0.000182813 41.2313 0.000182813 41.3266V45.6391C0.000182813 45.7344 0.0380454 45.8258 0.105441 45.8932C0.172837 45.9606 0.264246 45.9984 0.359558 45.9984H45.6408C45.7361 45.9984 45.8275 45.9606 45.8949 45.8932C45.9623 45.8258 46.0002 45.7344 46.0002 45.6391V41.3266C46.0002 41.2313 45.9623 41.1398 45.8949 41.0724C45.8275 41.0051 45.7361 40.9672 45.6408 40.9672H40.9689V19.5448C45.7235 23.1637 45.5114 23.1134 45.8025 22.9661ZM0.718933 17.7911L23.0002 0.817812L45.2814 17.7911V21.8987L23.223 5.09797C23.1596 5.04783 23.081 5.02056 23.0002 5.02056C22.9193 5.02056 22.8408 5.04783 22.7774 5.09797L0.718933 21.8987V17.7911ZM45.2814 45.2797H0.718933V41.6859H45.2814V45.2797ZM40.2502 40.9672H5.75018V18.9878L23.0002 5.84906L40.2502 18.9878V40.9672Z" fill="#252424"/>
</g>
<defs>
<clipPath id="clip0_368_3719">
<rect width="46" height="46" fill="white"/>
</clipPath>
</defs>
</svg>
