<svg width="48" height="48" viewBox="0 0 48 48" fill="none" xmlns="http://www.w3.org/2000/svg">
<g clip-path="url(#clip0_368_3712)">
<path d="M42.75 5.25086C36.2064 5.23792 29.7906 3.43818 24.195 0.0458643C24.1537 0.0233643 24 -0.0741357 23.7337 0.0871143C18.1549 3.45302 11.7656 5.23799 5.25 5.25086C5.15054 5.25086 5.05516 5.29037 4.98484 5.3607C4.91451 5.43103 4.875 5.52641 4.875 5.62586V22.0021C4.875 34.1671 12.7013 44.8771 23.9062 47.9934C23.9725 48.0119 24.0425 48.0119 24.1087 47.9934C35.3063 44.8584 43.125 34.1671 43.125 22.0021V5.62586C43.125 5.52641 43.0855 5.43103 43.0152 5.3607C42.9448 5.29037 42.8495 5.25086 42.75 5.25086ZM42.375 22.0096C42.375 33.7959 34.8263 44.1534 24 47.2359C13.1812 44.1459 5.625 33.7884 5.625 22.0021V6.00086C12.0991 5.92202 18.4376 4.13559 24 0.822114C29.5624 4.13559 35.9009 5.92202 42.375 6.00086V22.0096Z" fill="#252424"/>
<circle cx="24.0002" cy="23.1115" r="8.88889" fill="#0D51A0"/>
<path d="M8.22018 8.12747C8.12467 8.13321 8.03497 8.17524 7.96944 8.24495C7.90391 8.31467 7.8675 8.40679 7.86768 8.50247V22.0025C7.86768 32.4125 14.4527 41.8137 23.8839 44.8775C23.9598 44.9 24.0406 44.9 24.1164 44.8775C33.5477 41.8137 40.1252 32.4125 40.1252 22.0025V8.50247C40.1253 8.40679 40.0889 8.31467 40.0234 8.24495C39.9579 8.17524 39.8682 8.13321 39.7727 8.12747C34.3071 7.70477 28.9937 6.1262 24.1839 3.49622C24.1262 3.46536 24.0618 3.44922 23.9964 3.44922C23.931 3.44922 23.8666 3.46536 23.8089 3.49622C18.9992 6.1262 13.6857 7.70477 8.22018 8.12747ZM39.3677 8.87747V22.0025C39.3677 32.0412 33.0527 41.105 23.9927 44.09C14.9402 41.09 8.61768 32.0412 8.61768 22.0025V8.87747C14.0068 8.41144 19.2426 6.84274 24.0002 4.26872C28.7566 6.83653 33.9897 8.40008 39.3752 8.86247L39.3677 8.87747Z" fill="#252424"/>
<path d="M24 32.25C25.78 32.25 27.5201 31.7222 29.0001 30.7332C30.4802 29.7443 31.6337 28.3387 32.3149 26.6942C32.9961 25.0496 33.1743 23.24 32.8271 21.4942C32.4798 19.7484 31.6226 18.1447 30.364 16.886C29.1053 15.6274 27.5016 14.7702 25.7558 14.4229C24.01 14.0757 22.2004 14.2539 20.5558 14.9351C18.9113 15.6163 17.5057 16.7698 16.5168 18.2499C15.5278 19.7299 15 21.47 15 23.25C15 25.637 15.9482 27.9261 17.636 29.614C19.3239 31.3018 21.6131 32.25 24 32.25ZM24 15C25.6317 15 27.2267 15.4839 28.5835 16.3904C29.9402 17.2969 30.9976 18.5854 31.622 20.0929C32.2464 21.6004 32.4098 23.2592 32.0915 24.8595C31.7732 26.4598 30.9874 27.9299 29.8336 29.0836C28.6798 30.2374 27.2098 31.0232 25.6095 31.3415C24.0092 31.6598 22.3504 31.4964 20.8429 30.872C19.3354 30.2476 18.0469 29.1902 17.1404 27.8335C16.2339 26.4768 15.75 24.8817 15.75 23.25C15.75 21.062 16.6192 18.9635 18.1664 17.4164C19.7135 15.8692 21.812 15 24 15Z" fill="white"/>
<path d="M22.23 26.519C22.265 26.5553 22.3069 26.5842 22.3533 26.6039C22.3997 26.6236 22.4496 26.6338 22.5 26.6338C22.5504 26.6338 22.6003 26.6236 22.6467 26.6039C22.6931 26.5842 22.735 26.5553 22.77 26.519L28.77 20.519C28.8416 20.4474 28.8818 20.3503 28.8818 20.249C28.8818 20.1478 28.8416 20.0506 28.77 19.979C28.6984 19.9074 28.6013 19.8672 28.5 19.8672C28.3987 19.8672 28.3016 19.9074 28.23 19.979L22.5 25.709L19.77 22.979C19.6984 22.9074 19.6013 22.8672 19.5 22.8672C19.3987 22.8672 19.3016 22.9074 19.23 22.979C19.1584 23.0506 19.1182 23.1478 19.1182 23.249C19.1182 23.3503 19.1584 23.4474 19.23 23.519L22.23 26.519Z" fill="white"/>
</g>
<defs>
<clipPath id="clip0_368_3712">
<rect width="48" height="48" fill="white"/>
</clipPath>
</defs>
</svg>
