<svg width="24" height="24" viewBox="0 0 24 24" fill="none" xmlns="http://www.w3.org/2000/svg">
<g clip-path="url(#clip0_29712_8598)">
<path d="M13.9241 11.8001L11.2289 10.5425C10.9937 10.4333 10.8005 10.5557 10.8005 10.8161V13.1849C10.8005 13.4453 10.9937 13.5677 11.2289 13.4585L13.9229 12.2009C14.1593 12.0905 14.1593 11.9105 13.9241 11.8001ZM12.0005 0.480469C5.63807 0.480469 0.480469 5.63807 0.480469 12.0005C0.480469 18.3629 5.63807 23.5205 12.0005 23.5205C18.3629 23.5205 23.5205 18.3629 23.5205 12.0005C23.5205 5.63807 18.3629 0.480469 12.0005 0.480469ZM12.0005 16.6805C6.10367 16.6805 6.00047 16.1489 6.00047 12.0005C6.00047 7.85207 6.10367 7.32047 12.0005 7.32047C17.8973 7.32047 18.0005 7.85207 18.0005 12.0005C18.0005 16.1489 17.8973 16.6805 12.0005 16.6805Z" fill="#F58220"/>
</g>
<defs>
<clipPath id="clip0_29712_8598">
<rect width="24" height="24" fill="white"/>
</clipPath>
</defs>
</svg>
