<svg width="38" height="38" viewBox="0 0 38 38" fill="none" xmlns="http://www.w3.org/2000/svg">
<path d="M19 21.375C17.8257 21.375 16.6777 21.0268 15.7013 20.3744C14.7249 19.7219 13.9639 18.7946 13.5145 17.7097C13.0651 16.6247 12.9475 15.4309 13.1766 14.2792C13.4057 13.1274 13.9712 12.0694 14.8016 11.2391C15.6319 10.4087 16.6899 9.84319 17.8417 9.61409C18.9934 9.38499 20.1873 9.50257 21.2722 9.95197C22.3571 10.4014 23.2844 11.1624 23.9369 12.1388C24.5893 13.1152 24.9375 14.2632 24.9375 15.4375C24.9356 17.0116 24.3095 18.5208 23.1964 19.6339C22.0833 20.747 20.5741 21.3731 19 21.375ZM19 11.875C18.2954 11.875 17.6066 12.0839 17.0208 12.4754C16.4349 12.8668 15.9783 13.4232 15.7087 14.0742C15.439 14.7252 15.3685 15.4415 15.506 16.1325C15.6434 16.8236 15.9827 17.4583 16.4809 17.9566C16.9792 18.4548 17.6139 18.7941 18.305 18.9316C18.9961 19.069 19.7124 18.9985 20.3633 18.7288C21.0143 18.4592 21.5707 18.0026 21.9621 17.4167C22.3536 16.8309 22.5625 16.1421 22.5625 15.4375C22.5616 14.493 22.1859 13.5874 21.518 12.9195C20.8501 12.2516 19.9445 11.8759 19 11.875Z" fill="url(#paint0_linear_30133_5864)"/>
<path d="M19 35.625L8.98226 23.8106C8.84307 23.6332 8.70531 23.4546 8.56901 23.275C6.8578 21.0209 5.93337 18.2676 5.93751 15.4375C5.93751 11.9731 7.31374 8.65061 9.76343 6.20092C12.2131 3.75122 15.5356 2.375 19 2.375C22.4644 2.375 25.7869 3.75122 28.2366 6.20092C30.6863 8.65061 32.0625 11.9731 32.0625 15.4375C32.0667 18.2663 31.1426 21.0183 29.4322 23.2714L29.431 23.275C29.431 23.275 29.0748 23.7429 29.0213 23.8058L19 35.625ZM10.4643 21.8441C10.4666 21.8441 10.7421 22.2098 10.8051 22.2882L19 31.9533L27.2056 22.2751C27.2579 22.2098 27.5358 21.8417 27.537 21.8405C28.9348 19.9988 29.6903 17.7496 29.6875 15.4375C29.6875 12.603 28.5615 9.88459 26.5572 7.8803C24.5529 5.876 21.8345 4.75 19 4.75C16.1655 4.75 13.4471 5.876 11.4428 7.8803C9.43852 9.88459 8.31251 12.603 8.31251 15.4375C8.31002 17.751 9.06631 20.0015 10.4655 21.8441H10.4643Z" fill="url(#paint1_linear_30133_5864)"/>
<defs>
<linearGradient id="paint0_linear_30133_5864" x1="24.9375" y1="21.375" x2="13.0625" y2="9.5" gradientUnits="userSpaceOnUse">
<stop stop-color="#5195E4"/>
<stop offset="1" stop-color="#0D51A0"/>
</linearGradient>
<linearGradient id="paint1_linear_30133_5864" x1="32.0625" y1="35.625" x2="-0.243472" y2="10.2417" gradientUnits="userSpaceOnUse">
<stop stop-color="#5195E4"/>
<stop offset="1" stop-color="#0D51A0"/>
</linearGradient>
</defs>
</svg>
