<svg width="438" height="274" viewBox="0 0 438 274" fill="none" xmlns="http://www.w3.org/2000/svg">
<path d="M438 274H236.473H0C0 153.05 98.0496 55 219 55C339.95 55 438 153.05 438 274Z" fill="#FDE7D5"/>
<path d="M376.419 229.993L362.775 228.415L364.763 216.614C364.817 216.342 364.654 216.097 364.409 216.015C364.164 215.933 363.891 216.042 363.755 216.26L358.308 225.962L349.239 216.124C349.049 215.933 348.749 215.879 348.531 216.042C348.313 216.206 348.232 216.478 348.341 216.723L354.033 228.658L344.364 230.838C344.119 230.893 343.929 231.111 343.929 231.383C343.929 231.656 344.119 231.874 344.364 231.901L354.196 233.672L350.247 248.607C350.165 248.88 350.302 249.152 350.574 249.261C350.628 249.289 350.71 249.316 350.792 249.316C350.982 249.316 351.173 249.207 351.255 249.043L358.69 236.207L365.362 243.457C365.525 243.647 365.825 243.702 366.043 243.565C366.261 243.429 366.37 243.157 366.261 242.911L362.911 233.536L376.419 231.056C376.691 231.002 376.882 230.784 376.855 230.511C376.828 230.239 376.691 230.02 376.419 229.993Z" fill="#FF9032"/>
<path d="M306.345 18.775C308.497 18.775 310.24 17.0308 310.24 14.8777C310.24 12.7247 308.497 10.9805 306.345 10.9805C304.194 10.9805 302.451 12.7247 302.451 14.8777C302.451 17.0308 304.194 18.775 306.345 18.775Z" fill="white"/>
<path d="M320.807 174.667C328.895 180.526 347.142 173.631 358.417 166.872C370.945 159.35 371.517 151.256 366.506 151.256C359.534 151.256 342.267 172.732 352.289 177.447C360.569 181.371 375.684 174.394 379.578 178.836C383.473 183.279 385.161 193.063 396 198.077" stroke="white" stroke-width="1.16956" stroke-linecap="round" stroke-linejoin="round"/>
<path d="M83.4884 238.441C85.9558 238.441 87.9548 236.441 87.9548 233.972C87.9548 231.502 85.9558 229.502 83.4884 229.502C81.021 229.502 79.022 231.502 79.022 233.972C79.022 236.441 81.021 238.441 83.4884 238.441Z" fill="#0D51A0"/>
<path d="M314.27 260.735C316.961 260.735 319.145 258.552 319.145 255.857C319.145 253.162 316.961 250.979 314.27 250.979C311.577 250.979 309.396 253.162 309.396 255.857C309.396 258.552 311.577 260.735 314.27 260.735Z" fill="#61AAFF"/>
<path d="M45.0769 95.9581C47.9202 95.9581 50.2242 93.6525 50.2242 90.8072C50.2242 87.9619 47.9202 85.6562 45.0769 85.6562C42.2337 85.6562 39.9297 87.9619 39.9297 90.8072C39.9297 93.6525 42.2337 95.9581 45.0769 95.9581Z" fill="#61AAFF"/>
<path d="M68.4276 131.206C71.4152 129.05 72.0933 124.878 69.9391 121.888C67.7822 118.895 63.6126 118.217 60.625 120.375C57.6347 122.531 56.9593 126.704 59.1135 129.696C61.2677 132.686 65.4373 133.364 68.4276 131.206Z" fill="#FFCCA0"/>
<path d="M30 189.356C40.7575 179.872 60.6929 167.063 77.3875 177.937C77.3875 177.937 60.9653 156.461 69.3262 146.432C80.2471 133.296 112.383 168.998 107.563 175.13C102.606 181.398 91.522 153.354 97.3229 137.765C101.898 125.501 123.74 143.897 127.253 154.771" stroke="white" stroke-width="1.16956" stroke-linecap="round" stroke-linejoin="round"/>
<path d="M323.04 43.8496H300.19C300.19 43.8496 297.549 57.3674 305.501 64.5351H328.351C320.398 57.3674 323.04 43.8496 323.04 43.8496Z" fill="#FFCCA0"/>
<path d="M291.013 32.1582H268.163C268.163 32.1582 265.521 45.676 273.474 52.8437H296.323C288.344 45.676 291.013 32.1582 291.013 32.1582Z" fill="#F58220"/>
<path d="M234.665 0H258.222C263.642 0 268.027 4.38783 268.027 9.81129V10.2473C268.027 15.6708 263.642 20.0586 258.222 20.0586H234.665C229.245 20.0586 224.86 15.6708 224.86 10.2473V9.81129C224.86 4.38783 229.245 0 234.665 0Z" fill="#FF9032"/>
<path d="M238.968 11.3381C240.577 11.3381 241.882 10.0327 241.882 8.42199C241.882 6.81131 240.577 5.50586 238.968 5.50586C237.358 5.50586 236.054 6.81131 236.054 8.42199C236.054 10.0327 237.358 11.3381 238.968 11.3381Z" stroke="white" stroke-width="1.16956" stroke-linecap="round" stroke-linejoin="round"/>
<path d="M241.31 10.1934L237.796 14.5812" stroke="white" stroke-width="1.16956" stroke-linecap="round" stroke-linejoin="round"/>
<path d="M248.037 11.3381C249.646 11.3381 250.951 10.0327 250.951 8.42199C250.951 6.81131 249.646 5.50586 248.037 5.50586C246.427 5.50586 245.123 6.81131 245.123 8.42199C245.123 10.0327 246.427 11.3381 248.037 11.3381Z" stroke="white" stroke-width="1.16956" stroke-linecap="round" stroke-linejoin="round"/>
<path d="M250.379 10.1934L246.866 14.5812" stroke="white" stroke-width="1.16956" stroke-linecap="round" stroke-linejoin="round"/>
<path d="M255.935 7.98438V12.0997" stroke="white" stroke-width="1.16956" stroke-linecap="round" stroke-linejoin="round"/>
<path d="M257.977 10.0566H253.892" stroke="white" stroke-width="1.16956" stroke-linecap="round" stroke-linejoin="round"/>
<path d="M290.576 99.6141H252.993C250.923 99.6141 249.235 97.9244 249.235 95.8531V69.3899C249.235 67.3186 250.923 65.6289 252.993 65.6289H263.152C264.486 65.6289 265.712 66.3375 266.392 67.4822L267.563 69.4717C268.244 70.6163 269.47 71.3249 270.804 71.3249H290.604C292.673 71.3249 294.362 73.0146 294.362 75.0859V95.8531C294.362 97.9244 292.673 99.6141 290.576 99.6141C290.604 99.6141 290.604 99.6141 290.576 99.6141Z" fill="#61AAFF"/>
<path d="M133.953 162.32H198.498C203.128 162.32 206.913 166.081 206.913 170.742V235.333C206.913 239.966 203.155 243.754 198.498 243.754H133.953C129.323 243.754 125.538 239.993 125.538 235.333V170.742C125.538 166.081 129.296 162.32 133.953 162.32Z" fill="#61AAFF"/>
<path d="M136.132 228.109H196.292" stroke="white" stroke-width="1.16956" stroke-linecap="round" stroke-linejoin="round"/>
<path d="M136.132 228.111V180.172" stroke="white" stroke-width="1.16956" stroke-linecap="round" stroke-linejoin="round"/>
<path d="M133.354 201.619C143.948 201.619 143.104 216.118 150.62 216.118C161.759 216.118 163.72 185.186 176.248 185.186C188.776 185.186 187.114 202.737 195.748 202.737" stroke="#0D51A0" stroke-width="1.16956" stroke-linecap="round" stroke-linejoin="round"/>
<path d="M165.926 198.295C168.393 198.295 170.392 196.294 170.392 193.825C170.392 191.356 168.393 189.355 165.926 189.355C163.458 189.355 161.459 191.356 161.459 193.825C161.459 196.294 163.458 198.295 165.926 198.295Z" fill="white"/>
<path d="M147.271 227.837V225.33" stroke="white" stroke-width="1.16956" stroke-linecap="round" stroke-linejoin="round"/>
<path d="M158.409 227.837V225.33" stroke="white" stroke-width="1.16956" stroke-linecap="round" stroke-linejoin="round"/>
<path d="M169.548 227.837V225.33" stroke="white" stroke-width="1.16956" stroke-linecap="round" stroke-linejoin="round"/>
<path d="M180.687 227.837V225.33" stroke="white" stroke-width="1.16956" stroke-linecap="round" stroke-linejoin="round"/>
<path d="M191.853 227.837V225.33" stroke="white" stroke-width="1.16956" stroke-linecap="round" stroke-linejoin="round"/>
<path d="M90.3207 119.358C87.9023 119.356 85.582 118.394 83.8717 116.682C82.1614 114.971 81.2 112.649 81.1973 110.231V23.7093C81.2 21.2919 82.1614 18.9699 83.8717 17.2583C85.582 15.5468 87.9023 14.5848 90.3207 14.582H202.49C204.909 14.5848 207.226 15.5468 208.937 17.2583C210.647 18.9699 211.608 21.2919 211.614 23.7093V110.231C211.608 112.649 210.647 114.971 208.937 116.682C207.226 118.394 204.909 119.356 202.49 119.358H90.3207Z" fill="#CECECE"/>
<path d="M81.2026 34.1934H212.014" stroke="#E1E1E1" stroke-width="1.16956"/>
<path d="M90.7943 27.6571C92.7116 27.6571 94.264 26.1037 94.264 24.185C94.264 22.2663 92.7116 20.7129 90.7943 20.7129C88.8798 20.7129 87.3247 22.2663 87.3247 24.185C87.3247 26.1037 88.8798 27.6571 90.7943 27.6571Z" fill="#E1E1E1"/>
<path d="M101.309 27.6571C103.224 27.6571 104.779 26.1037 104.779 24.185C104.779 22.2663 103.224 20.7129 101.309 20.7129C99.3922 20.7129 97.8398 22.2663 97.8398 24.185C97.8398 26.1037 99.3922 27.6571 101.309 27.6571Z" fill="#E1E1E1"/>
<path d="M111.819 27.6571C113.737 27.6571 115.289 26.1037 115.289 24.185C115.289 22.2663 113.737 20.7129 111.819 20.7129C109.905 20.7129 108.353 22.2663 108.353 24.185C108.353 26.1037 109.905 27.6571 111.819 27.6571Z" fill="#E1E1E1"/>
<path d="M116.769 60.7617H102.662V104.711H116.769V60.7617Z" fill="#61AAFF"/>
<path d="M167.811 54.3359H153.701V104.709H167.811V54.3359Z" fill="#FFCCA0"/>
<path d="M142.274 45.0547H128.164V104.71H142.274V45.0547Z" fill="#0D51A0"/>
<path d="M193.316 79.3281H179.206V104.709H193.316V79.3281Z" fill="#0D51A0"/>
<path d="M95.605 104.709H200.369" stroke="black" stroke-width="1.16956" stroke-linecap="round" stroke-linejoin="round"/>
<path d="M89.2073 59.9317L71.3961 56.0071L76.7885 43.9338C76.8974 43.6885 76.8157 43.416 76.5978 43.2525C76.38 43.1162 76.0804 43.1435 75.8897 43.307L66.4122 52.9002L57.2616 41.7535C57.0982 41.5355 56.7986 41.481 56.5807 41.6173C56.3628 41.7535 56.2539 42.0261 56.3356 42.2713L61.156 55.5166H47.2666C46.9943 55.5166 46.7764 55.7074 46.7219 55.9799C46.6675 56.2524 46.8309 56.4977 47.076 56.5795L61.0743 61.4033L55.682 74.3761C55.573 74.6213 55.682 74.8939 55.8998 75.0574C56.1177 75.1937 56.4173 75.1664 56.6079 74.9756L66.0582 64.5648L77.8234 78.2733C77.9323 78.4096 78.0957 78.4641 78.2319 78.4641C78.3408 78.4641 78.4498 78.4368 78.5315 78.3823C78.7493 78.2461 78.831 77.9463 78.7221 77.701L71.3144 61.8939L89.1256 60.9945C89.3979 60.9945 89.6158 60.7765 89.643 60.504C89.6702 60.2587 89.4796 60.0134 89.2073 59.9317Z" fill="#F58220"/>
<path d="M271.431 124.111H332.463C335.595 124.111 338.155 126.673 338.155 129.807V199.822C338.155 202.956 335.595 205.518 332.463 205.518H271.431C268.299 205.518 265.739 202.956 265.739 199.822V129.807C265.739 126.646 268.299 124.111 271.431 124.111Z" fill="#FFCCA0"/>
<path d="M278.73 142.098L281.236 144.606L285.293 140.572" stroke="white" stroke-width="1.16956" stroke-linecap="round" stroke-linejoin="round"/>
<path d="M283.61 166.55C284.871 165.676 285.185 163.945 284.313 162.683C283.439 161.419 281.709 161.105 280.449 161.98C279.185 162.852 278.872 164.585 279.743 165.847C280.617 167.109 282.349 167.425 283.61 166.55Z" stroke="white" stroke-width="1.16956" stroke-linecap="round" stroke-linejoin="round"/>
<path d="M283.608 188.19C284.869 187.315 285.184 185.585 284.31 184.323C283.439 183.061 281.707 182.745 280.446 183.62C279.185 184.492 278.869 186.225 279.743 187.487C280.617 188.749 282.347 189.065 283.608 188.19Z" stroke="white" stroke-width="1.16956" stroke-linecap="round" stroke-linejoin="round"/>
<path d="M293.164 143.107H318.492" stroke="#0D51A0" stroke-width="1.16956" stroke-linecap="round" stroke-linejoin="round"/>
<path d="M293.164 164.281H318.492" stroke="#0D51A0" stroke-width="1.16956" stroke-linecap="round" stroke-linejoin="round"/>
<path d="M293.164 185.732H318.492" stroke="#0D51A0" stroke-width="1.16956" stroke-linecap="round" stroke-linejoin="round"/>
<path d="M357.41 192.712C359.139 192.712 360.542 191.308 360.542 189.578C360.542 187.847 359.139 186.443 357.41 186.443C355.68 186.443 354.278 187.847 354.278 189.578C354.278 191.308 355.68 192.712 357.41 192.712Z" fill="#0D51A0"/>
<path opacity="0.2" d="M331.128 147.414C348.365 147.414 362.339 133.431 362.339 116.182C362.339 98.933 348.365 84.9492 331.128 84.9492C313.892 84.9492 299.918 98.933 299.918 116.182C299.918 133.431 313.892 147.414 331.128 147.414Z" fill="#0D51A0"/>
<path d="M338.999 127.547H342.839" stroke="#23211F" stroke-width="1.16956" stroke-linecap="round" stroke-linejoin="round"/>
<path d="M331.128 140.328C348.365 140.328 362.339 126.345 362.339 109.096C362.339 91.8471 348.365 77.8633 331.128 77.8633C313.892 77.8633 299.918 91.8471 299.918 109.096C299.918 126.345 313.892 140.328 331.128 140.328Z" fill="white"/>
<path d="M343.139 127.846V124.875L325.573 124.848V128.118H319.717C315.278 128.118 311.71 130.734 310.104 132.152C322.822 143.789 342.539 142.89 354.168 130.162C354.332 129.971 354.522 129.781 354.686 129.59C352.997 128.472 351.009 127.873 348.967 127.818L343.139 127.846Z" fill="#61AAFF"/>
<path d="M316.531 110.649C317.157 107.488 317.13 103.59 317.675 100.075C318.056 97.6763 318.682 95.4688 319.99 93.8336C323.203 89.8273 331.837 88.2739 338.754 93.343C345.671 98.4122 345.317 105.553 345.045 108.769L343.111 119.588L343.139 124.957H325.573L325.545 122.041C325.545 122.041 321.705 122.859 319.445 121.305C316.395 119.207 315.469 115.963 316.531 110.649Z" fill="#AC704E"/>
<path d="M319.99 93.8344C323.203 89.8281 332.354 87.3208 339.271 92.39C346.189 97.4592 345.317 105.553 345.045 108.769L343.111 119.589C343.111 119.589 337.91 117.954 335.704 113.811C335.704 113.811 343.248 110.432 339.816 105.581C336.521 100.92 330.774 106.671 330.774 106.671C327.479 105.581 324.184 100.893 324.184 100.893C319.254 101.166 317.675 100.048 317.675 100.048C318.056 97.6772 318.682 95.4696 319.99 93.8344Z" fill="#221F1F"/>
<path d="M325.001 108.989C325.466 108.989 325.845 108.61 325.845 108.144C325.845 107.678 325.466 107.299 325.001 107.299C324.535 107.299 324.156 107.678 324.156 108.144C324.156 108.61 324.535 108.989 325.001 108.989Z" fill="black"/>
<path d="M318.982 108.414C319.448 108.414 319.826 108.036 319.826 107.569C319.826 107.103 319.448 106.725 318.982 106.725C318.514 106.725 318.138 107.103 318.138 107.569C318.138 108.036 318.514 108.414 318.982 108.414Z" fill="black"/>
<path d="M320.806 110.377C320.67 110.84 320.589 111.249 320.67 111.413C320.806 111.658 321.024 111.876 321.269 112.012" stroke="#23211F" stroke-width="1.16956" stroke-linecap="round" stroke-linejoin="round"/>
<path d="M323.612 114.383C323.094 114.873 322.359 115.091 321.651 114.928" stroke="#23211F" stroke-width="1.16956" stroke-linecap="round" stroke-linejoin="round"/>
<path d="M328.895 121.359C327.915 121.795 326.58 121.714 325.545 122.041" stroke="#23211F" stroke-width="1.16956" stroke-linecap="round" stroke-linejoin="round"/>
<path d="M335.704 108.605L333.797 109.968" stroke="#23211F" stroke-width="1.16956" stroke-linecap="round" stroke-linejoin="round"/>
<path d="M362.14 69.7402H347.774C342.493 69.7402 338.198 74.0381 338.198 79.3253C338.198 84.0293 341.613 88.0274 346.251 88.7796V93.6988L353.272 88.9077H362.14C367.42 88.9077 371.715 84.6098 371.715 79.3253C371.715 74.0163 367.42 69.7402 362.14 69.7402Z" fill="#0D51A0"/>
<path d="M349.579 80.4831C350.301 80.4831 350.889 79.8972 350.889 79.1722C350.889 78.45 350.301 77.8613 349.579 77.8613C348.855 77.8613 348.27 78.45 348.27 79.1722C348.27 79.8972 348.855 80.4831 349.579 80.4831Z" fill="white"/>
<path d="M354.947 80.4831C355.669 80.4831 356.257 79.8972 356.257 79.1722C356.257 78.45 355.669 77.8613 354.947 77.8613C354.223 77.8613 353.637 78.45 353.637 79.1722C353.637 79.8972 354.223 80.4831 354.947 80.4831Z" fill="white"/>
<path d="M360.337 80.4831C361.059 80.4831 361.647 79.8972 361.647 79.1722C361.647 78.45 361.059 77.8613 360.337 77.8613C359.612 77.8613 359.027 78.45 359.027 79.1722C359.027 79.8972 359.612 80.4831 360.337 80.4831Z" fill="white"/>
<path opacity="0.2" d="M114.219 225.74H139.22C142.779 225.74 145.661 228.624 145.661 232.186V245.611C145.661 249.173 142.779 252.056 139.22 252.056H114.219C110.659 252.056 107.778 249.173 107.778 245.611V232.186C107.778 228.624 110.659 225.74 114.219 225.74Z" fill="#0D51A0"/>
<path d="M111.997 221.705H136.998C140.557 221.705 143.438 224.589 143.438 228.151V241.576C143.438 245.138 140.557 248.021 136.998 248.021H111.997C108.437 248.021 105.556 245.138 105.556 241.576V228.151C105.556 224.589 108.437 221.705 111.997 221.705Z" fill="#0D51A0"/>
<path opacity="0.2" d="M124.486 240.772L141.423 223.477H107.552L124.486 240.772Z" fill="#1A1B1D"/>
<path d="M124.486 237.024L141.412 223.49C140.29 222.384 138.727 221.705 136.998 221.705H111.997C110.267 221.705 108.704 222.384 107.574 223.477L124.486 237.024Z" fill="#0D51A0"/>
<path d="M141.339 223.537L124.486 237.006L107.606 223.51" stroke="#1A1B1D" stroke-width="1.16956" stroke-linecap="round" stroke-linejoin="round"/>
<path d="M128.026 234.555L141.771 245.571" stroke="#1A1B1D" stroke-width="1.16956" stroke-linecap="round" stroke-linejoin="round"/>
<path d="M107.119 245.51L120.908 234.494" stroke="#1A1B1D" stroke-width="1.16956" stroke-linecap="round" stroke-linejoin="round"/>
<path d="M211.08 41.5758C206.504 39.0412 202.092 37.9511 199.151 39.123C192.342 41.5486 189.265 53.0223 189.156 53.4856C189.156 53.4856 186.65 53.4584 186.296 54.4668C185.888 55.7204 187.713 57.5737 187.713 57.5737C186.732 60.4081 185.643 64.2508 187.25 67.5757C188.775 70.7099 192.778 72.3451 197.789 71.5275L197.626 73.3808L217.126 76.3241C217.371 75.5065 218.814 60.7351 219.086 57.928C219.631 51.9867 218.406 45.6094 211.08 41.5758Z" fill="#AC704E"/>
<path opacity="0.2" d="M197.817 71.5533C197.817 71.5533 200.812 70.8447 202.637 69.9453L197.408 75.9138L197.817 71.5533Z" fill="#0D51A0"/>
<path d="M264.377 257.695L284.121 248.756L283.084 243.243C282.896 242.106 282.596 241.016 282.297 239.98C282.079 239.245 281.861 238.481 281.616 237.718C280.69 234.666 279.573 231.259 278.212 227.498C276.823 223.628 275.379 220.14 273.909 216.924L247.192 226.354C250.869 231.941 254.409 237.637 256.615 242.133C257.214 243.278 257.704 244.532 258.14 245.758L264.377 257.695Z" fill="#AC704E"/>
<path d="M274.971 246.713C271.376 248.239 270.287 254.18 267.999 254.535C265.739 254.889 267.836 249.166 266.419 245.814C265.167 242.87 262.28 243.933 258.058 245.732C258.331 246.495 258.549 247.258 258.739 248.021C259.148 249.793 259.202 251.319 258.794 252.518C256.642 258.786 251.005 262.084 250.869 268.052L250.896 268.216L285.483 253.499V253.472C284.83 250.065 284.04 246.577 283.114 243.17L274.971 246.713Z" fill="#FFCCA0"/>
<path d="M263.097 252.872L258.938 252.482" stroke="#FF9032" stroke-width="1.16956" stroke-linecap="round" stroke-linejoin="round"/>
<path d="M262.007 257.288L257.38 255.824" stroke="#FF9032" stroke-width="1.16956" stroke-linecap="round" stroke-linejoin="round"/>
<path d="M185.67 67.4644C183.41 66.456 181.258 70.3806 179.27 72.4791C178.344 73.4602 177.228 73.9508 176.765 73.0242C174.804 69.1269 184.009 68.0095 184.853 66.347C185.697 64.6846 184.308 63.5672 180.959 64.1122C175.948 62.7223 171.29 64.9844 169.248 68.282C167.015 71.9068 167.205 73.0514 162.848 80.8187C162.058 82.2359 161.241 83.7621 160.479 85.2883L173.36 93.4371L180.414 81.391C180.387 81.391 188.176 68.5818 185.67 67.4644Z" fill="#AC704E"/>
<path d="M230.225 88.0963C226.603 81.5555 220.475 77.7672 217.126 76.3773C217.207 76.132 217.371 74.7966 217.561 72.9434L197.626 73.0251L197.326 76.0503C197.326 76.0503 192.07 76.1593 188.421 77.1677C185.37 78.0125 183.137 78.8846 180.332 81.392L171.971 91.394L160.587 84.9349C155.086 95.8909 150.865 109.409 158.872 115.922C169.466 124.562 185.888 108.7 185.888 108.7L191.525 127.123L222.191 127.614L227.692 132.056C227.692 132.056 232.05 131.648 234.61 130.149C246.62 123.281 234.419 95.6183 230.225 88.0963Z" fill="#F58220"/>
<path d="M242.753 87.7971C240.52 70.5184 222.981 71.0634 220.475 58.2542C218.977 50.596 219.168 44.4912 211.842 40.4304C207.267 37.8958 202.092 37.9503 199.151 39.1222C195.474 40.4304 192.969 44.0279 191.525 47.1348L195.502 50.6505C195.502 50.6505 201.937 47.083 201.82 47.3528C199.042 50.9775 197.735 52.8035 197.735 52.8035L202.038 56.9461C202.038 56.9461 210.371 52.4765 212.087 57.8182C213.803 63.1599 205.415 66.8936 205.415 66.8936C203.754 82.4827 210.725 87.8244 210.725 87.8244H216.962C216.962 87.8244 215.012 79.5747 215.464 80.0298C217.97 83.382 222.3 87.8244 222.3 87.8244L242.753 87.7971Z" fill="#221F1F"/>
<path d="M222.164 127.096L226.031 103.686" stroke="#2B2B2B" stroke-width="1.16956" stroke-linecap="round" stroke-linejoin="round"/>
<path d="M224.098 117.611L227.992 119.274" stroke="#2B2B2B" stroke-width="1.16956" stroke-linecap="round" stroke-linejoin="round"/>
<path d="M186.106 108.509L192.07 103.549" stroke="#2B2B2B" stroke-width="1.16956" stroke-linecap="round" stroke-linejoin="round"/>
<path d="M173.687 67.165C175.615 65.696 178.407 64.5622 180.915 64.1289" stroke="#23211F" stroke-width="1.16956" stroke-linecap="round" stroke-linejoin="round"/>
<path d="M190.354 60.0524L192.642 59.9434" stroke="#23211F" stroke-width="1.16956" stroke-linecap="round" stroke-linejoin="round"/>
<path d="M197.98 71.4998C199.097 71.091 200.186 70.6822 201.275 70.2734" stroke="#23211F" stroke-width="1.16956" stroke-linecap="round" stroke-linejoin="round"/>
<path d="M197.625 76.0781H200.104" stroke="#2B2B2B" stroke-width="1.16956" stroke-linecap="round" stroke-linejoin="round"/>
<path d="M204.571 61.2519L207.022 60.0527" stroke="#23211F" stroke-width="1.16956" stroke-linecap="round" stroke-linejoin="round"/>
<path d="M193.323 55.2833C193.805 55.2833 194.194 54.8936 194.194 54.4112C194.194 53.9288 193.805 53.5391 193.323 53.5391C192.841 53.5391 192.451 53.9288 192.451 54.4112C192.451 54.8936 192.841 55.2833 193.323 55.2833Z" fill="#221F1F"/>
<path d="M219.794 44.5997C224.021 44.5997 227.447 41.1712 227.447 36.9414C227.447 32.7117 224.021 29.2832 219.794 29.2832C215.568 29.2832 212.142 32.7117 212.142 36.9414C212.142 41.1712 215.568 44.5997 219.794 44.5997Z" fill="#221F1F"/>
<path d="M205.415 33.7246L223.825 50.7308" stroke="#FF9032" stroke-width="1.16956" stroke-linecap="round" stroke-linejoin="round"/>
<path opacity="0.2" d="M276.605 223.356C275.706 221.094 274.781 218.941 273.855 216.924L247.41 226.735L276.605 223.356Z" fill="#23211F"/>
<path d="M222.3 253.199C222.681 249.765 223.008 245.814 223.253 241.371C223.471 237.61 223.525 234.067 223.416 230.797L195.583 230.77C196.754 237.31 197.626 243.442 197.68 248.212C197.68 249.166 197.68 250.038 197.626 250.91L199.668 262.411L204.08 265.845L219.93 264.046L221.619 258.405C221.782 257.233 221.946 256.061 222.082 254.889C222.191 254.317 222.273 253.772 222.3 253.199Z" fill="#AC704E"/>
<path d="M203.726 262.847C201.493 262.302 205.687 257.832 205.687 254.208C205.687 250.91 202.474 250.855 197.653 250.855H197.626C197.517 252.409 197.272 253.772 196.891 254.862C196.646 255.598 196.237 256.306 195.72 256.879C191.253 261.811 184.826 262.82 182.348 268.025L182.375 269.17L219.522 268.652L219.931 268.025C220.639 264.809 221.211 261.566 221.647 258.35H213.204C209.337 258.377 205.987 263.419 203.726 262.847Z" fill="#FFCCA0"/>
<path opacity="0.2" d="M223.444 230.822H195.61L223.416 237.99C223.498 235.483 223.498 233.084 223.444 230.822Z" fill="#23211F"/>
<path d="M255.852 187.026C248.036 176.016 246.184 162.144 239.457 148.435C232.73 134.727 222.136 127.096 222.136 127.096H212.768C212.768 127.068 212.741 127.068 212.741 127.068H191.525C191.525 127.068 186.378 160.754 190.763 202.097C191.689 210.982 193.895 221.911 195.583 231.368L228.182 231.531C230.688 222.565 220.747 210.846 218.296 200.408C216.717 193.594 217.779 185.364 219.086 176.888C223.335 185.718 228.046 194.984 233.003 203.978C237.006 211.2 242.508 219.24 247.437 226.762L279.001 215.179C276.469 200.68 259.829 192.613 255.852 187.026Z" fill="#0D51A0"/>
<path opacity="0.2" d="M222.164 127.097L224.514 129.021L227.665 132.084C227.747 132.084 230.988 131.757 233.466 130.722C227.175 125.925 224.806 110.963 224.806 110.963L222.164 127.097Z" fill="#2B2B2B"/>
<path opacity="0.2" d="M167.913 89.0781L163.638 102.705L171.999 91.3947L167.913 89.0781Z" fill="#2B2B2B"/>
<path d="M199.178 259.057L195.564 257.064" stroke="#FF9032" stroke-width="1.16956" stroke-linecap="round" stroke-linejoin="round"/>
<path d="M196.319 262.409L192.977 259.545" stroke="#FF9032" stroke-width="1.16956" stroke-linecap="round" stroke-linejoin="round"/>
<path opacity="0.2" d="M222.327 158.984C227.856 186.429 236.87 190.19 238.123 212.538C236.271 209.622 233.602 205.179 232.077 202.427C224.125 187.056 225.813 191.498 219.277 177.135L222.327 158.984Z" fill="#1A1B1D"/>
<path d="M232.186 137.344H227.202L228.7 142.903C229.463 145.711 232.513 147.973 234.746 147.973C236.598 147.973 237.66 147.4 238.314 146.474" stroke="#1A1B1D" stroke-width="1.16956" stroke-linecap="round" stroke-linejoin="round"/>
<path d="M219.059 176.889C219.985 169.122 222.245 161.518 222.708 153.969" stroke="#111112" stroke-width="1.16956" stroke-linecap="round" stroke-linejoin="round"/>
<path d="M212.387 147.998C215.165 147.998 216.826 145.736 216.091 142.956L214.593 137.424H204.516L206.014 142.956C206.777 145.736 209.636 147.998 212.387 147.998Z" stroke="#1A1B1D" stroke-width="1.16956" stroke-linecap="round" stroke-linejoin="round"/>
<path d="M197.162 127.395C195.61 139.386 195.065 171.055 198.197 189.533C201.248 207.656 205.714 216.841 206.667 230.631" stroke="#1A1B1D" stroke-width="1.16956" stroke-linecap="round" stroke-linejoin="round"/>
<path d="M163.719 102.703L171.781 91.5293" stroke="#2B2B2B" stroke-width="1.16956" stroke-linecap="round" stroke-linejoin="round"/>
<path d="M286.082 257.558L251.549 272.139C251.059 270.831 250.814 269.359 250.841 267.969L285.456 253.361C285.973 256.059 286.082 257.558 286.082 257.558Z" fill="#0D51A0"/>
<path d="M218.869 272.141H181.395C181.476 270.724 181.803 269.334 182.375 268.053H219.958C219.332 270.805 218.869 272.141 218.869 272.141Z" fill="#0D51A0"/>
<path d="M77.4766 199.508L72.7651 206.569L81.3466 203.064L77.4766 199.508Z" fill="white"/>
<path opacity="0.2" d="M77.4766 199.508L72.7651 206.569L81.3466 203.064L77.4766 199.508Z" fill="#515151"/>
<path d="M77.4771 199.508L82.45 210.497L98.7007 191.166C98.7361 191.13 98.7007 191.079 98.6489 191.095L77.4771 199.508Z" fill="white"/>
<path d="M67.8794 192.637L77.4767 199.508L98.6677 191.095C98.684 191.078 98.684 191.043 98.6486 191.043L67.8794 192.637Z" fill="white"/>
<path d="M77.4771 199.508L79.5605 204.114" stroke="#515151" stroke-width="1.16956" stroke-linecap="round" stroke-linejoin="round"/>
<path d="M98.6489 191.094L77.4771 199.507" stroke="#515151" stroke-width="1.16956" stroke-linecap="round" stroke-linejoin="round"/>
</svg>
