<svg width="80" height="96" viewBox="0 0 80 96" fill="none" xmlns="http://www.w3.org/2000/svg">
<path d="M15.5226 31.0486C24.1009 31.0486 31.0486 24.0975 31.0486 15.5226C31.0486 6.94775 24.1009 0 15.5226 0C6.94776 0 0 6.94775 0 15.5226C0 24.0975 6.94776 31.0486 15.5226 31.0486Z" fill="#A0CCFF"/>
<path d="M71.0405 67.2511C69.3834 67.7137 67.9959 68.8317 67.1873 70.3723L65.5269 73.5334L63.8698 70.3723C63.0612 68.8317 61.6737 67.7137 60.0166 67.2511C54.4264 65.6706 49.8778 71.8763 53.0389 76.7344L65.5269 95.8141L78.0182 76.7344C81.1759 71.8763 76.6306 65.6706 71.0405 67.2511Z" fill="#FF9032"/>
</svg>
